<svg xmlns="http://www.w3.org/2000/svg">
<defs>
<font id="JellykaSaint-AndrewsQueen" horiz-adv-x="1014" >
  <font-face 
    font-family="Jellyka Saint-Andrew's Queen"
    font-weight="400"
    font-stretch="normal"
    units-per-em="2048"
    panose-1="2 0 5 0 0 0 0 0 0 0"
    ascent="1638"
    descent="-410"
    x-height="379"
    cap-height="1206"
    bbox="-2024 -1064 5373 1931"
    underline-thickness="150"
    underline-position="-142"
    unicode-range="U+0020-U+F002"
  />
<missing-glyph horiz-adv-x="1839" 
d="M185 1768q53 -9 68 -20h44l12 -8l24 4l16 -4l44 8q62 0 92 -28l40 4v-4l4 4l20 -4h56l16 4l4 -4h4l116 4h8l4 4l12 -4l260 8l4 4h4l16 -4h4l24 4l4 -4l48 4h64l4 -4l4 4h8l4 -4l20 8q0 -12 48 -12h36l4 -4l4 4l52 -8v4l-4 12h20l8 -8l-8 -8h32v4h-12v8l28 4l8 -12l-8 -8
h52v4h-20v8l36 4l4 -4v-4l48 12l12 -4v4q0 16 24 16l16 -12l24 8q28 0 32 -88l-4 -16l4 -40v-8q0 -8 -12 -8v-16l16 -8l-12 -20l4 -20h-4l4 -4v-4l-8 -52l4 -4l-4 -28v-92l4 -64q-7 -12 -16 -192l-8 -36l4 -4v-4l-8 -12l4 -16l-4 -104v-48l4 -16l-4 -16v-20l4 -16l-4 -4v-4
l4 -4l-4 -24l-8 -300l4 4h4l12 -12l-4 -4h-4l-12 8v-4l16 -44l-12 -16q24 -68 24 -112h-4l4 -4v-8l-4 -4l4 -4v-16l-4 -16l4 -4q0 -56 -44 -156l8 -48l-4 -4l12 -48l-4 -20l4 -4h4l8 8h12l8 -8v-8q0 -8 -16 -8q0 -16 -12 -28l4 -4v-4l-4 -20q6 -41 16 -52v-32h8q0 20 24 20
l12 -12l24 8h4l32 -28v-12l-8 -12v-4q16 -2 16 -12v-4l-12 -12h-8l-12 8h-16l8 -12v-4q0 -12 -16 -12q-14 0 -36 20v-4l8 -16l-8 -24q12 0 12 -8v-8l-8 -8h-8l-8 8l-16 -4l4 -32l-4 -4v-4l8 -24l-12 -12q-16 7 -16 28h-4q-8 -48 -16 -48h-8q-7 0 -16 24q-15 0 -28 60h-8
l4 -4v-4l-8 -8q-120 0 -120 20l-4 -4h-4l-4 4l-48 -4l4 -4v-8h-20l-24 -28h-4l-8 8v8l4 4v4h-8l-108 -20q-20 5 -20 12v4l4 4v4h-40l-8 8l4 4h-12l4 -4v-4l-12 -8h-16l-8 8l4 4h-12l4 -4v-4l-8 -8h-4l-4 4h-4q0 -16 -72 -16l-12 4l-4 -4v-4l-108 8v8h-12v-8h-4v8h-16l4 -4
v-8h-32l-40 -4l-4 4v4l-52 -8l-4 4h-4l-4 -4l-20 4h-36v8q-30 0 -44 -16h-4q0 12 -80 20l4 -4v-8l-20 -4h-24l-8 8l-4 -4h-8v8h16v4h-88v-4h60v-8h-4l-96 -4l-92 8h-4q-22 0 -36 28l-24 4l-24 -4l-36 8l-64 -16q-11 2 -16 20h-12q0 28 20 28v8q-12 0 -12 8q0 28 52 28l8 8

<glyph glyph-name=".notdef" horiz-adv-x="1839" 
d="M185 1768q53 -9 68 -20h44l12 -8l24 4l16 -4l44 8q62 0 92 -28l40 4v-4l4 4l20 -4h56l16 4l4 -4h4l116 4h8l4 4l12 -4l260 8l4 4h4l16 -4h4l24 4l4 -4l48 4h64l4 -4l4 4h8l4 -4l20 8q0 -12 48 -12h36l4 -4l4 4l52 -8v4l-4 12h20l8 -8l-8 -8h32v4h-12v8l28 4l8 -12l-8 -8
h52v4h-20v8l36 4l4 -4v-4l48 12l12 -4v4q0 16 24 16l16 -12l24 8q28 0 32 -88l-4 -16l4 -40v-8q0 -8 -12 -8v-16l16 -8l-12 -20l4 -20h-4l4 -4v-4l-8 -52l4 -4l-4 -28v-92l4 -64q-7 -12 -16 -192l-8 -36l4 -4v-4l-8 -12l4 -16l-4 -104v-48l4 -16l-4 -16v-20l4 -16l-4 -4v-4
l4 -4l-4 -24l-8 -300l4 4h4l12 -12l-4 -4h-4l-12 8v-4l16 -44l-12 -16q24 -68 24 -112h-4l4 -4v-8l-4 -4l4 -4v-16l-4 -16l4 -4q0 -56 -44 -156l8 -48l-4 -4l12 -48l-4 -20l4 -4h4l8 8h12l8 -8v-8q0 -8 -16 -8q0 -16 -12 -28l4 -4v-4l-4 -20q6 -41 16 -52v-32h8q0 20 24 20
l12 -12l24 8h4l32 -28v-12l-8 -12v-4q16 -2 16 -12v-4l-12 -12h-8l-12 8h-16l8 -12v-4q0 -12 -16 -12q-14 0 -36 20v-4l8 -16l-8 -24q12 0 12 -8v-8l-8 -8h-8l-8 8l-16 -4l4 -32l-4 -4v-4l8 -24l-12 -12q-16 7 -16 28h-4q-8 -48 -16 -48h-8q-7 0 -16 24q-15 0 -28 60h-8
l4 -4v-4l-8 -8q-120 0 -120 20l-4 -4h-4l-4 4l-48 -4l4 -4v-8h-20l-24 -28h-4l-8 8v8l4 4v4h-8l-108 -20q-20 5 -20 12v4l4 4v4h-40l-8 8l4 4h-12l4 -4v-4l-12 -8h-16l-8 8l4 4h-12l4 -4v-4l-8 -8h-4l-4 4h-4q0 -16 -72 -16l-12 4l-4 -4v-4l-108 8v8h-12v-8h-4v8h-16l4 -4
v-8h-32l-40 -4l-4 4v4l-52 -8l-4 4h-4l-4 -4l-20 4h-36v8q-30 0 -44 -16h-4q0 12 -80 20l4 -4v-8l-20 -4h-24l-8 8l-4 -4h-8v8h16v4h-88v-4h60v-8h-4l-96 -4l-92 8h-4q-22 0 -36 28l-24 4l-24 -4l-36 8l-64 -16q-11 2 -16 20h-12q0 28 20 28v8q-12 0 -12 8q0 28 52 28l8 8
q28 -1 28 -8l20 4q-24 19 -24 40l12 4l-12 84l4 4h4v-20h4v8l-8 68l4 4l-4 40l-4 -4h-8v8l12 4l-8 44l4 4q-28 291 -28 576l4 4v4l-28 132v12h8v4l-8 32v8q0 12 24 12v4l-4 12h8v44h-4v-28h-8v4q2 92 8 92l-4 4v4l4 20l-8 92l4 4v4l-4 16v8l8 12v8l-8 16l16 24l4 -4h8l-4 4
v4l4 4v4l-4 4l4 20l-4 16l4 4v4l-4 4l4 20v40l-4 48l-4 -4h-4l-4 4v4l4 4v4l-4 4h8v-12h4v8l-4 40l-4 -4h-4l-4 4v24h8v-12h4v4l-8 56h-4v-16h-8v4q-20 100 -20 140v20l-4 16l4 12l-4 24l-36 -12l-8 20l8 8q-24 0 -24 8q16 3 20 20q-16 6 -16 12v12l12 12h16l16 -4l4 4
l28 -4h20q0 20 20 20l-4 4v12q0 9 60 20zM1221 1748h4l8 -8h-12v8zM1285 1740h20l-8 -8h-12v8zM1345 1740h4v-12h-12v4zM1517 1720v-8l12 -4v8zM901 1684h-20v8h8v4h-12q-28 0 -28 -16h-32q0 10 -20 12l-36 -4h-4q0 -16 -8 -16l-20 4v8h8v4h-20l-16 -4l-12 4l-4 -4v-4l4 -4
l-16 -8q-24 0 -24 12h-20q0 -16 -8 -16l-16 4v8h8v4h-12q-16 0 -16 -16h-24v8h8v4h-8v4l-24 -8l4 -4v-4l-8 -8l-16 4v8h12v4h-12l-20 -4l4 -4v-4l-8 -8h-8l-8 8v4h8v4h-12l-12 -4l4 -4v-4l-8 -8h-16l-4 4q-8 -8 -52 -8q0 -20 -60 -24q0 -16 -40 -24q0 -14 -44 -28l-4 -4h-4
l-20 12l-8 -8q0 -12 12 -12l4 -4v-4l4 4h24l12 -12v-16l-12 -16l28 -8v4l-12 16q0 12 28 12q0 12 8 12h4l8 -8q0 -8 -16 -8q0 -16 -12 -28l4 -28l-12 -12v-4q16 0 16 -8v-8l-24 -20l-12 4l-28 -28l-4 4l-20 -4h-4l-12 12l4 4l-16 8q6 24 24 24v4q-16 0 -16 24l8 12h-4l-4 -4
h-4l-12 4v4q0 8 16 8v16q-16 0 -16 24l-12 4q-10 -28 -24 -28l4 -20q-8 0 -8 16h-4v-4l4 -24l4 4h4l8 -8v-4q0 -8 -12 -8v-8l8 -8l-4 -4v-16h8l-4 -16l8 -28l-4 -20l4 -40h-4l4 -4v-112l16 -16l24 8l8 -12v-12q-23 -17 -44 -128h4q12 0 12 -8v-20l-8 -12v-12l4 -4v-4l-16 -4
l4 -16l4 4h8q-11 -20 -24 -20v-8l4 -16l-4 -4q20 -313 52 -360q5 -52 16 -52l8 8h12q8 0 12 -52l-4 -4q12 0 16 -44l-4 -4l4 -4l-12 -4v-4q16 0 16 -8l-8 -8l4 -4l-4 -4q12 0 56 -36v-16l-8 -12v-4q16 0 16 -20l-16 -8q19 -50 112 -172l52 -48l8 8h4l8 -8v-4l-4 -4v-4
q68 -18 68 -48l-12 -12q18 -8 20 -16l-8 -12q205 -163 348 -200h20l16 4l4 -4l20 4h32l28 -4l8 8h36l32 -8l12 12h68l20 4v-4l4 4h88q0 12 16 20h12l4 -4l24 12l8 -12q53 30 56 40q-12 0 -12 8q100 71 100 88q33 83 40 84h4l20 -4l16 32l-8 24l8 24v64h-4v-32h-8v36
q1 40 8 40l-4 4q5 42 24 80l-4 4l8 68l-4 4v4l4 16l-4 12h4q-24 48 -76 68l-8 -8q-26 16 -72 20l-4 -4l-16 4q-121 -16 -224 -124l-16 -32q8 -41 28 -64v-12l-8 -12v-4h8l28 28l56 -4h4q40 -10 40 -56l4 -40q-44 -23 -44 -36l-20 -12l-12 4q-8 -28 -24 -28q-40 0 -120 104
q-28 38 -28 60q0 61 40 152l4 12l-4 4l4 4h4l8 -8q16 0 16 20h16v-8h4q66 57 116 76v-4l16 4v4l-4 4v4l4 4h4v-4l24 8l4 -4l8 8l4 -12l20 4l-4 4v8h8v-8l48 4l-4 4v8h8v-12h24l-4 4v8l16 4q87 -20 108 -60l16 -8l4 36l-4 4v8l4 4l-4 4l4 28v36l4 16l-4 4l8 60l-4 16
q1 20 8 20l-8 12q4 49 12 56l-8 8l8 44l-4 4h-4l8 24q0 163 -12 268h4l-4 4v84q0 44 -12 44l4 4v4l-8 16l4 64h-8v4l4 4v4q-20 23 -20 64l4 28l-4 12q5 130 16 196l-88 12h-28l-12 8h-16l-16 -4q-13 7 -112 16v4l4 4v4l-40 4h-12v-4l28 -4v-8h-40l-8 8l4 4v4l-20 4h-28v-4
h24v-8h-20l-20 -4l-4 16h-20v-16l-16 4l-4 -4h-4l-4 4h-4l-16 -4l-56 4h-40v8h52v4h-48l-20 -4l4 -4v-4l-4 -4h-36v8h20v4l-36 4zM1389 1688v-4h16v4h-16zM369 1600h4l12 -8l24 4l16 -16l-4 -28l8 -8v-8q0 -8 -24 -16l-12 4l-12 -24q0 -8 12 -8l4 -4v-16l-8 -12l4 -4v-4
q-5 -24 -20 -24l4 -4v-4l-4 -4h-4q-3 12 -16 16q8 28 24 28v4l-12 4q-20 -14 -20 -28l-4 -4h-4q-8 0 -8 20l-16 -12l-16 16v4l12 12h4l4 -4h4l16 16h8l12 -8l8 16q-16 8 -16 20l-4 -4h-8l-12 12v8l32 16v4q-12 0 -20 16q0 32 32 32zM353 1532v-12h4l8 8zM85 1528v-16h4v16
h-4zM317 1516l16 -16v-12h-16l-8 8v12zM401 1512l8 -8v-4l-8 -8l-8 8v4zM89 1504v-12l4 -24h4v8l-4 28h-4zM97 1456v-16h4v16h-4zM313 1440l4 -4v-4l-4 -4h-4l-4 4v4l4 4h4zM97 1408h8v-12h-8v12zM569 1400v-12h-4l-8 8l4 4h8zM569 1376h8q13 -12 24 -12v-8l-24 -8h-4
l-12 12v8zM1625 1228v-64h4v64h-4zM349 1208h4l12 -12v-4l-12 -12h-4l-8 8v12zM1389 532l8 -8l-4 -4h-4l-8 8l4 4h4zM1501 516l8 -8h4l-8 8h-4zM129 492v-8q0 -157 12 -252h-4l4 -4v-40l4 -20h-4l4 -4v-4q16 -259 28 -296h-4l4 -12l4 4h4l8 -8q0 -8 -12 -8v-12l12 8
q0 -13 28 -52l-8 -20l12 -12v-4l-12 -12q-16 7 -16 28h-4l-8 -36v-4q0 -9 56 -20l8 8h4l8 -8v-4h-12v-4h12q198 28 444 52q-1 8 -40 24q0 11 -28 24q-164 154 -232 264q-111 125 -144 200q-40 39 -40 56l-28 60h-8l4 4v8l-4 -4q-20 0 -48 108h-4zM1261 496v-8q0 -9 -28 -12
q0 -16 -32 -20q20 25 60 40zM1181 444l4 -4v-4l-8 -8h-4v8zM1621 312v-4l-4 -80l4 -32h4l4 12l-4 4l4 28v72h-8zM1093 252v-4l4 -24h4v24l-4 4h-4zM517 -48l-8 -8q92 -117 188 -168q0 -12 20 -12l4 -12l88 4h4v4l-104 56l-132 88l-12 -4q-11 20 -24 20v8l4 -4h4v4zM1797 -72
l12 -12l-12 -12h-8l-4 16zM1677 -84h4l12 -12v-4q0 -8 -12 -8l12 -16v-16l-20 -20q-6 28 -20 28l-8 8v4l8 8h8l4 -4l12 4v4q-16 0 -16 8v8zM2009 -136h8l8 -8v-4l-8 -8h-8l-8 8v4zM1033 -256v4l-4 -4h-8l-12 8q-23 -12 -52 -12v-4l100 -32h16l12 8l32 -8l12 12l40 -4
q0 8 12 8l36 -4q2 8 64 32v8h-8l-24 -4l-4 4l-20 -4h-56l-16 -4l-4 4l-20 -4h-20l-24 8zM1377 -248q0 -8 -12 -8v-4h12l8 8v4h-8zM833 -268h-40l-20 -4v-4q24 0 52 -20q20 -1 20 -8l4 4h8l4 -4l4 4h48l20 4l4 -4l4 4v4l4 -4h20v4l-52 12l-4 -4v12l-4 -4h-4l-12 4l-4 -4v12
h-4v-8l-8 8l-4 -4h-4l-4 4zM573 -292v-4q47 -7 56 -16h32l4 4l12 -8q25 8 76 8v-4l40 8l4 -4h8v4q-57 28 -76 28zM393 -316l4 -4v-8h-8l-8 8h8v4h-4l-16 -4l4 -12h64l4 -4l4 4h8l4 -4l4 4h4l8 -8v-4h-28v-4h48l24 16v8q-18 0 -20 24zM641 -296h4v-4l-8 -8h-4v4zM1093 -308
l8 -12l24 8l-4 4v4zM961 -320v-8h40l8 8l-16 4zM345 -328h8l12 4v4h-12zM849 -328v-4l24 -4q0 8 -12 8h-12zM801 -332l4 -4l-4 -4v-8h12q0 12 12 12v4h-24zM329 -340v-4h16v4h-16zM357 -340v-8l12 4v4h-12zM417 -344v-4h24v4h-24zM1481 -360v-4h24v4h-24zM493 -380v-4h20v4
h-20z" />
    <glyph glyph-name="NULL" horiz-adv-x="0" 
 />
    <glyph glyph-name="nonmarkingreturn" horiz-adv-x="508" 
 />
    <glyph glyph-name="space" unicode=" " horiz-adv-x="508" 
 />
    <glyph glyph-name="space" unicode="&#xa0;" horiz-adv-x="508" 
 />
    <glyph glyph-name="exclam" unicode="!" horiz-adv-x="346" 
d="M267 1350q20 -4 20 -16l20 12q20 -8 20 -24l-4 -20l8 -28l-40 -64l8 -8q-77 -207 -164 -684q0 -51 -8 -76l4 -12l-4 -12h4l4 -4h4l-4 -20v-4q10 0 32 -40l-8 -24l8 -12l-4 -4h-4l-20 24l4 -4v-4l-12 -24l4 -12l-12 -8h-4q-8 0 -16 24q-16 0 -16 12v32l-4 20l12 4v12
l-8 12v16l4 4l-4 4v4l8 8l4 -4v8h-8v8l4 -4h4v8l-4 28h8l4 12l-4 4l24 144h-4l16 52l-4 4v4q12 23 40 164l-4 4l8 8l-4 4v4q8 0 20 52h-4l8 12l-4 4v4l8 20l-4 20l12 4l-4 20l8 8l-4 12q44 199 44 280l-4 20zM99 334v-16h4v16h-4zM55 10h12l16 -12l8 8h16q17 0 28 -72
q-6 -32 -16 -32l-20 16q-3 -40 -20 -40q-10 0 -24 28q-12 0 -12 8v72q3 24 12 24z" />
    <glyph glyph-name="quotedbl" unicode="&#x22;" horiz-adv-x="460" 
d="M297 1507q16 -4 16 -16l20 12q20 -8 20 -24l-4 -4l8 -44l-4 -16l4 -12l-8 -64l4 -12l-8 -8v-120l-4 -4l4 -4v-8l-4 -4l4 -4v-12q0 -8 -12 -8v-4l8 -16l-8 -20l4 -28l-4 -12l4 -4v-4l-8 -56l4 -4l-4 -4l4 -4h4l-4 -20l4 -16l-4 -4h-12l-8 8l8 16h-12q-12 -52 -24 -52
l-12 12l4 16l-4 12h-4q0 -16 -8 -16l-4 4v4l8 28l-8 8v4q32 65 32 128l4 4l-4 4v4l4 4l-4 20v192l-12 100v4h8l-8 32zM133 1431h12q12 0 12 -24h4q0 16 8 16h4l16 -16v-16l-4 -4l8 -24l-12 -8l4 -12q-4 -30 -12 -40l8 -8v-4l-12 -16l8 -28q-10 0 -12 -16l8 -52h-4l4 -4v-4
l-4 -4v-4q6 -28 20 -28l4 -4v-20l-12 -16v-4q16 0 16 -8v-4l-12 -12q-16 4 -16 16l-12 -8l4 -4v-12l-12 -12h-8q-12 0 -12 28l-4 -4h-4l-8 8v96l4 4l-4 4l12 128v12l4 4l-8 68l4 4v4l-4 12q6 16 12 16zM121 1103v-8l8 -8v16h-8z" />
    <glyph glyph-name="numbersign" unicode="#" horiz-adv-x="1791" 
d="M632 1077l17 -11l44 6l17 -33l-11 -22q16 -6 16 -34l-22 -16l-5 5h-6q-17 -25 -116 -436h-6l6 -6l-22 -88l5 -6h83l56 -17l60 17h72q11 0 33 155l39 182l-5 17l11 11l-6 5h-5l16 89l-5 5v34l11 38l-6 34l17 11h5l28 -17l5 6h12l11 -11v-6q0 -61 -23 -61v-11l12 -17
l-23 -38l6 -6v-5l-94 -421h66l17 12h5l6 -6l5 6h6l50 -6l16 11h6l5 -5l6 5h5l50 -5l11 11h17l33 -11l17 16h16l33 -5l28 11v-6l6 6h5l22 -6l33 11l45 -5l11 11h27l17 -11q0 15 182 33l12 -17v-5l-23 -22l-5 5l-144 -16l-16 11l-45 -17l-22 6l-44 -12l-6 6h-5l-61 -6h-6l-5 6
h-6l-11 -11h-33l-27 5l-12 -11h-27l-22 6l-17 -6l-5 6l-11 -11h-45l-5 5l-72 -16l-17 11l-5 -6h-11l-6 6l-5 -6h-45v-5l-27 -172h72l72 11v-5l5 5h6l110 -5l55 11v-6l6 6h39l11 -11l5 5h6l5 -5l6 5h11l5 -5h6q0 8 22 17l6 -6l27 6h22l12 -12l5 6h6l5 -6l44 17l304 11l6 -16
q-8 -23 -17 -23h-16l-105 -5l-6 5h-5l-33 -5h-34l-5 5l-6 -5h-22l-55 -6q-39 4 -39 11l-5 -5h-11l-6 5h-5q0 -11 -67 -16l-22 11l-17 -6v6l-5 -6h-11l-6 6h-5q0 -11 -67 -17l-38 11l-6 -5h-11l-5 5l-89 -16l-22 5h-39l-5 6l-6 -6h-11l-5 6l-6 -6h-5l-6 6h-5l-23 -6v6
q-38 0 -38 -83q-17 -111 -17 -205v-22q36 0 39 -16v-12l-17 -16h-5l-6 5h-5l5 -27l-16 -17l5 -5v-17l-11 -11h-5l-17 17v38l-6 28h-5v-17l5 -27l-5 -6h-6l-5 6v49l5 6v6l-5 5q16 0 27 205l12 11l-6 5l11 89l-282 -11v-6h11v-11q-16 0 -39 -149l6 -6l-17 -110l6 -45h28
l11 -11v-5l-11 -33l5 -34q-21 -4 -55 -88h-17l-22 33l-17 6q4 83 23 94v11l-6 27q20 0 39 216l22 111h-238l-5 5l-61 -5v-6h193v-11l-5 6l-6 -6h-39q-127 0 -232 -16q-22 8 -22 16v6l6 5v6q-28 0 -28 11v11q0 22 66 22v5q-44 0 -44 12l6 5h5l33 -5l6 5h5q27 -4 45 -28h315
q9 0 28 100h5l-5 28v11l11 11l-6 22l-221 22l5 -6v-11h-22v6l6 5v6l-6 5h-16l5 -5v-6l-11 -11l-11 11l-28 -5h-5l-6 5l-5 -5h-11l-11 11l-67 -17h-11q-11 0 -11 22q-22 0 -22 17v11q22 0 22 11v11q-22 0 -22 17v16q0 14 22 17l44 -6l6 6h6q28 -22 55 -22l16 -17l-5 -5v-6
q228 -38 299 -38h11l16 11l-5 27l72 332l-6 17h6l5 5l6 17h-11v11h11l-11 11l11 50q-3 22 -17 22q1 55 11 55l-5 6v5q0 66 38 66zM621 397h-44l-39 6q-5 -57 -16 -72l5 -6v-5l-16 -89h77l22 6l6 -6h5l6 6h5l6 -6h5l6 6h5l6 -6h5l17 6v-6l6 6h94l5 -6h6l5 6l-5 5v6l11 17
l-6 5l22 133h-5l-28 -6v6l-17 -6l-5 6h-6l-5 -6h-6l-60 11l-23 -5v5zM837 -156l11 -11l-11 -11l-11 11zM500 -239h5l6 -27l-17 -11l-17 16v11z" />
    <glyph glyph-name="dollar" unicode="$" horiz-adv-x="727" 
d="M253 980h4q11 0 24 -40h4v4l-8 24l4 4h8q13 0 16 -64h-8l-4 4h-4v-8q9 -9 16 -52l20 -4l4 4h4q120 -32 148 -72q32 -32 44 -100l-4 -4l4 -4v-44q0 -8 -12 -8l8 -12v-8l-8 -8l-4 16q-12 0 -12 -16q-8 0 -8 -28l-16 -12l-12 16l4 28v12h-4q0 -28 -8 -28h-4l4 72
q0 109 -140 132l8 -244v-44l-4 -4l4 -4l-4 -20v-68q0 -27 72 -44q0 -8 16 -8l4 4q3 -16 32 -16v-4l4 4h4q12 -2 28 -20h8v-4l4 4h4l4 -4h4v4q124 -70 124 -128l4 4h4l8 -16q-55 -132 -92 -132q-49 -48 -156 -80q-29 -15 -64 -20q17 -179 32 -224l4 4h4l8 -8v-4l-12 -12
l4 -16l-20 -36q-12 0 -12 28l-12 -8l-8 44h8l4 -32h4v8q-14 84 -20 84h-4v4h12l-4 4v28h-12v4l12 4q-12 73 -12 124h-36l-40 -4l-8 8l-4 -4h-4q-116 35 -116 96v4q12 0 12 -16h4v4l-12 44v4l8 8h4q13 -5 24 -36h4v4l-4 16l8 8q12 0 12 -24q12 0 12 -24l48 -24l12 -4l-4 -12
h12l16 -4l4 4h4l4 -4h4l4 4h4l12 -4v4l4 -4h8l-4 20l-4 140l8 16l-4 12l4 4v4l-4 4v4l4 4v4l-4 4v4l4 4v4q-7 8 -12 64l4 4v4l-4 4v4l4 4l-4 20v28q-2 9 -68 44q-148 119 -148 216v4h8v8h-8v4h8v8h-8v4q12 80 24 80l-4 4v4q28 50 44 64h8v-16q-12 0 -12 -8v-4h4q33 42 88 68
h4v4h-4l-72 -40v4q0 23 104 60v4l-20 76v4h4q8 0 8 -16h4v16l-8 24v12zM121 660v-36l8 -12l-12 -12v-4l4 -20h4v8l-4 12h4q16 -5 16 -36h-4l-4 4h-4v-4q22 -66 136 -148l20 -8h8v184q0 184 -16 184l-4 12q-66 0 -140 -92zM81 596v-12l4 -12h4v4l-4 20h-4zM89 560v-4l4 -12h4
v4l-4 12h-4zM317 336v-72q0 -68 -8 -68l4 -4v-8l-4 -4l12 -44v-12l4 -120l4 -4l-4 -4l4 -4l-4 -4q145 29 228 112h-8q0 -8 -28 -24h-4v4q66 62 72 88q0 66 -184 132l-12 12l-4 -4h-4zM597 272l4 -4v-12h-12v8zM609 248h8q8 0 8 -20l12 -12l-8 -8q-8 0 -8 20l-12 12v8z
M497 72h4v-4l-8 -8h-4v4zM465 52h4v-8h-12zM377 16l-16 -12l-4 4v4zM281 -44v-4h16v4h-16zM313 -268h8v-12h-8v12z" />
    <glyph glyph-name="percent" unicode="%" horiz-adv-x="843" 
d="M749 994h8l16 -12l16 4l4 -4v-16q-16 -17 -40 -84l-268 -376q-61 -97 -76 -108q-38 -70 -76 -120l-60 -104q-42 -87 -68 -120l-16 -24q0 -29 -20 -40q-3 -27 -52 -116h-8l4 -4v-4q0 -12 -28 -56q-32 -108 -52 -140q-8 0 -12 32h-4v-8h-8v4q0 8 12 8l-4 4q43 112 60 112
v16q0 24 24 40l-4 4v4q47 92 68 108l-4 12l36 56h4v12q0 15 88 156q0 12 16 24q0 16 28 44q0 15 44 72q43 79 112 172q161 235 208 324q0 16 12 16v24q10 13 28 76zM257 806l12 -8l24 8l12 -16v-8l-4 -12h4q45 0 68 -40v-8l-4 -4l4 -4v-8h-8v8h-4v-4q0 -28 16 -28v-12h-8v-4
q0 -125 -168 -236l-36 -8h-20q-40 0 -64 72v4h8v16h-4v-8h-8v24l8 8l4 -4v4l-8 12v8l12 16l-8 8q21 80 32 80l-4 4v4q0 10 16 12l-4 4v16q0 8 12 8q21 56 40 56q32 40 80 40zM333 754v-4l20 -20v8zM121 518v-8l4 4h8q17 -24 28 -24l4 4h4l12 -4l12 12l12 -12l-4 -4h8
q49 21 92 84h-8l8 8l4 -4q0 36 16 36l-4 4v4l8 24h4q0 61 -44 72l-8 16q-156 -27 -156 -212zM265 542h4l-28 -28h-4v4zM565 310h8q20 -1 20 -8l20 4h4q20 -24 36 -24l4 -4l4 4h4l28 -8l4 4h4q68 -33 68 -88h-12l4 -28v-8q0 -108 -140 -180l-24 -4h-40q-46 0 -80 80v40
q12 126 72 208zM721 246l16 -20v4l-12 16h-4zM525 122l4 -16l-4 -12l4 -4q8 0 8 -28l52 -28q93 30 128 96v16q0 41 -40 64q-28 0 -56 -28h-4q-26 33 -36 36q-56 -35 -56 -96zM649 46v-4h8l44 44h-4zM485 66v-12l4 -16h4v4l-4 24h-4z" />
    <glyph glyph-name="ampersand" unicode="&#x26;" horiz-adv-x="1491" 
d="M1027 1667h8l20 -16l8 8h8l12 -12v-20l-4 -4v-4l8 -8v-8q-12 -10 -12 -32h-4l4 -4l-4 -20l8 -16q-12 -13 -12 -128q-20 0 -20 -112l-4 -52v-8l-8 -12l4 -24q57 28 160 48l-4 4v4l8 8h8v-8h-8v-8h4q20 0 20 12l20 -12q0 24 24 24l12 -8l4 4h4q37 0 68 -36l4 -16l-4 -4v-4
l8 -20l-4 -16l4 -16q-8 0 -12 -40h-8l-8 8v4l4 4v4h-12q-8 -56 -24 -56q-12 2 -12 28l-4 -4h-8v4l4 36l-4 16l8 24q0 10 -32 16h-40l-4 4h-4l-8 -8l-12 4l-68 -16l-12 4q0 -9 -44 -16l-8 8h-4q0 -24 -24 -24l4 -4v-12l-4 -4l4 -4l-8 -60l4 -4v-4q-8 -22 -8 -56l4 -4v-4
l-4 -4v-4l4 -4v-4l-8 -24v-8l4 -16l-8 -64q0 -28 32 -28l4 -4h4l12 4q48 -9 48 -32l-8 -20l12 -12v-8q0 -12 -36 -16q0 -27 -92 -40l-32 4l-28 -4q0 8 -12 8l-12 -4l-4 4v4l-4 -4h-4l-32 16h-8l-4 -4h-4q0 23 -52 24q-35 0 -160 -36l-4 4h-8v-4h8q0 -8 -52 -24l-4 4h-4
q-4 -20 -20 -20l-4 4h-4q-52 -25 -52 -36l-4 4h-4l-16 -20l-4 4h-4l-68 -52q-10 0 -48 -40q-22 0 -140 -140q-76 -106 -92 -224l4 -4v-40q0 -126 124 -264q75 -73 172 -124q0 -8 24 -8l80 -40l4 4h4q36 -8 36 -16l4 4h4q29 -3 40 -12l4 4h4q60 -11 60 -16l32 8h4l4 -4l4 4h8
l4 -4l4 4h60q28 0 44 -8l12 12l24 -4l8 8l24 -4l8 8h4l4 -4l16 8l12 -4q0 9 28 12l4 -4l8 8l16 -4q0 7 44 20l4 -4h4q16 0 52 24l44 16v-4q16 3 32 20q182 86 224 200l-4 12l12 12v28q0 47 -72 112q-31 24 -96 44v4l4 4l-4 4h-8l4 -4v-4l-4 -4h-4l-4 4v4l4 4l-4 4h-8v-12h-8
l-8 8l4 4l-20 4h-44l-28 -4v4l-32 -8l4 -4v-8l-24 -4v4l4 4v4h-4l-8 -8l4 -4q-18 0 -60 -36q16 0 24 -16l-4 -28l12 -12v-8l-8 -8q-7 0 -8 -20l-4 -4h-8l-20 4q-10 -28 -20 -28q-24 0 -24 28q-20 0 -20 8l12 28q-8 0 -8 12l-4 4h-4q9 24 16 24l-4 4v8l4 4v4l4 -4h8
q17 34 80 60q19 12 88 28v-4l4 4h72l4 -4l4 4h4q79 0 180 -72q1 -16 16 -16q41 -56 44 -100v-16q0 -161 -260 -276h-4l-4 4h-4q-11 -22 -68 -36l-92 -32h-8l-4 4q0 -10 -52 -16l-4 4q0 -9 -36 -12l-4 4h-4l-24 -8l-4 4h-4l-24 -8l-4 4h-4l-12 -4l-4 4l-8 -8h-40l-16 -4
l-16 4l-12 -4q-44 4 -52 12l-12 -4v4l-4 -4h-32l-4 4l-4 -4h-4l-16 12l-12 -4q-32 3 -32 12l-4 -4h-4l-44 16l-4 -4h-4q-47 14 -92 44q-24 0 -120 68l-4 -4l-96 96q-100 134 -100 260v4q0 317 496 584q72 36 180 68v4h-4l-32 -8l-4 4v4l52 16l-4 4v12l4 -4h4v4l-8 56v12
l4 16l-4 12h4l-4 12l12 20l-4 12l64 80q95 94 172 128q0 28 8 28l-8 12l12 168l-4 -4h-12q-12 0 -12 28l-4 -4h-4q-8 0 -8 12l4 28l-4 4v4q3 24 8 24l-4 12l4 36l-4 4v4q9 52 24 52l4 36v24zM1247 1163h4l12 -12v-12l-8 -8l-4 -16l-4 -4h-4l-4 4v4l4 12l-8 8q3 24 12 24z
M799 915l4 -12l-4 -4l4 -4h4l-4 -12q0 -48 36 -48l8 -8l20 8q24 -8 24 -32l-8 -12l4 -4q0 -8 40 -8l4 -4v-4l-4 -4v-4l32 -4l36 4v4h-12v8l16 40l-4 36v4l8 12l-4 48l4 4v4l-4 4v4l8 24v4l-4 16l4 12l-4 4v4l8 12l-4 12l4 4l-4 16l4 100h-8q-60 -33 -60 -40
q-77 -48 -124 -124zM715 807l4 -4v-4l-16 -8v4zM903 775v-8h12v4zM951 775h12v-8h-12v8zM919 -393h8q12 0 12 -16l-4 -4v-8h4l-4 -68v-72l20 -4l12 12l-4 4v4l36 56h8l12 -12l-36 -100l4 -24q-6 0 -16 -32l12 -12l-4 -20v-4l8 -12v-4l-8 -8h-8l-8 8l8 16h-12l-8 -20
q8 0 8 -12l-4 -12l4 -24q-17 -1 -32 -60h-8l-8 8v40h-4l-4 -28h-8v12l4 40l-12 8l8 160h8l4 68v44l4 16l-4 4q3 56 12 56zM895 -725v-16h4v16h-4zM999 -737h8q24 -17 24 -36v-4l-20 -28l-8 8v4l4 4v4q-8 0 -8 32l-8 8z" />
    <glyph glyph-name="quotesingle" unicode="'" horiz-adv-x="192" 
d="M84 1162l8 -8l20 4h8q26 -10 32 -88l-4 -4v-4l4 -16h-4l4 -4v-8l-16 -24q0 -20 12 -20v-24l-4 -4l4 -4v-12h-8v-4l4 -4q-16 -151 -52 -248q-8 0 -8 -16l-4 -4h-4l-4 4v4l4 4v4q-9 0 -12 40l12 4l-4 12q0 13 12 24l-4 12l4 4h4l-4 4v4q6 32 12 32l-4 4v12h8v8l-8 12
q0 8 12 8v4l-8 12v24h4l4 -4h4v60l-4 -4h-8l-4 60h-4l-16 -4h-4q-40 37 -40 60q0 88 44 88h12zM40 1078l4 -24h4v20l-4 4h-4zM100 1014v-20h4v20h-4zM104 986v-16h4v16h-4z" />
    <glyph glyph-name="parenleft" unicode="(" horiz-adv-x="391" 
d="M575 1510l4 -12l20 4h4l12 -12q0 -12 -28 -48l-8 -20h8q0 20 24 40l4 -4v-8l-32 -36l-4 4h-4l-52 -68q-138 -178 -192 -308q-76 -170 -112 -292l-20 -40l4 -4v-4q-7 -32 -20 -32l4 -16q-25 -108 -32 -108h-4v-4l8 -8q-8 -44 -16 -44l4 -16l-12 -32l4 -16l-8 -16l4 -4v-4
q-4 -32 -12 -32l4 -4v-32l-8 -8l4 -28v-12l-8 -8l4 -48v-16l-4 -16l4 -4l-4 -20v-4l4 -28h-4l4 -4v-8l-4 -4l4 -12q0 -53 16 -144l-8 -8q12 0 16 -48q24 -139 116 -308q42 -48 52 -48l20 4v12l-16 20v8q7 16 28 16l8 -12l28 8q30 -56 52 -56l8 -12v-12l-8 -12l12 -12v-4
l-12 -12h-4l-20 4q-4 -24 -16 -32q-76 0 -156 108h-4v12q-89 197 -92 264q-8 0 -24 88v16l4 4v4q-8 0 -20 72l4 4l-8 112v4l4 4l-4 4v80q1 28 8 28l-4 4v4q11 160 24 160l-4 28v8l12 20l-4 4q6 44 16 44l-4 12q20 103 36 116l-4 4v4q60 211 144 400l96 180q0 16 16 16
q0 10 52 84l-4 16l80 132zM471 1358v-4l-8 -8v4zM411 -486v-12l8 8l-4 4h-4z" />
    <glyph glyph-name="parenright" unicode=")" horiz-adv-x="435" 
d="M189 1415h12q7 -8 40 -8l24 -68l-4 -16q6 0 24 -72l-4 -12l-4 4h-4v-4q52 -139 84 -356l16 -188h-4l4 -4v-136l-4 -4l4 -4q-24 -335 -84 -548q-55 -183 -176 -404l-68 -112l4 -16l-16 -12l-16 8q0 -10 -20 -28h-8l-12 12l8 16l-4 4h-4l-8 -8l-8 8l16 12l4 4v4
q-18 8 -20 16v12q0 14 44 20q46 47 72 56q200 356 236 632l28 204v20l4 4l-4 4v4q3 68 8 68l-4 20v60l4 4l-4 4v36q0 165 -44 388l-4 -4h-4l-4 4v4h8q0 28 -16 28l-12 32h8q0 -12 8 -12v4q-3 20 -20 20q-19 68 -92 256v4h4q8 0 8 -12h4v4l-12 32v4zM45 -441v-4l12 12v4z" />
    <glyph glyph-name="asterisk" unicode="*" horiz-adv-x="908" 
d="M399 1512l16 -12l4 4h16l8 -8q0 -14 -16 -32l4 -4h4v12l12 -12l-12 -40h-8l4 -4l-4 -4l4 -28l-4 -36l12 -124q40 -2 40 -8l20 4h12l16 -4l4 4l48 -8l4 4l60 -8l4 4q172 0 172 -24v-12l56 24l12 -12v-8q-8 -28 -72 -48q-1 -8 -24 -12v8h-8l-4 -12l-4 4h-8l4 -4v-8l-12 -4
l-8 8l-4 -12l-4 4h-4l-12 -12q-8 0 -8 -12h-8l-4 4l-12 -4l4 -4v-8l-8 8q-12 0 -12 -12l-4 4q-16 -6 -16 -12l4 -4h-4l-4 4q-16 0 -16 -20l-12 -4l-4 4h-4q-24 -10 -24 -24h-4l-4 4h-4q-3 -9 -48 -32q0 -12 -16 -12l-4 -4l-12 -16q-20 -1 -20 -8q0 -24 44 -124h4q0 12 8 12
t24 -32v-4l-8 -8h-4l-4 4h-4v-4l8 -20l-12 -12l4 -16l-4 -4h-8l-132 148q-110 -91 -204 -200l-32 -28h-8l-4 4h-4q-8 -52 -24 -52l-24 28q8 63 32 100q24 43 72 168l16 24l-4 4v8h8l-4 4v4l8 8l-4 4l4 4h4l-4 4v4q0 28 16 28v4l-4 4v4l12 16l-4 16l4 4q-8 0 -40 40l-108 92
l-32 -8h-8l-24 28l16 24l-8 8v8q18 32 24 32q20 -1 20 -8l4 4h12l28 -24q20 0 20 8l48 -8l20 4h4v-12h-20v-4l100 -4l16 28l-4 4v4q22 72 28 72l4 -4l-4 20l40 156l4 4h8zM395 1384v-24h4v24h-4zM383 1352l-40 -124h4l12 -4l4 4l40 -4h8v4l-4 4v4l4 4l-8 80h-8l8 32
q-8 0 -8 -20h-8v20h-4zM851 1212h4v-12l-16 -4v4zM179 1200v-4h16v4h-16zM215 1200l4 -4v-8h-20l-4 4l-28 -4l96 -92q12 0 16 44h8v4l-4 4v4l12 20l-4 12h-56l-8 8v4h8v4h-20zM267 1200v-4h36v4h-36zM379 1196v-4h24v-8h-12l-24 -4l-12 4l-16 -4l-8 8l-40 -128l124 -132
l36 28q-20 58 -36 244zM455 1192v-4h8v-8h-20q13 -124 32 -204q93 62 304 184h-44l-8 8l4 4v4l-52 4h-8v-4h16v-8l-28 -4l-4 4v4l4 4v4l-20 4h-24v-4h12v-8h-28v4l4 4v4l-44 4h-20v-4h24v-8h-16l-16 -4l-16 12l4 4l-60 4h-4zM747 1176v-4h16v4h-16zM275 1016l-80 -240l20 4
v-12h-8q0 -8 -12 -8v-8l188 156zM435 904l36 -32l-12 52zM239 804l4 -4v-4l-24 -12z" />
    <glyph glyph-name="plus" unicode="+" horiz-adv-x="1439" 
d="M940 912l12 -8l4 4h12q117 -23 140 -64q20 -26 20 -40v-4l-4 -20l8 -8l-4 -12q192 -191 192 -456q0 -239 -236 -412q-120 -77 -300 -120l-84 -16v4q-20 -8 -72 -8h-8q-71 0 -176 16l4 -4v-12l-8 -8h-12q-103 15 -156 52q-107 107 -132 220l-8 8l4 12l-4 -4h-4
q-9 13 -20 68h8v12h-12v4l8 44v8l-8 12h4l-4 4v44l-4 16l12 60l-4 4q19 128 68 128l12 -12q20 0 80 104q205 260 464 336q50 12 52 24l20 -8q39 12 72 12h28l16 4l12 -4q0 8 -12 8v8zM876 908v-4l-8 -8h-12l-8 8l4 4h24zM800 836l-4 4l-8 -8l-4 4h-4l-8 -8h-4l-4 4h-4
q0 -8 -24 -12v4l-48 -16l-8 8l-4 -4h-4l4 -4v-8h-4l-12 8l-4 -4h-4l4 -4v-8l-28 -8l-8 8q0 -20 -36 -28l-4 4q0 -15 -36 -24q-17 -19 -40 -24q0 -11 -40 -28q0 -12 -16 -12v-4l4 -4v-4l20 4h8q10 0 44 -96l20 -28q0 -13 12 -24v-16l-12 8h-4l84 -136l64 -108h4q66 60 76 60
q0 9 288 272l-4 12l4 4l4 -4h4l4 4h4q-16 24 -16 36l28 24q-46 98 -120 148v4h-4l-4 -4h-4q0 16 -68 20l-8 -8l-8 8zM416 644l12 -16v4l-4 12h-8zM404 640q-153 -160 -184 -252v-4q16 -2 16 -12l-40 -32l-32 -72l4 -4q-9 0 -12 -44l4 -16h-8v-20q24 0 24 -16
q0 -128 120 -248q40 16 76 44l4 -4v-4q-10 0 -12 -16h-8v-8l308 312q-26 27 -64 96zM1200 624l20 -40h4v8l-16 32h-8zM1120 596q-15 -24 -36 -24l-4 4l-196 -168q-25 -27 -52 -40q0 -12 -52 -44q0 -10 -68 -76v-4l184 -248q0 -9 24 -36l20 4q0 -7 36 -12l20 -32v-12l-4 -20
q8 0 8 -12q205 105 272 300q20 63 20 140v8q0 111 -56 240h-4l-4 -20l8 -28l-12 -8h-4q-10 0 -12 16h-4q-8 0 -12 -32l-4 -4h-8q-13 0 -16 28l-4 -4h-4l-32 84h-4zM508 572v-8q6 0 20 -32l12 -12v8l-28 44h-4zM572 476h12v-12h-12v12zM112 224v-16h4v16h-4zM364 -124v-8
q60 -16 60 -24l4 4h4q18 0 52 -24l36 -4l40 -4v-4q65 0 200 48l12 8l16 -12v-4q-25 -36 -40 -36l-8 8h-4q0 -20 -44 -28l-4 4v4h12v4h-4l-56 -12v-4h8v-8h-4l-12 8h-8l-28 -4l8 -8h8l12 8l16 -8q129 0 300 64q-138 214 -260 372h-4q-222 -221 -312 -340zM116 92v-4l8 -32h4
v4l-8 32h-4zM916 -16h8v-12h-8v12zM388 -20l4 -4v-4l-4 -4h-4l-4 4v4l4 4h4zM972 -116l-12 -20v-4h4l20 4l-8 20h-4zM680 -200v-8l-20 -4v8zM516 -212v-4l60 -4l12 4v4h-72z" />
    <glyph glyph-name="comma" unicode="," horiz-adv-x="251" 
d="M110 151l17 -16l17 4q33 -13 24 -79l3 -5l-6 -11l1 -12q-7 1 -17 -21l6 -10l-2 -7l-7 1l2 12l-14 -9l-2 -8l-1 -24l-66 -114l-45 -38l4 -1l5 3l12 18l-3 5l1 4l4 3l1 4l-6 9l13 2l-6 9l9 23l3 -1l4 -5l3 -1l3 12l-8 2l3 11l9 6l3 -4l2 7l-8 2l13 38l6 28l4 3l2 24l-5 -3
l-4 1q-9 2 -10 31q-15 3 -14 11l13 22l-2 25l15 13l-3 5l4 19q4 8 23 12z" />
    <glyph glyph-name="hyphen" unicode="-" horiz-adv-x="527" 
d="M411 254l4 -4v-4l4 4h24q8 -2 16 -20q-6 -20 -28 -20v-8l20 4l12 -12q0 -8 -32 -12q-13 -28 -52 -28h-8q-9 13 -56 20l-8 -8h-8q-20 0 -20 12h-8l4 -4v-4l-12 -8h-8l-28 4l-8 -8h-20q-8 0 -8 12l-4 4h-4l-12 -4l4 -4v-4l-8 -8h-12q-20 0 -20 12h-12l4 -4v-4q0 -8 -12 -8
l-39 -20q-15 23 -24 24q7 60 24 60q271 -3 271 8q0 32 64 32zM311 230l8 -8l-4 -4h-12v4z" />
    <glyph glyph-name="hyphen" unicode="&#xad;" horiz-adv-x="527" 
d="M411 254l4 -4v-4l4 4h24q8 -2 16 -20q-6 -20 -28 -20v-8l20 4l12 -12q0 -8 -32 -12q-13 -28 -52 -28h-8q-9 13 -56 20l-8 -8h-8q-20 0 -20 12h-8l4 -4v-4l-12 -8h-8l-28 4l-8 -8h-20q-8 0 -8 12l-4 4h-4l-12 -4l4 -4v-4l-8 -8h-12q-20 0 -20 12h-12l4 -4v-4q0 -8 -12 -8
l-39 -20q-15 23 -24 24q7 60 24 60q271 -3 271 8q0 32 64 32zM311 230l8 -8l-4 -4h-12v4z" />
    <glyph glyph-name="period" unicode="." horiz-adv-x="278" 
d="M117 150h4l24 -4l16 4q20 0 60 -60l-4 -28l8 -8v-8q0 -35 -48 -44q0 -22 -72 -28l-36 40v28l4 4l-4 12q8 92 48 92z" />
    <glyph glyph-name="slash" unicode="/" horiz-adv-x="678" 
d="M1159 1248h4l12 -8l24 4q16 -6 16 -28l-4 -16l8 -24v-8l-12 -12h-8l-20 16q0 -36 -20 -36l-20 4l-168 -136l-148 -144q-27 -19 -40 -48q-8 0 -32 -32q-39 -26 -60 -64q-8 0 -68 -68l-36 -44q-11 0 -48 -48q-6 0 -20 -28q-20 0 -24 -28q-18 -12 -60 -68q-10 0 -20 -28
q-17 -5 -44 -44q-10 0 -40 -44q0 -9 -48 -52q-3 -20 -20 -20q0 -15 -56 -80q-106 -130 -352 -484q-55 -98 -96 -140h-8l-20 28v4l16 20v4q-10 0 -12 16q0 10 68 68q3 20 12 20h4l4 -4h4l236 320l136 172q43 58 56 64q0 11 20 24q35 56 48 56q0 12 20 20q2 14 76 88
q0 15 20 24q0 8 32 36q0 11 24 24q9 23 36 40q0 15 32 36q22 40 36 40q32 47 68 72q0 14 48 52q0 18 96 100q0 16 28 28q0 12 28 36l244 244h-12v4l40 68zM1119 1188v-12h4l4 12h-8zM-197 -416v-8l-8 -8v8z" />
    <glyph glyph-name="zero" unicode="0" 
d="M546 1234h4l16 -12l24 4q43 -22 68 -44v-4l-8 -12q100 -75 180 -188q108 -143 108 -420l-4 -16l4 -4v-4q-11 -161 -116 -344q-92 -142 -184 -224q-69 -65 -124 -88q-90 -60 -200 -60h-12l-16 -4q-96 21 -128 56v-8l12 -40v-8l-4 -4v-4q8 0 12 -24q-6 0 -20 -28h-4l-20 4
l-20 -24h-8q-6 0 -12 16l4 16v8h-4v-16h-8l-12 12l8 12l-4 28l20 128q-8 0 -8 20q-10 0 -20 32h-4l4 4v8l-4 -4h-4l-4 4v4l4 20q-16 36 -32 176q8 119 32 216l-4 4q11 9 40 100l-4 4q10 5 68 148q32 72 128 228q0 44 16 44l-8 12v28h8v-8h4v16q-10 0 -12 16l4 4l-4 16
q0 76 20 76q16 -6 16 -12l4 4h16l8 -24l-16 -20l8 -32v-4q-12 -15 -12 -36v-8q82 99 148 160h-4q-12 0 -12 -12q-24 -10 -24 -24h-8l-8 8q9 0 64 60l40 32l-12 20zM146 90l20 4l8 -12l-20 -124l8 -8l-8 -12v-4q13 -26 80 -48v-8l12 8h4q0 -16 8 -16h4l-4 4v8h12q8 0 8 -16
l20 -4l12 4v-4l12 4l4 -4q147 0 348 180q166 208 172 272l12 4l-4 4v4q6 20 16 20v4l-4 4v4l8 8l-4 4q9 0 12 20l-4 12q10 0 16 40l-4 20q12 0 12 8v8h-8v4h8v12l4 28h-8v8l8 8h4l-4 20v12l4 16l-4 12h4l-4 4v4l4 12q0 92 -20 92v4h8q-10 84 -24 84l4 4v8h-8l4 4v8
q-99 208 -260 308q-113 0 -288 -232q0 -38 -140 -592zM430 1094l4 -4v-4l-4 -4h-8v4zM274 822q-212 -366 -212 -604v-28q0 -89 40 -184h4l4 24l-4 4v4q8 12 28 140h4l-4 4q40 193 144 608h-4l8 24zM478 -82v-8l-20 -4q0 9 20 12zM310 -166v-4h28v4h-28z" />
    <glyph glyph-name="one" unicode="1" horiz-adv-x="499" 
d="M323 1282h8l16 -12l12 12q18 -8 20 -16l-4 -28l8 -8v-4l-8 -20h-8l-4 4l-12 -8l4 -20h-4l4 -4v-4q-11 0 -28 -232l4 -4l-4 -20l-20 -432l-8 -16l4 -24v-8l-4 -4l4 -4v-8l-4 -4l4 -4l-8 -172l4 -4v-4l-4 -12q4 -200 16 -292l4 4h4q36 -8 36 -40v-4l-4 -4l12 -20v-8
l-12 -12q-20 7 -20 24h-4q-9 -44 -16 -44h-8l-16 24q-16 0 -16 32v4l4 4l-8 52h8v-12h4v20l-4 24l4 4l-4 12l-4 164v84l4 16l-4 16v28l4 4l-4 4l8 56l-4 12l4 4l-4 16l8 76l-4 28l8 60l-4 16l4 20l-4 4l8 40l-4 4l8 196l-4 4h8v52l4 44l-4 4v4l8 72l-4 12q3 36 8 36l-4 20
h-4l-4 -12l4 -4v-28l-12 8l-128 -368q-34 -64 -40 -64h-8q-6 0 -20 28q0 13 12 28l-12 16v4q59 73 100 188h4l-4 4v4l44 104l-4 4l4 4h4l-4 4v4l28 64l-4 4v4q28 69 44 152v32zM171 690l4 -4h4q-11 -36 -20 -36l-4 4v8q16 16 16 28z" />
    <glyph glyph-name="two" unicode="2" 
d="M593 1171h4l8 -8l-20 -8v8zM629 1171l4 -4v-4l-4 -4l4 -4h4l4 16h16l8 -8l-4 -4v-4h20v12h8l8 -8q0 -12 28 -12q0 12 8 12v-12h4l12 8q0 -16 12 -16l4 4q0 -7 24 -16l4 4v4q172 -90 172 -252q0 -219 -368 -528q-160 -148 -324 -276l-40 -32l-64 -64h4l12 4l4 -12h16
l-8 12l4 4h4l12 -16l108 16h16q0 8 152 24v-4l4 4h28l44 -4l4 4h4l36 -8l16 4l4 -4h4l4 4l64 -8l4 12q20 -3 20 -20h4q0 12 8 12l148 -40v-16q0 -12 -16 -12v-4q20 -1 20 -12l-8 -8q-10 0 -12 16h-8q0 -12 -12 -12l4 -20l-8 -8h-4q-30 34 -132 64q-48 3 -48 16l4 4l-16 4h-8
v-4h16v-8l-28 -4l-8 12l4 4q-16 0 -16 8l-32 -4v-4h16v-8h-40l-4 4h-4l4 4v8l-4 -4h-48v-12h-36v8h16v4h-20l-20 -4l4 -4v-4l-4 -4h-12v4l4 4v4h-4l-24 -4l4 -4v-4l-4 -4h-4l-8 8h8v4h-4l-16 -4l4 -4v-4l-4 -4h-16v8h12v4h-12l-12 -4l4 -4v-8h-16v4l4 12l-16 -8l4 -4v-8h-20
l-12 -8h-4l-8 8l4 4v4h-4l-8 -8l4 -4l-12 -8l-12 4q0 -8 -24 -8l-24 -4l-8 -8l-16 4q0 -8 -92 -24l-8 12v4l4 4v4q-20 0 -20 12l12 20q-12 4 -12 24l60 36q0 12 8 12l8 -8v-4q-11 0 -32 -24h-4v-8q280 220 596 504q174 188 192 272q9 0 16 52h4l-4 4v4l8 8l4 -4v8h-8v28l8 8
l4 -4v8l-4 48h-4v-16h-8q0 59 -56 128q-112 72 -172 72l-24 -4q0 8 -12 8q-81 0 -100 -12l-4 4h-4l-80 -24l-4 4q0 -5 -72 -32q-70 -37 -108 -84q-9 0 -36 -32h-8q-11 20 -20 20v12l16 20l-12 12v8q61 69 140 104q0 7 32 12l4 -4q0 11 52 28l4 -4h4l12 4v-12l-24 -4v-4h4
l128 28l4 -4l44 4v4l-16 4v4zM569 1167v-12h-12l-8 8l4 4h16zM533 1163l4 -4v-4l-4 -4h-4l-4 4h-4l-8 -8h-4v4q0 7 24 12zM477 1151l8 -8v-4h-8v12zM417 1123v-4h12l4 4v4h-4zM385 1107v-4h4q20 5 20 12h-4zM317 1063h4l24 16v4h-4zM921 895h8v-20h-8v20z" />
    <glyph glyph-name="three" unicode="3" horiz-adv-x="1595" 
d="M288 1172l68 -16l4 -4v-4l4 4h4q14 0 40 -16l4 4h4q20 -16 40 -16h32l4 -4l100 12l4 -4h4l216 8v4h-44v4l-4 -4h-4l-8 8l4 4h4l4 -4l4 4h40q12 0 12 -16h8q0 13 48 32l24 -8l16 4q27 0 48 -28v-8l-12 -16q16 0 16 -8v-12l-8 -8l-28 8l-4 -4l4 -4v-12l-12 -12l-44 16
q-97 -19 -276 -124l-12 4v-4l-12 -4l-4 -12l-4 4h-8q0 -15 -24 -24l-8 8l-20 -24l-12 4v-4l-4 -12h4l104 16l68 -4l28 4q110 -12 192 -52q3 28 16 28q67 0 116 -60q12 0 12 -8v-4q0 -8 -12 -8q121 -142 132 -252q0 -124 -60 -252v-92q0 -224 152 -280q23 -12 100 -20
q65 8 72 16v-4q37 16 48 32v4h-8l8 8l4 -4l4 20l-4 16q10 26 20 28l-4 4v4l8 32h-4q-8 0 -8 20l-4 4h-4l-4 -4q0 28 -64 64l-28 4h-4l-48 -8l4 -20l-4 -24q9 0 12 -20l-44 -20q0 -20 -44 -20l-36 36l8 32q-8 0 -8 12q0 21 28 36q0 41 96 68l24 -8l4 4h4l4 -4l4 4l88 -24v-8
q0 -8 -12 -8q48 -45 48 -64h4v8l4 -4h4l4 4h4l4 -24h4q2 16 12 16h4q7 0 12 -36l-20 -68l4 -20l-4 4h-4q0 -15 -16 -24q-13 -56 -28 -56v-8h4l28 4l-8 8q8 18 16 20h8l16 -12l12 8h12l12 -12v-12q0 -12 -24 -12q0 -20 -12 -20l4 -20l-8 -8h-8q-8 8 -36 8l-44 8v4l4 4h-12
l4 -4v-4l-8 -8l-80 12l-8 -8h-44v8h-12v-8h-12l-12 8h-52q-20 0 -20 8l-24 -8v4l-4 -4h-12l-4 4l-4 -4h-8l-12 8h-4l-16 -4l-4 4h-4l-4 -4h-4l-4 4h-4l-16 -4v4l-32 -8l-4 4h-4l-4 -4h-4l-4 4h-4l-4 -4q-52 5 -52 12l-4 -4h-24l-4 4l-4 -4h-8l-4 4l-40 -8v4l-12 -4l-44 4
q-172 -257 -172 -448q0 -101 92 -164l4 4l20 -16h4l4 4h4v-8h12v8h12v-4l-4 -4v-4l44 -4q87 0 156 68v4h-8v4l16 24v20q0 40 -40 60l-16 -4l-12 4q-12 0 -12 -20q-56 -5 -56 -28l-8 -8h-4l-20 24v4q8 20 24 20v8q-16 0 -16 12l8 20l-8 24q16 44 32 44q92 -13 92 -24l4 4
l36 -28v-8h-12v-4q14 0 44 -56h8l-4 4v4h4l12 -12l-4 -4l4 -4v-8l-4 -4l4 -4v-4l-8 -8l4 -4v-4q-28 -89 -84 -124q-31 -18 -92 -32l-16 4v4h8v4h-20l4 -4v-4l-8 -8h-32q-8 0 -8 16l-16 4h-4v-4h8v-4l-4 -4v-4q-71 0 -136 92l-36 112h-8v8h4l4 -4h4l-4 20v12q0 136 112 336
q45 68 60 108h-4l-24 -8v4l-4 -4l-48 8l-4 -4h-4l-4 4l-4 -4h-20l-12 4l-20 -4h-60l-12 -8q0 12 -24 12v-12h-12v4l4 4v4h-104v-4h12v-8h-16v12h-20v-8h-12v8h-12v-4l-28 4h-24q-23 0 -36 -16h-48l-20 -4v4l-4 -4h-52l-16 -8l-96 -4q-9 22 -24 24v12q0 12 24 12l-12 16v4
q8 16 20 16l72 -20v-4h-8v-4h28v4q-12 0 -12 8l4 4h20v-4l-8 -12h16v12h8l8 -8l-4 -4h68v8q-42 7 -116 60q-84 78 -84 116v12h8v8l-4 -4h-4l-4 4v4q15 68 24 68l12 -12v-4l-4 -4v-4h4l24 4q0 -29 -12 -32l4 -4l-4 -20q0 -73 156 -152q66 -32 184 -44h64q242 0 436 216
q55 59 112 188l-4 4l8 8l-8 8q12 0 12 48v20h-8v4h12l-4 4v12l8 32q-2 23 -12 36l4 4l-4 4v20h8v-12h4v32l-4 4l4 4v36l-4 -4h-8v8q0 8 16 8q-10 44 -24 44v4l4 4q-65 84 -96 104q-7 16 -92 60l-100 44l-8 8h-4l4 -4v-8h-16v4l4 4v4l-16 4l4 -4v-8h-16v4l4 4v4l-20 4h-8v-4
h8v-8h-20v4l4 4v4l-24 8h-32l-40 -8l4 -4v-4l-8 -8l-28 4l-8 -8h-12l-4 4h-4l-8 -8h-4l-4 4h-4q0 -8 -24 -8q-128 -36 -184 -88h-8l-8 8l-28 -12l-8 12l8 12l-4 4l-4 -4h-12v4l36 36h-4l-16 -12h-4l-12 12q0 12 28 12q7 22 96 52l4 -4h4q41 11 340 188l44 20v4h-12l-20 -4
l-8 12l4 4l-4 4h-4l-12 -4l4 -4v-4l-4 -4h-4l-8 8l4 4l-4 4l-20 -4h-28q0 -16 -8 -16h-4l-4 4l-12 -4l-12 4v8h16v4h-8l-64 -4l4 -4v-4l-8 -8h-48l-108 -4l-4 4v4l-20 -4h-16l-16 4l-4 -4h-4q-68 10 -68 24l4 4v4q-20 0 -20 8l16 24l-8 8v8q0 8 32 12zM648 1144h24v-8h-8
l-4 4l-4 -4h-8v8zM548 1140h28v-8h-28v8zM472 1096v-4h20v4h-20zM496 1096v-4h36v4h-36zM540 864v-4h4l12 4v4h-4zM1000 824l16 -12v4l-8 8h-8zM1036 804h8q7 0 12 -20l-4 -4l-16 12v12zM1076 760h4v-8h-12zM1064 244q-18 -44 -148 -240l-60 -88l-8 -16h20l72 -8l80 4l4 -4
h4l12 4v-4l4 4h8l32 -8h56l20 4v-4l12 4l36 -4h4v4q-49 17 -112 108l8 8l-4 4h-4l-4 -4l-4 4l4 4v4q-20 65 -32 204l4 16v4h-4zM1480 180l8 -8l-8 -8h-8v8zM80 92v-8l4 -12h4v4l-4 16h-4zM904 36q0 -15 -36 -28q0 -11 -44 -36l-4 -4l-4 4q-26 -24 -48 -24v-8l-4 4h-4
q-66 -36 -92 -36v-8l16 8l36 -8l4 4h40l4 -4l12 4l24 -8h12l92 136v4h-4zM1532 -32h8v-12h-8v12zM1432 -60v-12l-8 8l4 4h4zM1304 -80h12v-8h-12v8zM1584 -108h4l8 -8v-4l-12 -12l-8 8v8zM212 -120v-4h56v4h-56zM1476 -124l4 -4v-4l12 4v4h-16zM1412 -128v-4h24v4h-24z
M800 -532h8q0 -9 24 -20v-12l-12 -16l4 -12l-4 -4h-12q-8 0 -8 20h-12v12q12 0 12 32zM1036 -556h8l8 -8v-12h-4l-12 12v8zM980 -696h8v-4q-17 -19 -40 -28l-4 4v4zM840 -792h4l8 8h-4z" />
    <glyph glyph-name="four" unicode="4" horiz-adv-x="887" 
d="M201 1144l28 -4l12 4q40 -16 40 -44l-8 -8v-8q12 0 12 -8v-4q-32 -33 -32 -56q-10 0 -24 -28l4 -4v-4q-8 -5 -28 -104q-52 -147 -52 -236l12 -8l24 4l4 -4h4l16 4h4l4 -4h4l8 8h4q12 0 12 -16l4 -4h4l4 4l-4 4v4l8 8h4l8 -8l-4 -4v-4h8q8 0 8 16l4 4h20v-4l-8 -12h4
l176 12h4l4 28h-4l32 140h-8v4q10 0 16 32l-8 8l12 4l-4 4l8 32l-4 -4h-4l-4 4v4l12 4l-4 4v4l4 16l-4 16l8 8l-4 4l16 104l-8 24v8q16 0 16 8l-16 20v4q3 24 12 24h16l12 -8l20 8q11 0 20 -20l-4 -24l12 -12v-4q-16 -19 -16 -32h-8v20l-4 -4h-4l4 -4v-12q-36 -108 -84 -396
l4 -4l-8 -8h44l100 4l-4 4v4l-4 -4h-24l-8 8l32 4v-4l4 4h4l4 -4q45 5 68 20h16l8 -8l28 4h8l8 -20v-8q0 -12 -28 -12l4 -4v-4l20 4l12 -12q0 -9 -20 -12l-24 8l-4 -4v-4l8 -8q-8 -16 -20 -16q-32 20 -68 20h-24v4l4 4v4h-24q0 -16 -8 -16h-36l-8 8l28 4v4h-28l-24 -4l-4 4
h-4l-44 -4l4 -4v-4q-56 -228 -56 -464q0 -56 36 -56l20 -68l-4 -4v-4l4 -24l-8 -8h-4q-12 0 -12 24h-4q-9 -52 -20 -52h-4q-6 0 -16 28q-20 0 -20 48l-4 4l4 16l-4 48h8v20h-12v16h4l12 -4v4l-4 24l4 4v4l-4 4v4l4 4v4l-4 4l4 20v8h-4l4 20v4l4 80h-4l8 24v20h-8q13 8 16 64
l-4 4q7 2 36 172q-8 0 -8 12h-36l4 -4v-4l-8 -8h-16q-20 0 -20 12h-8l4 -4v-4l-12 -8h-12l-4 4l-4 12h-4l-12 -4l4 -4v-4q0 -8 -44 -12l-4 -4l-24 4q-6 -8 -76 -16l-48 -28h-16l-20 28l-8 8v64q0 8 12 8l-4 4v8l4 4l-4 4v12h8v4l-4 20l12 4l-8 12v4q12 0 16 36h-4l4 4v4
l-4 12l4 4h4l-4 4v8h8v4l-4 4v4l4 4h4l-4 4v4q2 16 12 16l-4 20q28 110 28 164q-44 0 -48 28q-16 6 -16 12q0 11 20 12v4l-20 28q6 28 44 28q13 16 36 16zM665 648h28l-8 8h-12zM341 644h4v-8h-12zM117 596v-16h4v16h-4z" />
    <glyph glyph-name="five" unicode="5" horiz-adv-x="743" 
d="M554 1032l16 -12l20 8q18 -8 20 -16v-4l-8 -24q16 -2 16 -12v-4q0 -12 -36 -16l-4 4q0 -33 -100 -52v4l-16 -8l-4 4l-116 -16l-20 4q0 -12 -84 -12l-16 4l-8 -8h-20l-4 4h-4v-8h-4l4 -4v-4l-4 -60l4 -4v-4q-2 -32 -16 -32l8 -24q24 -17 28 -36l16 4q20 0 20 -8l4 4l20 -4
l44 4q0 -7 28 -12l4 4h4q88 -21 88 -44h4l12 8q0 -11 32 -20q0 -12 20 -12l4 -4q0 -12 20 -12l64 -60q55 -53 100 -184l-4 -20l4 -16q0 -135 -128 -236q-103 -60 -180 -68l-8 8h-8l4 -4v-8l-20 -8q-12 0 -12 12h-8l4 -4v-4l-12 -8h-4l-8 8v4h8v4h-4l-32 -4l4 -4v-4l-8 -8
h-36l-8 8l-4 -4h-4l-4 4l-28 -16h-4q-14 16 -60 16q-20 8 -44 40v8q0 8 12 8v4q-12 15 -12 28q3 24 24 24q59 0 124 -56v-4l-8 -12l28 -4l4 4h24q138 0 280 88q35 29 60 68h-8v4q16 11 28 64v16q12 0 12 20l-4 4l4 4v44h-16l8 8l4 -4v4q0 18 -32 56q-32 104 -196 180
q-103 24 -144 24h-16q-46 0 -116 -40h-12q0 20 -16 20l4 16l8 244l-16 -4l-20 8l4 4v8q-16 0 -16 8l20 28q-12 0 -12 8v8l12 12h24l4 -4h4l-4 28q0 28 28 28l12 -12l20 4l20 -16l-4 -20v-4q0 -12 24 -12l28 -4l8 -8q2 16 12 16h4l20 -4l8 8q20 -5 20 -12l-8 -8h4q12 0 12 16
l4 4h12q8 0 8 -12h8l-4 4v8l8 8h8q8 0 8 -12l4 -4h8v4l-4 4v4l60 20q0 29 68 36q0 8 28 16zM286 936v-4h4l16 4v8h-4zM318 688v-4l20 -4v8h-20zM610 208h4l-12 -20l-8 8zM586 184l4 -4v-4l-4 -4h-8v4zM394 44l-4 -4v-4h4l16 4v4h-16zM218 24v-4h20v4h-20z" />
    <glyph glyph-name="six" unicode="6" horiz-adv-x="808" 
d="M571 1001l28 -8l16 4q64 -22 64 -68l-4 -20l8 -8v-4l-8 -8h-8q0 20 -8 20h-4l4 -4v-28l-16 -20q-8 0 -52 56l-16 4q-175 0 -372 -304q-44 -78 -84 -188v-4h4q0 10 28 32h4v-4l-4 -4v-8h4l4 12l-4 16l8 8h8v-8q62 54 152 108h-8l-32 -16l-4 4v4q47 28 88 40l4 -4l76 12
l32 -16h36l16 -16q26 0 28 -12v-8l-16 4h-4v-4l20 -4l8 8l32 -24l-4 -16h-4q-8 0 -8 16l-16 4v-8q11 0 68 -68v8l-12 20h8l20 -28l-4 -4v-4l-4 4h-8q32 -53 32 -68h4v12h4q8 0 24 -48l-12 -4q5 -64 20 -64v-8l-4 -4l4 -4v-4l-8 -12l4 -24q-3 -45 -64 -168
q-89 -127 -224 -176l-80 -28l-44 4l-8 -8l-12 8l-20 -4q-79 0 -160 104q-19 27 -24 48l4 4v8h-4v-8q-11 0 -20 52h8l8 -36h4v4q-12 32 -20 108v40h-8v8q12 0 12 12l-4 12l4 12h-8v4h12l-8 32q8 0 8 12l-4 20q12 0 12 28h4l-4 4v4l8 28l-4 4l16 20l-4 12l4 4l-4 4l8 8l-4 4v4
l24 44l-4 4v4q17 44 24 44l-4 4v4l40 76l-4 4q15 8 20 24l-4 12l4 4h4l4 -4l12 24l-4 4q7 0 88 108q80 96 156 148h8l-8 8q-7 -17 -48 -32v4q109 92 180 92zM471 953q0 -8 -12 -8l-4 -4v-4h4l20 8zM379 905h12v-4q-3 -11 -20 -20l-4 4v4zM327 849h4v-4l-8 -8h-4v4zM335 581
v-8l16 4v4h-16zM271 557v-4q-4 -16 -24 -16q8 20 24 20zM115 317q-7 0 -12 28h-4l-24 -140l4 -4l-4 -20l4 -20h-4q18 -131 60 -176q32 -24 32 -32h4v8l-8 8v4h4q40 -22 40 -28l4 4h4q8 0 8 -12q20 -5 20 -12l-4 -4l16 -4l-4 4v8l28 4v-4l4 4h4l4 -4h4l4 4h4l20 -8q0 7 56 20
l4 -4v-4l-24 -8l-4 4q0 -8 -16 -8v-8h4q167 43 248 152q8 0 8 16q-59 -68 -92 -88v8l96 96l8 -8l8 16v4l-4 4v4q10 0 16 36q28 40 28 92l-4 32v4h8v-20h4v16l-4 24h-4v-12h-8q0 76 -80 180q-65 68 -148 68q-103 0 -232 -112q-47 -63 -72 -112h-4zM235 537h12
q-31 -36 -48 -36v4zM607 525h4l8 -8v-8h-12l-8 8zM179 489h8v-12l-16 -4v8zM39 117h8v-12h-8v12zM135 5h4l8 -8l-8 -8h-4v16zM155 -11l4 -4v-4l-4 -4h-4l-4 4v4l4 4h4zM435 -35h12l-8 -8h-4v8zM427 -39v-12l-36 -12l-4 4v4zM291 -119v-4h20v4h-20z" />
    <glyph glyph-name="seven" unicode="7" 
d="M875 1091q76 0 76 -20v-4l-8 -24l8 -8v-16q-43 -25 -68 -52l-28 -16l4 -4v-4l-12 -12l-4 4l-164 -224q-257 -347 -444 -736q9 0 12 -20q0 -16 -24 -16q-9 -52 -20 -52q-12 0 -12 44q-8 0 -8 -16l-4 -4h-4l-4 4v4l8 28l-8 16q58 92 68 92l-4 4v4q0 8 12 8l-8 12
q21 0 68 104q134 234 424 656h-8v8h4l4 -4h4l8 12v4h-8v4l12 16h4v-8l8 8v4h-8v4q52 83 52 108l-12 4q0 -8 -12 -8l-12 4l-8 -8l-4 4l-112 -20l-4 4q0 -9 -60 -16l-12 4l-8 -8h-12l-4 4h-4q-10 -11 -196 -44q-166 -60 -216 -60q-32 21 -32 52q18 32 56 32l4 -4h4l96 24l4 -4
l80 20l4 -4l4 4v-8q-24 -4 -24 -12l132 32l4 -4q30 4 40 12l4 -4q18 8 52 8v4l-4 4v4h8v-8h4l224 40q12 0 12 8h-4l-20 -4v12q19 0 28 8l20 -4l8 8h4l4 -4zM819 1063l-4 -4v-4h12zM751 1059h8l8 -8l-4 -4h-12v12zM691 1047l4 -4v-4l-4 -4h-4l-4 4v4l4 4h4zM671 1043l4 -4v-8
h-4l-8 8l4 4h4zM451 1003v-12h-4l-8 8l4 4h8zM407 995v-12h-4l-8 8l4 4h8zM359 987l8 -8l-4 -4h-4v12zM535 971v-4h4l12 4v4h-4zM111 919v-4h20v4h-20zM239 -65l8 -8v-12h-8l-8 8v4z" />
    <glyph glyph-name="eight" unicode="8" horiz-adv-x="1134" 
d="M680 1240q132 -29 132 -56q18 -13 40 -76h-4l4 -4v-8l-4 -4v-4l8 -8v-12q0 -8 -12 -8v-12l8 -12l-4 -4v-4l4 -4v-4l-8 -32l4 -12q-70 -192 -112 -192q0 -10 -64 -36q2 -8 20 -16l4 4q76 -40 180 -120q196 -167 228 -308q5 0 12 -48l-4 -4v-4l4 -12h-4l8 -40
q-29 -141 -104 -208q-104 -100 -176 -120q0 -8 -28 -16v4l-96 -36l-4 4q0 -7 -24 -12l-12 4l-8 -8l-12 4l-8 -8q-12 0 -12 12h-16l4 -4v-4l-8 -8l-20 4v8h12v4h-56v-4h32v-4l-8 -8l-4 4l-4 -4h-4l-4 4l-20 -4h-8l-8 8l4 4v4l-28 4l8 -12v-4h-16l-8 8l-4 -4h-4q-36 3 -36 12
l-4 -4h-4q-113 23 -272 176q-36 44 -72 108l4 12l-4 12l-4 -4h-4v4l4 4v4q-16 44 -28 116h4q-5 46 -16 56v16l8 8l4 -4l-4 20v4l8 8l-4 4v12l8 12l-8 8v4q11 0 32 96q14 24 24 24v4l-4 4v4q12 3 16 16l-4 4l12 4l-4 4v12l24 28h4v-8h4q0 13 20 24l-4 20l8 8h8v-8h4
q65 62 140 108h-4q-67 -35 -72 -48l-32 -24h-8v4q78 73 108 80q76 47 116 60q-56 64 -56 108v24q3 49 40 124q60 83 80 88q136 80 172 80zM576 1100h-8l-8 8q-116 -60 -116 -152l16 -60h-4l-12 8v-4l28 -48h4v12q-16 0 -16 24h8q8 0 8 -16q20 0 36 -36l44 4q80 0 80 -28v-4
h4q99 38 128 92q36 58 36 108v4q-20 136 -68 136l-20 4q-85 0 -140 -52zM808 1052v-20h4v20h-4zM700 820v-4h4l12 4v8zM384 772v-4h8l12 4v4h-8zM344 756v-8h4l20 8v4h-4zM88 320v-16l-4 -4l4 -4v-20q0 -190 212 -344l88 -48l12 4l12 -12l4 4q0 -16 56 -20l8 8v-4l-4 -4v-4
l104 -8q191 0 392 148l44 48l20 28l-8 8h4l4 -4h4q0 28 16 48q16 28 16 72v52h8v-8h4v4l-4 24l-4 -4h-4l-4 4v4l4 4h4l4 -4v4l-4 16h-4v-8h-8v12h8v8q-10 4 -48 84q0 34 -172 200l-104 64q-47 31 -128 60l-4 -4h-4l-12 8l-4 -4h-4q-32 7 -32 28l-44 16q-142 -26 -276 -132
q-152 -140 -152 -304zM204 664l4 -4v-12l-16 -4v8zM144 584l-4 -12h4l4 4v8h-4zM44 280h8v-32h-8v32zM52 212h8v-12h-8v12zM60 172h8l4 -16h-8zM1000 44h4v-4l-8 -8h-4v4zM984 28h4l-8 -8h-4zM512 -136h12l-8 -8v4l-4 -4h-8zM652 -180h4l8 8h-4z" />
    <glyph glyph-name="nine" unicode="9" horiz-adv-x="748" 
d="M628 1180l56 -16l12 4q35 -43 44 -72l-4 -4v-4l4 -16h-8l4 -64h4l4 12l-4 4v4l12 96h4l-8 20q0 11 20 20l20 -12l8 8h12l12 -12v-20l-4 -4l8 -24v-4l-4 -20h-12v8h-4v-20h8v-8h-4l-12 8h-4l4 -16q-31 -95 -80 -188l-160 -276l8 -8q-42 -26 -60 -76q-228 -386 -228 -444
l-8 -12l4 -12l-4 4h-4v-12l4 4h20l12 -4q0 8 320 12l20 4v-4l4 4h428l4 -4l4 4h40l28 -4l-4 4v4q0 8 44 20l20 -8l12 4v-4l4 4h4l16 -16q-11 -24 -28 -24l4 -4v-4l24 8l4 -4v-12l-12 -12l-24 12l-8 -8l4 -4v-12l-8 -8h-28q-10 20 -44 20q-16 0 -16 8l4 4v4l-80 4h-32l-4 4
l-4 -4h-8l-16 4l-4 -4h-4l-4 4l-20 -4l-20 4l-4 -4h-4l-36 4l-12 -4l-16 4l-24 -4v4l-4 -4l-16 4l-24 -4l-4 4l-28 -4h-124l-36 -4l-4 4l-24 -4l-216 -4l-4 -4v-4l4 -4l-4 -4h-32v8h20v4l-20 4l-32 -12q0 -12 -8 -12h-20q-20 -65 -32 -148l4 -4l-4 -20q11 -68 24 -68v12h8
q8 0 8 -12l-4 -12l12 8q16 -4 16 -16l20 4v-4l68 24l8 -8l-16 -8v-4h4q19 0 48 28h-8l-16 -12h-4v4q29 35 40 36l4 -4v-12h-8v-8l24 8q0 12 8 12l8 -8v-4q0 -8 -12 -8l4 -4v-8q-12 -14 -16 -36q-84 -52 -144 -52q-71 0 -108 88h4l4 -4h4l-8 80l4 16l-4 4v4l4 16h-8
q11 11 28 100l8 20h-16l-12 -8l-36 4q0 -6 -56 -16q-19 0 -28 20q-12 0 -12 8v4q8 16 20 16l-8 24l32 8l32 -8l8 8l-4 4v20q41 60 52 64h4v-8h4l268 400h-4q-99 -28 -148 -28l-20 4l-40 -4q-135 0 -184 92q-9 15 -12 60q0 60 40 124l-4 4v4l12 12l-4 4v8q20 0 48 56
q147 176 252 232q125 76 216 76l-4 4v8zM584 1176v-8l-20 -4l-4 4v4l4 4h20zM692 1144l24 -36h4v4q-13 32 -28 32zM500 1092v4l-96 -48l-104 -76l-84 -84q-93 -122 -108 -184l4 -4v-4l-8 -32l4 -12l-4 -4h4l-4 -4v-4l4 -4v-4l-4 -4h4l4 4l-4 4v8h4l20 -36q11 0 28 -32l4 4h4
q28 -9 28 -16l4 4h4l20 -12l-4 -4v-8h12l-4 4v8l24 4l4 -4l20 4h4l40 -4l8 8h20l4 -4h4q0 5 60 24l104 48l12 -12q89 135 124 236l4 4h4l-4 4q0 27 20 40l-4 4v4l4 4l-4 4v8h8l4 16l-4 4v4q0 8 12 8l-8 8l4 28v36q-9 80 -72 80l-40 4zM352 556l-8 -8v-4h8l4 4v8h-4zM284 508
v-4h20v4h-20zM208 68l8 -24l-8 -16l4 -4h24q25 93 132 300q-160 -229 -160 -256zM312 -288v-4h12v8z" />
    <glyph glyph-name="colon" unicode=":" horiz-adv-x="557" 
d="M252 155h4l24 -4l16 4q20 0 60 -60l-4 -28l8 -8v-8q0 -35 -48 -44q0 -22 -72 -28l-36 40v28l4 4l-4 12q8 92 48 92zM336 506h4l24 -4l16 4q20 0 60 -60l-4 -28l8 -8v-8q0 -35 -48 -44q0 -22 -72 -28l-36 40v28l4 4l-4 12q8 92 48 92z" />
    <glyph glyph-name="semicolon" unicode=";" horiz-adv-x="561" 
d="M331 555h4l24 -4l16 4q20 0 60 -60l-4 -28l8 -8v-8q0 -35 -48 -44q0 -22 -72 -28l-36 40v28l4 4l-4 12q8 92 48 92zM261 127l26 -16l21 11q46 -8 52 -94l5 -5l-5 -16l5 -15q-8 0 -15 -32l10 -10v-10h-10v15l-16 -15v-11l5 -31q-52 -271 -109 -401h-5l-21 31h5l-5 5v11h10
v5l-5 5v5l26 58l-5 5v5l16 31l-6 16h6l5 5l10 26l-5 5v6l5 5v5l-10 11l15 5l-10 10l5 31h5l6 -5h5v16h-11v15l11 11l5 -5v10h-10l5 52v37l5 5l-5 31l-5 -5h-6q-11 0 -20 36q-21 0 -21 11l10 31l-10 31l15 21l-5 5v26q3 11 26 21z" />
    <glyph glyph-name="semicolon" unicode="&#x37e;" horiz-adv-x="561" 
d="M331 555h4l24 -4l16 4q20 0 60 -60l-4 -28l8 -8v-8q0 -35 -48 -44q0 -22 -72 -28l-36 40v28l4 4l-4 12q8 92 48 92zM261 127l26 -16l21 11q46 -8 52 -94l5 -5l-5 -16l5 -15q-8 0 -15 -32l10 -10v-10h-10v15l-16 -15v-11l5 -31q-52 -271 -109 -401h-5l-21 31h5l-5 5v11h10
v5l-5 5v5l26 58l-5 5v5l16 31l-6 16h6l5 5l10 26l-5 5v6l5 5v5l-10 11l15 5l-10 10l5 31h5l6 -5h5v16h-11v15l11 11l5 -5v10h-10l5 52v37l5 5l-5 31l-5 -5h-6q-11 0 -20 36q-21 0 -21 11l10 31l-10 31l15 21l-5 5v26q3 11 26 21z" />
    <glyph glyph-name="less" unicode="&#x3c;" horiz-adv-x="727" 
d="M506 464h16l8 -8l20 4h8l12 -12v-12q-6 -16 -24 -16v-12l16 12h4l12 -12v-4l-12 -12h-28q0 -26 -88 -44l-120 -56q-116 -59 -168 -108q36 -9 36 -24l4 -4h12l-4 4v8h28v-8l-4 -4v-4l64 -8q0 12 8 12l8 -8l-4 -4q14 -8 60 -12v8q35 0 64 -20l4 4l8 -8l4 4q0 -9 28 -12
q0 -6 32 -12v-8l-8 -8h-4q-10 0 -12 16h-4v-12l16 -12v-8l-12 -12l4 -4v-12l-8 -8q-39 29 -156 64l-12 -4l-4 4v4l-4 -4h-4l-44 12l-16 -4l-4 4v4l-20 -4q-120 6 -120 36q-16 8 -16 20l8 20l-4 16q0 23 52 44l4 -4l-8 -16h4q125 90 328 184v4h-12q0 -8 -24 -12l-4 4v4
q51 33 80 60zM418 400l4 -4v-4l-16 -4zM182 268l4 -4v-4l-4 -4h-4l-4 4v4l4 4h4zM162 256h4v-4l-12 -12h-4v4zM94 164v-4l8 -8v4zM254 164h8l8 -8l-4 -4h-4l-8 8v4z" />
    <glyph glyph-name="equal" unicode="=" horiz-adv-x="778" 
d="M654 187l-12 -24l8 -8q0 -9 -28 -12v4l-12 -4l-36 16l-4 -4h-4l-237 37l-4 -4h-4q-28 4 -28 12l-4 -4h-4l-12 8l-8 -8l-36 12q-15 -8 -116 -16l-4 4v8q0 8 24 8v8q-48 9 -48 16v4l12 12h44v4q-32 0 -32 8l4 4h24l4 -4l4 4h4q100 -9 120 -24l4 4h4q41 -16 369 -49z
M606 335l-12 -24l8 -8v-4l-8 -8h-4l-28 4q0 -12 -8 -12l-8 8l4 4v4l-28 12l-173 5l-60 16h-16l-4 -4l-4 4h-8q-17 -16 -32 -16q-8 0 -8 12l-20 -20h-4l-12 12v8q0 12 28 12v4q-11 0 -24 12l-16 -4l-8 12v4q0 12 24 12l8 20l385 -49q28 0 28 -16zM586 151v-12h-8v12h8z
M209 388h-8l-8 -8h8z" />
    <glyph glyph-name="greater" unicode="&#x3e;" horiz-adv-x="891" 
d="M217 540h20l16 -4l12 4q42 -32 92 -32h20l16 -12l8 8l8 -8l28 8q16 -6 16 -12v-4h-12v-4h20l-4 4v4l4 4h4l8 -8l-4 -4l72 -8l-4 4v4l4 4h8l32 -8l16 4h4l124 -40q19 0 24 -60l-4 -4v-4l4 -12q-17 -30 -176 -124q-135 -83 -208 -148q-99 -69 -128 -120l4 -20l-4 -4h-4
l-16 12q-11 -35 -24 -40l-12 12v12l4 4v4h-4l-12 -8l-8 8v4l16 20q-16 7 -16 28q48 24 92 68h8v-4l-52 -48v-8q168 144 340 268h-12q0 -10 -28 -20l-8 -8l-4 4v4l68 48q0 13 32 28l60 60q-84 23 -84 28l-4 -4h-8l-8 8l-4 -4h-12l-12 8l-20 -4q0 8 -12 8l-44 -4l-8 8l-56 -4
l-4 4v4l-12 -4q-156 0 -156 40q-12 0 -12 8q11 0 16 24q-12 0 -12 8v8zM489 496l8 -8v-4h-12l-8 8l4 4h8zM517 492h12v-8h-12v8zM429 452v-4h16v4h-16zM717 360v-8l16 16v4zM589 308h4l8 8h-4zM561 288h4l12 12h-4zM293 100l4 -4v-4l-4 -4h-8v4z" />
    <glyph glyph-name="question" unicode="?" horiz-adv-x="791" 
d="M510 1232l4 -4h4l-4 -4v-8h8l20 4v-4l4 4h32l16 -4l12 4v4h-8v4h16v-12h12v12h16v-12h-8v-4h20l8 8q23 0 52 -28h12l8 8l8 -12l-8 -8q112 -83 112 -144h4v12l-4 12h8l4 -24l-8 -8v-12l4 4h4l4 -4v-4h-4l4 -4v-4l-8 -8l4 -12q0 -223 -320 -448q-29 -24 -48 -24
q0 -15 -48 -40q-29 -25 -192 -124q-9 -14 -68 -48l-32 -36v-12q12 0 28 -24v-8l-8 -12v-8q16 -2 16 -12v-4l-12 -12l-24 20q0 -12 -12 -12l4 -20l-8 -8h-8q-40 40 -52 68l4 64q38 41 104 84h12q0 -8 -40 -32l-24 -28h4q73 65 296 196q145 100 236 180q71 71 88 104l-4 4l8 8
h4l-4 4v4q56 77 56 164l-4 32h8v-24h4v16l-4 20l-4 -4h-8q0 43 -60 100q-80 56 -112 56l-4 -4h-4l-24 8h-48q-141 0 -316 -112q0 -18 -20 -40h-8v8h-4q-8 0 -8 -24l-24 -20l-12 32l-4 -4h-8v8l8 28l-8 8v8q0 34 92 84q31 20 136 52v-8l-20 -12h-4v-4h8q24 5 24 24l4 4h12
l-8 -12h8l108 24v4l-8 8l4 4h4zM462 1224v-12l-8 8l4 4h4zM410 1212l4 -4h4l4 4v-8h-20zM762 1180l8 -8l-4 -4h-12v4zM302 1160v-4h12l4 4v8zM782 1164l8 -8v-8h-12l-4 12l4 4h4zM790 1148h8l8 -8v-8h-4l-12 12v4zM830 1112l8 -8v-4l-8 -8l-8 12zM738 780l4 -4v-4l-4 -4h-8
v4zM86 236v-20h4v20h-4zM150 -28q16 -6 16 -12l16 8q32 0 32 -60l4 -4v-4q0 -21 -20 -32h-8l-12 8q-8 -25 -20 -28h-8l-12 12l4 20l-4 -4h-16v4l4 32l-8 16q11 44 32 44z" />
    <glyph glyph-name="at" unicode="@" horiz-adv-x="1569" 
d="M731 978h24q92 0 92 -12l4 4h4q171 -25 352 -160q176 -173 176 -328v-16l28 -40q16 0 52 -72v-4l-4 -4q32 -17 32 -44l-4 -4q16 0 36 -88h-4q12 -19 12 -52v-16l-4 -4v-4l8 -8v-4l-4 -4l4 -4v-24l-4 -4l4 -12l-8 -16l4 -16l-8 -16l4 -16l-8 -12l4 -12q-11 -83 -116 -236
q-10 -19 -92 -96l-32 -32q-165 -112 -196 -112q-1 -8 -24 -12l-4 4q-27 -26 -100 -44q0 -6 -60 -12l-4 4l-12 -12h-4l-4 4l-44 -12l-12 4l-32 -8l-16 4l-8 -8h-4q-48 0 -48 8l-4 -4l-16 4l-32 -4q-60 8 -60 20l-12 -4v4l-4 -4h-4q-20 0 -100 36l-80 40l-12 8q0 8 -16 8
q-80 65 -104 100q-14 0 -36 40q-43 47 -112 168q-8 51 -24 60q-36 114 -40 156l4 12q-8 0 -8 12l4 20l-8 8v36l4 20l-8 8v4l4 4l-4 4v40l8 8l-4 20v36l4 4l-4 4v4q7 40 16 40l-4 16l32 120q32 63 36 88q11 0 32 56l40 56q63 88 196 192q179 104 300 104h8l4 -4zM667 946v4
q-163 -31 -292 -124l-48 -40q-140 -139 -160 -204l-20 -12v-16q0 -28 -20 -28l4 -16l-48 -104v-44l-12 -12l4 -20q0 -32 -8 -32l4 -4v-8l-4 -4l4 -4l-12 -44l8 -8v-4l-4 -4l4 -4v-4l-4 -4v-4l4 -4v-4l-4 -4v-4l4 -16l-4 -4h-4q8 -22 8 -56l-4 -12l12 -12l-4 -24q6 0 24 -88
q24 -89 96 -220l60 -80q123 -126 188 -152l60 -36l4 4h4l64 -28l4 4h4l20 -16l16 8q32 -4 32 -12l4 4h8l32 -8h4l60 4l20 -4l16 8l28 -8l12 12l20 -4q13 0 28 12l16 -8q0 5 36 16l4 4l4 -4l36 16h4l4 -4h4q0 9 36 20l4 -4h4l104 52h4l4 -4q0 11 36 28l32 16l72 60l4 -4h4
q0 11 32 32q0 8 80 96q0 13 32 44q0 23 16 32q0 16 20 44l36 132h4l-4 20v4l8 8l-4 20v60q0 76 -56 188v20q-19 0 -40 52l-32 32l-4 -4v-4l4 -4q-3 -32 -8 -32l4 -4q-16 -109 -128 -208q-97 -61 -152 -72q0 -16 -28 -16q-65 0 -108 84l-4 -4h-4l4 -4v-4q0 -17 -96 -48l-12 4
l-8 -8h-48q-64 0 -116 84l-12 40l4 4h4l4 -4v8h-8l8 40l-4 12q41 60 48 60h4v-8l-20 -20h-4v-8q102 109 172 124q26 0 40 12l8 -12l16 4l-4 4v4l8 8h12q104 -16 104 -44q28 0 32 -92l-4 -4h-4q-8 0 -8 20h-12v-36l-16 -16h-4q-8 0 -8 24l-4 -4h-4l-12 8q-8 -18 -8 -52v-16
l-4 -4l8 -16l-4 -20v-4h4v8h4q6 0 16 -32l12 -4l16 12q28 -3 28 -8q92 16 132 48h4v-4q-28 -28 -52 -32v-4h8q46 14 116 88q-12 0 -12 8l4 4h8v-8h4v4l-4 16l4 4h4l4 -4l-4 -4v-8h4q5 24 12 24l-4 4v4q13 15 20 52h4l-4 4v4l8 32v12h12l-4 4v40q-73 67 -140 96l-8 12l12 12
h4q111 -61 128 -92h4v8q0 66 -64 172l-16 8l4 4v4q0 12 -16 12l-8 24l-4 -4h-4l-8 8l4 4v4l-20 8l4 4v8q-24 0 -24 16q-31 36 -116 88l-12 -4l4 4v4q-76 44 -224 80l-4 4h-4l-4 -4l-76 8l-12 -4v4l-4 -4h-12l-20 4zM879 454l4 -4l4 4v-8l-36 -8v4q0 9 28 12zM715 242
q20 -12 20 -32q12 0 20 -16v-8h-8v-4l24 -8l8 8l48 -16l12 8l12 -16q72 17 88 40h-4l-56 -24h-8v8q24 0 68 36q8 0 8 -16h16v32h8v8h-8v4l16 132q-15 11 -92 16q-114 -40 -164 -120zM755 378l-12 -12l-4 4v4l4 4h12zM1255 250h4l-8 -8h-4zM679 222v-12l4 -12h4v4l-4 20h-4z
M719 218v-4q6 -16 12 -16v8zM971 214v-28h4v28h-4zM1015 182v-4l8 -8v4zM863 178v-12l-8 8l4 4h4z" />
    <glyph glyph-name="A" unicode="A" horiz-adv-x="2506" 
d="M2879 1615h19l9 -9l23 5h15q14 -5 14 -29l-10 -18q19 0 19 -24l-33 -33h-5l-4 5h-5q0 -26 -80 -113v-14l10 -9v-10q-15 -15 -15 -28h-14v9l5 5v5h-5q-12 -13 -65 -160q-18 -53 -174 -338l-66 -127l37 -14l15 14l23 -5q0 11 24 14v-5l4 5h5l33 -5q0 18 70 24l5 5h9l5 -5
l5 5h5l56 -5l5 5h4l29 -10l23 5q24 -10 24 -28l-10 -19q33 0 33 -28q-16 -14 -28 -14v-10h5l23 5l5 -5v-14l-10 -9q-23 0 -23 9l-14 -5l4 -23l-14 -10q-84 15 -84 43l-19 4h-33q-17 -14 -33 -14h-52l-112 -4l-61 4q-47 -106 -71 -216v-14l14 -19l33 10q14 -12 24 -99l-5 -5
l9 -9v-19l-9 -9h-14l-24 4l5 -14q-9 -21 -19 -23q-33 0 -66 75v28h10v24h-10v4l10 14l-10 10v9q0 10 14 10l-4 23l9 14l-5 5v5l5 4h5l-5 5v5q0 15 14 33l-4 4l4 5h5l-5 5v9q12 0 14 19l-4 5l9 9l-5 5q14 8 38 84h-5l-42 5v9h-9q0 -13 -19 -23l4 -14q-32 -58 -65 -169
q-16 0 -38 -137l-14 -28l5 -5v-4l-19 -104l5 -4l-5 -24l9 -75h-4q18 -78 47 -122q51 -53 112 -61h5q75 0 136 65v5h-9l9 28v10l-9 9h-9v-5l4 -4v-5q-7 -19 -14 -19h-14q-33 42 -33 57l14 4l-14 52q11 24 47 24l10 -10l18 5q39 0 76 -85v-9q-44 -97 -62 -118
q-78 -51 -117 -51l-5 4v5l5 5h-14l5 -5v-9l-29 -5q-45 0 -75 23q-48 12 -94 123q-23 71 -23 164l4 5v5l-4 4v5q10 94 28 132l-5 4q61 230 122 343v10q0 14 -56 14l-5 5v4l5 5v5l-28 4h-14v-4h18v-10h-28l-9 10l5 4l-24 5h-66l-4 5l-5 -5l-33 5h-42q-382 -278 -748 -475
l-33 -23q-31 0 -47 -19q-78 -47 -155 -75l-4 4q-11 -17 -38 -33h-9l-5 5h-5q-8 -19 -94 -47l-84 -33h-5l-5 5q-88 -52 -272 -85l-76 -9l5 -5v-5l-5 -4h-18v4l4 5v5l-4 5h-5l-5 -5q-33 3 -33 9l-23 -4v-5h9v-10h-23v19l-5 -4h-5l-4 4h-14v-4h14v-5l-10 -10h-9l-61 19
q-111 56 -137 132l5 5v4q-14 41 -14 94v5h-9v5q21 103 42 103l-5 5v19h19v4h-9v5l14 14v-9h4q0 11 57 70h-14q0 -12 -24 -33v10l28 37h10v-9l14 5v4h-14v14l52 38q61 46 169 66q82 0 117 -47l10 -85l-33 -9l4 -5v-9q0 -11 -23 -14q-19 0 -19 28q-23 0 -23 37l-38 10h-9
l-19 -5l-5 5h-5q-153 -46 -225 -165q-19 -33 -28 -94q0 -120 117 -178l5 4q0 -20 131 -37l5 4h5l14 -4q95 0 348 66l4 -5q44 36 76 37l4 -4q0 11 57 28l4 -5q0 15 52 24l5 4l5 -4h4q0 20 38 28v-5l174 90l51 28q96 45 109 61l155 84q236 143 362 235q112 81 112 90l-4 4
h-104l-42 5l-5 -5l-33 5h-188l-18 -5l-19 5h-132l-33 -5v5l-14 -5q-186 0 -512 -18v4l-5 -4h-9l-5 4l-56 -9v5l-5 -5h-5l-333 -19l-5 5h-5l-5 -5h-4l-5 5l-94 -14l-33 4l-75 -9l-5 5v4l-33 -9l-14 5l-9 -10h-14l-10 10l-56 -14l-28 4l-61 -9l-19 5l-19 -5v5q-21 -10 -89 -14
l-24 9q0 -11 -164 -19v-5h19v-9h-29v5l5 4v5l-52 5l-94 -5v-5h66v-4l-9 -10l-14 5l-80 -9l-10 9l-14 -5l-61 10l-5 -5q-48 0 -61 33h-9v5q6 33 19 33l-5 4v10l14 14q28 -3 28 -14l24 4q42 -9 42 -18l14 4q19 -7 19 -14l-9 -9l42 -5l5 5l94 -10q75 10 206 10h5l14 -10l28 14
l104 -4l19 9l70 -5l14 10l33 -5h28l10 10l47 -5h9q24 0 24 9l33 -4h37q24 0 24 9l47 -5l235 14v-4l4 4h5l475 24v-5l4 5h5l240 5l37 4v-4l57 14h193l4 -5l5 5h85l4 -5l14 5l5 -5h5l4 5h5l5 -5h5l14 5v-5l28 9h99l9 -9l56 5h52l127 98l-5 5v9q0 9 122 109l250 235h-5l-24 -24
h-9v5q0 14 19 14q0 16 66 84q0 16 51 66h19q9 0 9 -14q38 16 38 24v4q-14 0 -14 10v9l19 24l-14 14v14q16 28 56 28h5l9 -9q28 0 61 42l-4 14l9 52l-5 33q0 24 24 37zM2103 727h38q119 0 193 -9l-5 4v14h9l10 -9l-5 -5v-4h23l-4 4v10l19 4l14 -4l4 4v5l-4 14q7 1 42 66h5
l-5 5v4q50 102 150 259l-4 5v4l28 57q-311 -278 -508 -428zM2512 1155h10v-14l-19 -10l-5 5v5zM2470 1117l5 -5h4l-4 -14h-5l-10 10zM2648 1094l-9 -19l14 -14l5 23zM2446 1089h5v-5l-9 -9h-5v4zM2404 1051l5 -4v-5l-5 -5h-9v5zM2587 1023q-118 -179 -164 -282v-5l5 -4v-5
q22 14 61 14l131 263q-9 0 -9 14h-5q0 -18 -9 -18l-5 4l5 5v5zM2146 689h23v-9l-23 5v4zM-308 609h14v-9h-14v9zM378 464v-5h10q19 7 19 14h-5zM303 417h5q48 33 61 33v4h-5q-61 -26 -61 -37zM204 337h10v-5l-14 -14v5zM134 149h9v-28h-9v28zM139 107h9l9 -47q-10 0 -18 47z
M228 64l5 -4v-5l-5 -5h-9v5zM2569 55l14 -14v4l-10 10h-4zM2460 -81v-15l-18 -4l-5 4v5l5 5h4l5 -5zM2366 -91h10v-14h-10v14zM2413 -91h5v-14h-14v5z" />
    <glyph glyph-name="B" unicode="B" horiz-adv-x="2817" 
d="M1797 1452v-5l6 5h5l5 -5l5 5h52q458 0 816 -191q109 -72 109 -129v-31q-32 -109 -72 -109q-46 -46 -78 -46l-5 5q0 -21 -10 -21l-26 5l-5 -5v-5l5 -5h-5l-16 5q-228 -91 -310 -93l-5 5q0 -12 -78 -31l-10 10h-16q0 -20 -51 -20l-5 5q0 -14 -161 -36l-15 5l-10 -11h-16
l-5 6h-5q0 -11 -16 -11l11 -10l25 5q119 -8 119 -21l5 6h6q496 -96 733 -290q109 -109 109 -196q0 -106 -98 -181l-5 5q0 -22 -57 -46l-26 -21h-5l-5 5h-6l-5 -15l-5 5q-147 -67 -238 -88l-15 5q-16 0 -16 -15l-5 -6h-5l-21 6q-127 -52 -181 -52l-5 5h-5q0 -16 -46 -21l-6 5
h-5q-69 -25 -108 -25l-21 5q-5 -16 -31 -16l-15 5l-11 -10h-5l-5 5l-5 -5h-5l-6 5h-5l-36 -10v5l-46 -15l-6 5h-5l-26 -11l-5 6v5l-52 -16l-5 5h-5l-31 -10l-21 5l-10 -10l-26 5l-36 -10l-21 5l-46 -10l-16 5l-41 -11l-31 6l-31 -11l-31 5l-57 -10l-57 5l-5 -5h-5l-5 5h-5
l-52 -10l-52 5h-57l-129 5l-31 -5l-77 10l-5 -5h-6l-51 11l-5 -6l-63 11l-5 -5h-5l-41 15q0 -10 -16 -10l-20 10l-26 -5l-21 10l-21 -5l-15 10l-16 -5q-20 8 -20 16l-26 -5h-21q-8 10 -57 10l-15 15l-5 -5h-5l-6 5l-5 -5h-20l-21 16l-21 -5v5l-5 -5h-5q-311 82 -429 155
l-5 5q-16 0 -31 21l-5 -6h-11v11q-15 0 -15 10l5 5q-38 0 -83 67l5 6l-15 10l5 5v5l-21 67h-10v16q17 100 67 145h16q-5 -21 -21 -21v-5h10q58 59 212 88l88 15l5 -5l67 5q118 0 212 -20l6 5v-11h5l5 6l26 -16l15 -5l16 5l72 -52v21h10l16 -21l-16 -5l6 -26l-6 -26l11 -10
v-10q-78 -62 -109 -62l-46 46q0 18 15 36q-15 6 -15 31l10 26l-52 26l6 5l-6 5h-10l5 -5v-10h-15l-5 21l-62 5h-6v-5h16v-11h-16l-5 5h-5l5 6v10h-119l-26 -5l6 -5v-6l-6 -5h-31v11h16v5h-26q-10 0 -10 -21h-16v10h11v6h-16l-21 -6l6 -5v-10h-6l-15 10h-10l5 -5v-10
q-40 0 -78 -26l-5 5h-5l-10 -10l-6 15h-5q0 -32 -67 -57q-41 -47 -41 -87q0 -81 134 -171q131 -92 470 -181l21 5q0 -10 21 -10l5 -5v-5l31 10q5 -16 31 -16l26 6q0 -11 20 -11l6 -5v-5l25 5l26 -5l21 5l10 -10l21 5l145 -26l5 5l145 -10l5 5h5l5 -5h5l5 5h6l31 -10h191
l31 5l26 -5h77l16 10h5l5 -5l5 5h5q37 -3 37 -10q36 7 36 15l26 -5h25l11 10l36 -5h15l11 11l36 -6q26 0 26 11l26 -5h20l11 10l25 -5l26 10h11v-5l103 10l5 -5q0 9 145 26l15 10l26 -10q0 9 62 26l5 -5q65 5 93 26l21 -6l78 26l5 -5q0 9 72 21l5 -5h5q34 13 37 25l26 -5
l232 98l140 93l41 57l-5 5h-5q16 42 31 42l-6 15l6 16h-11v10l5 -5h6v15l-16 16l5 5v5l-20 31q0 12 -42 52l-5 26l-5 -5h-5q-26 8 -26 36q-11 0 -57 41q-193 120 -460 191l-176 37l-5 5l-15 -5l-78 15l-15 -5l-36 10l-21 -5l-176 10l-5 -5h-5l-21 5q-11 -8 -72 -15l-21 5
l-72 -10l-5 5q-51 -10 -176 -10v-6h26v-10h-47q-87 -144 -170 -238q0 -21 -52 -82l-181 -316v-20q21 -3 21 -16v-10l-16 -21v-5q21 -3 21 -15l-10 -11h-11q-10 0 -10 16h-5v-5l5 -16l-31 -26h-10q-12 0 -16 26l5 5q-26 0 -26 11v5l16 31l-10 10v16l56 62l6 -6l5 26l-5 5v11
q16 0 149 222l109 155l129 196h-41l-67 -15q-26 0 -47 36q15 31 36 31v5q-26 0 -26 11l21 20h5l26 -5l16 5q77 -3 77 -20h36v5h-31v5l11 10h20l16 -10l165 279l-5 5l5 5h5l-5 6v5q47 75 47 103l-5 5l5 5h5v11h-5q5 83 15 103l-5 16q10 23 21 25l26 -15l10 10h10l11 -10v-10
q-20 -37 -68 -197q-56 -144 -196 -351v-5h5l31 5l5 -5h6l20 5l16 -5l20 5l6 -5l5 5h31l5 -5l5 5h5l5 -5h6l25 5l6 -5h5l5 5l26 -5h160l5 -6h5q0 12 62 16v-5l37 10l5 -5l10 10l26 -5l10 10l21 -5l21 11l15 -6q0 15 129 26l5 -5h6q0 17 51 21l5 -5v-6q36 26 62 26v-5
q24 0 336 109q176 81 176 139v26q0 51 -103 119l5 5v5h-10l-16 -5q0 10 -21 10v6h21v5h-10l-5 5l-6 -5v-5h-15l-31 31v-11h-10l5 5v11l-42 15l-10 -10q0 15 -21 15l-5 6v5l-5 -5h-5l-5 5h-5l-6 -5l-5 15l-5 -5h-5q-2 17 -155 46l-52 11l5 -5v-11h-10l-5 21l-140 15l5 -5v-5
l-5 -5h-5v21l-181 5h-67l-36 -5l5 -6v-5l-5 -5h-26v10h15v6l-20 5q-26 -7 -26 -26h-21v10h11v5h-6l-25 -5l5 -5v-5l-11 -10l-20 5q0 -11 -16 -11l-15 6l-11 -11h-5l-5 5h-5l-155 -56q-59 -33 -124 -88h-5l-11 31l-5 -5h-5v20l16 21l-11 15v21q19 28 140 72l5 -5l5 5l5 -5v-5
l-20 -15q41 4 41 20h10l78 21l5 -5h5q32 15 160 31l5 -5h6zM1575 1442h16l-11 -11l-5 5v6zM1829 1411h46v-11h-46v11zM1653 1400l-5 -5v-5h5l15 5v5h-15zM1989 1405h26v-10h-26v10zM1384 1364v-5h5q26 7 26 15h-5zM2717 1070l6 -6v-5l-6 -5h-15zM-254 305l-11 -21v-5l21 26
h-10z" />
    <glyph glyph-name="C" unicode="C" horiz-adv-x="1501" 
d="M1725 1149l15 -10l5 5l35 -10l15 5q13 0 25 -25l-20 -30q25 0 25 -10v-5l-15 -15h-5l-25 5q-8 -40 -30 -40l-5 5h-5l-255 -105h-10l-10 10v10l5 5v5q-30 0 -30 10l25 10v15q-17 0 -25 25q10 25 30 25l40 -5l25 10v5l-145 15l-90 -15v10l10 15h-5q-222 -44 -414 -135
q-61 -40 -95 -40q-13 -21 -80 -50q0 -20 -35 -20l-205 -144q-1 -9 -45 -35q0 -13 -45 -35q0 -24 -45 -45q0 -20 -25 -20q0 -20 -45 -55q-170 -205 -170 -330v-20q0 -172 330 -220q45 0 45 -10l25 5h155l5 -5q20 10 120 15l5 -5h5l30 10l15 -5l30 10h5l5 -5h5q0 10 149 30
q203 45 280 75v10l-5 -5h-20l40 35q0 35 35 35l10 -15l20 5q25 0 30 -20l-50 -60l10 -10q-15 -30 -140 -50l-5 5v5l5 5l-220 -50l-5 5h-5l-30 -10v5l-49 -15l-5 5l-115 -20l-5 5h-5l-45 -10l-5 5l-60 -10l-20 5l-20 -5l-5 5l-50 -10l-5 5h-5l-5 -5l-110 10l-5 -5h-5l-185 30
l5 -5v-5h-15v5l5 5v5l-20 5h-5v-5h10v-5h-25l-5 20l-10 -10q-77 32 -120 95h-10v5l5 5l-30 100q0 223 310 490l40 40l50 35h10q0 20 30 20v10l70 54l125 75l45 30l60 20q0 20 80 50q138 75 294 120l190 45q0 15 10 15v-5l-5 -15h5l90 10v5q-30 0 -30 10l35 5v-5l5 5h10
q10 0 10 -15l5 5h15l5 -5l35 15l10 -10l10 10l30 -10l15 5q14 -10 75 -15q0 18 30 25zM1340 1129l5 -5v-5l-5 -5h-5l-5 5v5l5 5h5zM1330 50v-5h5l15 5v5h-5zM1410 45l10 -10v-5l-25 -5v5z" />
    <glyph glyph-name="D" unicode="D" horiz-adv-x="1737" 
d="M255 1206l104 -5h166l37 5l10 -11h37l36 6l11 -11l52 5q0 -10 15 -10l104 -10l21 5q0 -11 16 -11l15 6q0 -14 84 -21l99 -21l5 5h5q42 -26 208 -62q1 -7 151 -52l26 -21l5 5h6q168 -72 296 -177q146 -140 146 -307v-5l-5 -21l5 -5v-5q-45 -137 -109 -188l-99 -88
q-154 -99 -380 -172l-156 -42l-16 5q0 -20 -99 -31v5q-33 -20 -151 -36l-5 5q0 -13 -52 -15l-5 5q0 -15 -110 -26l-5 5l-10 -10h-11l-26 5q0 -10 -88 -26l-5 5h-5l-32 -10l-21 5l-26 -11l-20 6l-42 -11l-5 5l-99 -15v5l-5 -5h-63l-5 -6h-5l5 -5v-10h-16v-5q16 0 16 -11v-15
l-10 -11h-11q-14 0 -15 26h-6q0 -49 -20 -57h-16l-21 31q-16 0 -16 11v26l-41 5l-31 -5l-6 5h-5l-21 -5l-10 31q-26 0 -26 10l26 26l-21 21v21q0 10 42 21l62 -21l-5 -21q0 -23 42 -31q0 36 10 47l-5 5l10 10l-10 11l16 15h-6l11 26l-5 16l5 16h-11l16 36l-5 5l10 11v26
l-5 26q16 0 16 26h-6l58 234h-6l42 135l-5 6q13 12 73 213l-6 16h6l5 5l-5 5v5l26 52l-5 16h10l-10 10q6 26 15 26l-5 6v5l26 109l-5 5v37l10 67l-5 6v5l16 21h15q11 0 11 -16l20 16h6l20 -21l-5 -16l5 -52h-5q-26 -2 -26 -26l5 -5v-5q-171 -546 -223 -776l-37 -213l5 -6v-5
l-10 -21l5 -20l-5 -58v-10l5 -26l245 16l15 -6l32 11l20 -5l32 10h5l5 -5l31 10l16 -5l31 10l5 -5l6 5h15l5 -5h6l15 16h5l26 -5q0 14 99 20l6 -5h5q0 15 47 21l15 -5q0 9 115 31l31 -5q0 19 114 31q4 9 240 78q248 100 369 219q49 67 63 67l-5 6v5q17 25 36 109l5 5h6l-6 6
l6 26q0 100 -89 213q-34 24 -42 52q-147 119 -291 177q0 14 -73 26l-88 47l-6 -5h-5q-126 41 -250 67l-10 11l-5 -5h-11q-24 0 -36 15l-5 -5h-6q-27 0 -46 16l-16 -6l-5 6h-5l-21 -6l-5 6v5l-26 -5l-21 10l-16 -5l-26 10l-16 -5l-36 10l-26 -5l-26 11l-31 -6l-57 11l-27 -5
l-46 10l-6 -5l-36 5h-16l-31 -5l-21 5l-26 -5v5l-5 -5h-5l-5 5l-99 -10l-5 5h-6l-5 -5h-5l-16 5q0 -11 -46 -16l-6 5v6l-93 -16l-16 5q0 -15 -73 -15l-5 5l-16 -16l-5 5q-261 -57 -369 -99v-10l-6 5h-5l-36 -10v-5h5l16 5v-11l-47 -15l-6 5v5l-26 -26q-171 -99 -171 -203
l78 -151q10 -2 21 -26l41 11q110 0 110 -63l5 -62l-5 -5h-16l-11 10v5l6 5v6l-6 5h-5q-13 -63 -26 -63h-10l-11 11v26h-5l-5 -5l-16 5l-62 -5q-36 0 -94 109q-57 121 -57 187q35 144 115 203l5 5l10 -10q-23 -9 -36 -31v-5q132 125 442 187q28 14 182 42l21 -6q0 12 63 16
l20 -5l11 10l21 -5l20 10l42 -5l26 11l52 -6zM-604 1013l5 -5v-5l-5 -5h-10v5zM-739 748v-21h5v21h-5z" />
    <glyph glyph-name="E" unicode="E" horiz-adv-x="1377" 
d="M629 1447q277 0 787 -66v-7l6 7l141 -29l17 8v-15h12q0 22 12 22l6 -7v-8l-6 -7v-7l41 -7v14h6v-14l6 7h5q94 -7 94 -29l6 7h30q19 -31 47 -36l6 -51v-65q-65 -51 -65 -65l-35 -8l-6 8v21l12 22h-6l-30 -7v22q20 0 30 36l-135 65v7l-6 -7h-6l-71 29l6 7v15h-11v-22h-18v7
l6 8v7l-6 7h-18l6 -7v-15h-12l-11 15l6 7l-6 7h-24l6 -7v-14h-12l-11 14l5 7l-93 15h-6v-7h11v-15h-17l-6 7h-6l6 8v14h-41l6 -7v-15h-6l-12 15l6 7q-172 29 -264 29l-6 7l-6 -7v-7h12v-15h-18q0 29 -12 29h-64l-6 8l-6 -8l-153 15q-25 -24 -29 -65q-41 -80 -112 -167
q-149 -243 -240 -486q-24 -31 -65 -188l6 7h18q21 0 47 -29q0 29 11 29l12 -29h12l12 14l-12 15l6 7h11l6 -29l124 15l5 -8l77 15q23 -11 23 -22v-7l-23 -29l-6 7h-6l-6 -7v-7l6 -8l-6 -7h-41v15h24v7h-36l-23 -7l6 -8v-7l-6 -7h-41v14h17v8h-6l-35 -8l6 -7v-7l-12 -15h-5
l-24 8l-59 -29l-23 7q-94 -27 -94 -36l-12 -124v-14q0 -224 88 -355l24 7l17 -7l306 36v-7l35 14l29 -7l12 14l53 -7l23 15l65 -8l18 15l76 -15l12 22l88 -7h29l12 14l70 -7h71l11 15l59 -8h82l6 -7l88 15l6 -8v-7l6 7h12l6 -7l6 7h164l94 8l35 -15h6l129 7l12 -14l53 7
q35 -7 35 -22v-7l-12 -14h-41l-35 14l-18 -14l-94 21l-82 -7l-135 15l-6 -8l-29 8h-94l-6 7h-6l-12 -15q-29 0 -29 15l-6 -7h-17l-30 7l-12 -15l-5 8l-6 -8l-41 8l-83 -15l-41 7l-6 -7h-5l-18 7l-65 -14l-47 7l-17 -7v7q-32 -14 -82 -14l-6 7h-6l-18 -7v7l-53 -15l-41 8
l-53 -22l-17 14l-47 -21l-18 7l-41 -15l-6 8l-53 -15v7l-170 -29q18 -41 53 -79v-8l-24 -58l-35 -7h-17q-60 0 -147 109h-6q-83 0 -182 -22l-29 7l-59 -7h-12q-17 0 -17 44q-30 0 -30 21v8q0 19 30 21q-30 30 -30 58q8 37 41 37l24 -15l23 7l18 -7l6 7h6l170 -50h6v7
q-23 0 -59 254v50l12 73l-6 22q18 77 18 130l-6 22l17 7l-6 36q25 0 65 160l23 7l-5 22q117 318 293 616h-12v22q16 0 42 87h-6q-218 0 -400 -44l6 -7v-7l-6 -7h-5l-12 14l6 7h-6l-59 -14l6 -7v-15h-24v15h12v7h-6l-17 -7l-6 7h-6l-35 -15v-7h17l24 7v-14q-45 0 -88 -29h-6
l-6 7h-6q0 -11 -129 -51q-188 -69 -188 -116q0 -21 -12 -21h-35q0 -30 -29 -44q-36 7 -36 22v14l6 8v7q-29 0 -29 14q0 15 18 15l5 7v15l-23 36v14q0 60 323 153h18v-22q487 109 710 109zM-5 1381l6 -7v-14h-6l-12 14l6 7h6zM776 1381h29v-14h-29v14zM887 1374h30v-14h-30
v14zM-64 1367l6 -7v-8l-6 -7h-6l-6 7v8l6 7h6zM359 1367h18v-15h-18v15zM741 1360h11v-15l-17 -22h-6v15q12 0 12 22zM1204 1345h18v-14h-18v14zM195 1338h17v-15h-17v15zM1381 1323h23v-14h-23v14zM1545 1302l12 -15h6l-12 15h-6zM582 1244h6l-6 -22h-12v7zM1809 1186v-22
h12l12 29h-6zM388 -185v-14h24l-12 14h-12zM424 -192l23 -36l-6 -7l24 -8h11v8h-17v14h17v15h-11v14h17v7h-17zM224 -206v-8h82v8h-82z" />
    <glyph glyph-name="F" unicode="F" horiz-adv-x="577" 
d="M462 1517h19q13 0 13 -39h7q0 19 25 33h7q3 -26 19 -26l-6 -7v-6l6 -26l-6 -6l13 -13l-7 -20h7l90 -77v-13q0 -13 -26 -13v-13q33 -5 33 -19l-13 -13l-13 13l-32 -13l12 -20v-6q0 -13 -19 -13q-84 31 -84 64h-6l-13 -109l181 19l25 -6l13 12h7l26 -6l38 13l26 -7l33 13
l58 -6l13 13l51 -13l26 19l52 -6l26 13l39 -7l122 7l7 6v7l45 -7h19l13 13l46 -6h38l20 13h13l13 -13l6 6h39l6 -6q46 8 46 19l64 -6h39q32 0 32 13l97 -7h58l13 13l97 -6h155l20 12h6l19 -12h227l45 6v-6l6 6h7l71 -13l64 7l39 -13l58 6l33 -13l71 7l6 -7v-6l52 6l19 -13
l20 7l265 -39v13h26l12 -13v-7h-12v-6h19l13 13q136 -17 136 -45l-13 -46q14 0 19 -32q-117 -90 -187 -90l-13 19v7l6 6v6h-32v20q32 0 32 32q-26 0 -26 13v19l13 20l-45 13v13l19 -7h13v7l-64 13l6 -7v-13h-6l-7 7h-6l6 6v13h-6l-194 32l-19 -6l-59 13l-6 -7h-7
q-32 9 -32 20l-6 -7h-7l-6 7l-33 -7h-13l-38 13l-52 -6l-71 13l-45 -7l-142 13l-7 -6l-32 6h-91l-51 -6l-52 6h-26l-39 -6l-38 6l-7 -6h-6l-7 6l-97 -13q-32 0 -32 13l-52 -13v7l-77 -13l-26 6l-7 -6h-6l-7 6l-90 -13l-45 7l-7 -7h-6l-7 7h-6l-26 -7l-6 7l-13 -13l-46 6
l-64 -13l-20 7l-25 -7v7l-26 -13l-39 6l-52 -13l-6 7v6l-33 -13v7l-51 -13l-26 6l-52 -12l-26 6l-58 -13l-6 7h-7q-10 -13 -90 -13l-26 -13l-26 6l-39 -13l-25 13l-20 -19h-6l-7 6l-51 -13v7l-117 -20q-19 -200 -77 -349l6 -6v-6q-32 -149 -64 -201v-19l129 6h90l71 -6
l39 13h142l13 -13v-13l-13 -13h-58l-26 -6l-6 6h-7l-6 -6h-7l-6 6h-7l-6 -6h-6l-52 12l-71 -19l-7 7l-97 -7h-45l-32 -6l6 -7v-13h-51q-89 -485 -175 -562l-39 45v7l26 38l-13 13v13l78 117l-7 6q21 0 84 304v6h-45l-19 -13h-39l-7 7l-12 26q-26 0 -26 13v6q0 21 64 32v7h-6
l-39 -7v13l13 13h19l7 -6h6l13 13h7l26 -20l12 13q13 0 13 -19h46q37 210 64 232l-6 7v6q31 112 64 330l-174 -26l6 -6v-13h-6l-13 13l6 6h-25q-13 0 -13 -26h-26v20h-7l-13 -13l7 -7l-71 -19l-7 6h-6q0 -11 -78 -26h-13l-6 7l-6 -7h-13l-84 -6q-91 0 -149 116q10 26 19 26
l-13 39v13q7 19 39 19q13 0 13 -19l7 -7h6l13 13h13l52 -71q69 -26 129 -26l13 13l6 -6l-6 -7v-13h26l13 13l6 -6h6l246 32v-6q110 13 110 39q4 103 13 103q-3 26 -20 26v39l7 6l-13 65l19 6l-13 71zM-230 1142l7 -19h6v32zM3266 1071h13l13 39h-6q-20 -6 -20 -39z" />
    <glyph glyph-name="G" unicode="G" horiz-adv-x="2330" 
d="M2694 1267q103 -24 103 -38l5 6h6l5 -6l6 6h5q29 0 76 -60l16 -48h-6l11 -44q-18 -28 -48 -135l-38 -65l5 -5l-65 -65h-11q-27 14 -27 43l22 22l-11 16l87 135l5 27q0 83 -81 109q-92 23 -92 32l6 5v6h-17q0 -16 -10 -16h-55l-37 5v11h10v5h-10v6l-38 -27h-6v5l6 5v6h-6
l-27 -6l6 -5v-5l-6 -6h-11v6l6 5v5h-6q-104 -7 -383 -129v-11l-6 5q-49 -15 -49 -32l-5 5q-100 -42 -281 -200q0 -11 -33 -38q0 -21 -27 -21q0 -22 -10 -22l-6 5h-5q0 -13 -141 -162l6 -5v-27q-22 -20 -44 -87l-86 -124q-22 -75 -22 -141q0 -153 162 -200l109 -16
q201 0 502 141q94 59 119 102h-10v6l21 32q-19 70 -140 70l-27 -5v11h-11l-38 -22h-11l-16 16l-16 -5l5 -5v-6l-5 -5h-33v11h16v5h-5q-34 0 -38 -27l-92 -5l-5 5h-6l-21 -5q-45 0 -76 43v16q0 14 22 16l-11 16v6q5 16 32 16h6l11 -11l27 6h5l54 -27l-5 -17l5 6h6l16 -6
q113 0 113 33q-27 4 -27 16v16l16 17q87 -6 87 -22l5 5h6l43 -10l22 5h5q11 -11 103 -33l11 11h5l33 -5l32 11l16 -6l11 11l49 -5l10 11l33 -6l22 11l32 -5h5l17 10l48 -10l17 16l43 -6q21 0 21 11l22 -5q124 0 124 16l27 -5h44l11 10l37 -5h60l11 11q70 -4 70 -11
q65 9 65 16l38 -5h75l11 11l92 -6h92l16 11h11l6 -5l5 5h5l6 -5l16 5l5 -5h6l5 5l27 -5h119l146 5v-5l6 5h16l16 -16l16 5l206 6v-6l5 6h38l11 -11l81 5h16l146 -11h11l-5 6v5q13 33 32 33q108 0 108 -49v-5l-11 -17v-5q22 -3 22 -16v-6l-16 -16l-49 11l6 -6v-21l-11 -11h-6
q-27 0 -70 32q-22 0 -22 11l6 6v5l-22 6h-5v-6h11v-11l-27 -5l-6 5v6l11 11v5q-179 7 -179 22l-16 -6v6l-32 -11v5l-16 -5l-6 5h-5l-6 -5l-32 5l-146 11l-92 -5l-103 5v5l-5 -5h-11l-5 5l-17 -5l-162 -5l-124 5l-22 -5l-5 5l-65 -11l-54 6l-6 -6h-5l-5 6h-6l-70 -11l-54 5
l-65 -11l-43 6l-71 -11l-27 5l-16 -5v5l-43 -10l-38 5l-32 -11l-6 6v5l-22 -11l-5 6h-5l-44 -11l-5 5h-5l-54 -11l-33 6l-32 -11h-6l-5 5l-49 -11l-16 6l-33 -11h-5l-5 5q-21 -10 -60 -10l-5 5l-11 -11h-5l-22 6l-27 -11l22 -33v-5l-6 -5l6 -17q-20 -88 -60 -140
q-84 -71 -103 -71l-32 -21l-16 5v-16h-11l-6 5q-21 -5 -21 -27h-6l-21 6q-44 -12 -44 -27l-5 5h-5q-210 -76 -368 -76h-60l-64 11q0 -11 21 -11v-10q-75 0 -178 102l5 6v11l-5 -6h-11v6l5 5l-27 114q0 73 11 119v5h-5q0 -18 -146 -114l-6 6h-5q0 -27 -54 -27l5 -6v-5
q-32 -5 -32 -27h-6l-10 11q0 -16 -27 -16l5 -6v-5l-5 -6h-11l-6 6l-16 -6l6 -5v-6l-33 -10v5q0 -21 -362 -135l-179 -38q0 -16 -70 -32q0 -9 -76 -38h-16q-4 -27 -43 -27l-6 5h-5q-13 -38 -70 -38h-11q0 -20 -97 -48l-6 5q-37 -27 -227 -81q-109 -27 -265 -49v-5l5 -6l-5 -5
h-22v11h11v5h-102l5 -5v-11h-22v16h-16q0 -16 -11 -16l-11 11l-5 -6q-66 0 -151 92l-22 60h11l5 -27h6v27l-6 27h-5v-16h-11v5q0 90 87 184l48 38h16q0 -10 -70 -60l-32 -43v-5h5q108 135 233 135h16l11 -11v-11l-17 -16l6 -5v-6l-108 -38q-91 -50 -130 -119l11 -11l-6 -27
l-5 6h-6v-11q0 -43 82 -92l5 6q0 -18 114 -38l5 5h5l6 -5q238 0 649 156l16 -5q0 18 65 38l5 -5h6l43 32l16 -5v5q11 22 33 22v5q-44 0 -44 11l6 5l-6 6h-5l-6 -6h-5l-27 6l5 -6v-5l-10 -11l-11 11l5 5v6l-5 5h-16l5 -5v-6l-11 -11l-92 33q-97 65 -97 146q16 123 49 151h5
v-11h5l6 17h-11v10l16 17h6v-6l-6 -5v-6h6q28 55 59 55h5l11 -11l27 5l22 -11l22 6l21 -16l-11 -38l22 -17v-5q-79 -65 -119 -65h-5q-17 0 -17 33l-21 5q-29 -40 -33 -81l11 -11v-11h-11v-11q38 -97 109 -97l5 6q0 -33 178 -33q112 0 238 81l38 22l16 -6v6q0 16 33 16
q2 19 195 124q188 125 508 363q151 136 151 146h-5l-33 -27v5q79 102 130 195l27 21h11q11 0 11 -16l27 6h5l22 -17q296 262 692 352l97 16l6 -5l65 10l70 -5h16v16zM2705 1256l-5 -5v-5h16zM2846 1202v-10q27 -17 27 -38h5v5l-27 43h-5zM602 7v-5h5q530 145 779 427v6
l-44 -38h-5l70 97q14 0 22 38h-6q-76 -66 -119 -81q0 -15 -81 -60q0 -17 -43 -27q-23 -31 -286 -189q-160 -108 -195 -108q0 -16 -33 -16q0 -22 -64 -44zM2316 370v-11q21 -11 21 -33h6v17q-22 11 -22 27h-5zM34 94v-33h5v33h-5zM93 78h11l11 -11v-6l-11 -10h-5zM-534 56h5
v-16l-43 -11l-5 5v6l27 11l5 -6zM-610 24h11l-11 -11h-11zM1510 -14l11 -11h5l-11 11h-5zM1569 -36h33v-11h-33v11zM-696 -225h5l11 -11v-11h-16v22z" />
    <glyph glyph-name="H" unicode="H" horiz-adv-x="1122" 
d="M1949 1694q91 -20 91 -48v-12q0 -12 -18 -12l6 -6v-6h-12l6 -43q0 -133 -291 -459q-89 -88 -169 -145l-121 -103q-114 -103 -145 -103q-107 -100 -260 -182q0 -19 -55 -133l-60 -302h-6l6 -6v-49q0 -237 205 -350q134 -55 285 -55h6l24 -12l30 12l12 -12l25 12l6 -6h6
l6 6l36 -6l145 6l12 12h12l12 -12l1446 224l363 42l6 -6q358 36 629 36h109l24 7l6 -7l61 7h42l25 -7l6 7l30 -7q232 0 429 -18l18 6l13 -12l42 6q0 -12 18 -12l30 6l12 -12l25 6l24 -12l30 6l12 -12l18 6q46 -6 61 -18l6 6h6q139 -24 139 -42v-6l-18 -18q-212 44 -212 54
l-6 -6h-24l-12 12l-6 -6h-31l-12 12l-6 -6h-12q-30 0 -30 12l-6 -6h-6l-109 18l-24 -6l-12 12l-49 -6q-65 18 -387 18h-163q-274 0 -508 -24v6l-6 -6h-19l-6 6l-496 -54v6l-139 -24v6l-363 -61v6q-485 -91 -913 -151l-6 -6h-6l-6 6v6l-55 -18l-42 6l-18 -12l-43 6l-96 -12v6
l-6 -6h-6l-19 6l-54 -6l-6 6q0 -12 -18 -12q-78 0 -212 24h-6v-6h12v-12q-115 32 -115 48l6 6v6h-6l-12 -12q-42 14 -42 49l-6 -6h-6q-11 0 -19 30l-6 -6h-6q-49 64 -102 193q-11 0 -13 91v48l6 55l-6 30q0 79 103 315l-6 6v6l12 54h-6l-151 -103v6l-181 -90
q-13 -12 -19 -79l-78 -175l6 -6v-6q-42 -157 -200 -400q-124 -157 -163 -157q-36 4 -36 12l-49 -12q-45 0 -115 109l-12 42h12l6 -36h6v12l-24 97h-6v-12h-12q0 41 24 54l-12 61q16 0 18 30l-6 6l12 12l-6 6h-6q13 71 73 127l-6 6h-6v-18h-12v18l12 12l18 -12
q117 138 308 218q260 113 260 133l25 79l-6 6q12 0 24 48l-6 6v6l24 49l-6 6v6l97 345h-6l12 24h-6q12 10 48 193h-6l6 6v6l-6 19l12 12l-12 12v12l12 12l6 -6v12h-12q0 119 42 169q0 -12 37 -18l6 6l6 -6v-36q0 -12 -18 -12l6 -6q-97 -515 -200 -768l-6 -7l6 -6v-6
q-24 -47 -48 -151v-6l332 176q34 51 85 181q131 209 188 278q72 139 284 351q15 0 73 73q110 111 248 169v6h-6l-25 -6h-6v6q26 36 91 36l6 6h6zM1889 1658v-6h18v12zM1072 648v-6l206 121q62 65 90 72q0 16 79 67q107 85 169 151l224 242l115 188l-6 6v12q18 0 18 30h-12
v43l-24 6l-24 -6v6q-95 -23 -266 -158q-19 0 -19 -18q-30 0 -30 -30q-136 -133 -320 -375zM540 309l6 -6v-6l-37 -12v6q-109 -44 -109 -60q0 -19 -30 -19l-18 6l6 -6v-6l-48 -24l-18 6v-6q0 -12 -188 -157q-73 -108 -73 -212l7 -6h6l-6 -18q0 -73 42 -127h6l-6 6v18h12
q35 -42 60 -42v-6l7 6h6q18 0 18 -24h12l-6 30l36 12l6 -6v-6q-24 -9 -24 -18h6q83 30 212 248q115 249 133 266q0 55 54 175v18h-6zM213 206l-18 -18h-6v12zM134 158l12 -12l-18 -12h-6v12zM-23 -253h12v-19h-12v19zM1126 -314v-6l19 -6h6v6l-19 6h-6zM255 -314l6 -6v-6
l-6 -6h-6l-6 6v6l6 6h6zM146 -374v-6h31v6h-31zM146 -429v-6h25v6h-25z" />
    <glyph glyph-name="I" unicode="I" horiz-adv-x="1333" 
d="M933 1206h6l16 -11l28 5l17 -27q-45 -81 -45 -116l6 -6h33q111 0 404 -61l6 -5l5 5h6q105 -16 105 -27l5 5h6q90 -11 100 -22l16 5l22 -11l22 6l12 -11l5 5h22l11 -11l6 6h5q28 0 28 -11l6 5h27l17 -16l27 11l45 -11l27 5v-5l6 5h11l22 -11l50 6v-6l5 6h12l16 -11l55 5
l61 -11l117 6v-6l5 6h6l5 -6h6l5 6h6l5 -6h6l5 6h6l5 -6l28 6h67l11 -11l5 5h6l5 -5h6q0 13 22 16l72 -5l33 11h39l11 -11q24 15 116 27v-5q189 27 310 66v11h-6l-22 -11l-5 6v5q55 22 55 45l22 16l17 -16v-6q0 -13 -44 -28l-12 -16h6l77 55l12 -11q-17 -15 -17 -44l-17 -11
l6 -6v-16q0 -16 -89 -45h-11l-5 6h-6l-11 -11l-5 5h-6l-33 -11l-6 6v5l6 6h-17v-22h-11v5l6 6v5h-6q-50 -4 -50 -16l6 -6l-6 -5h-5v16l-166 -22l-6 6h-5l-33 -11l-39 11q0 -14 -56 -17l-33 11q-15 -11 -72 -17l-16 12l-6 -6h-5l-6 6h-5l-11 -12h-189q-83 0 -83 12l-5 -6h-39
q-66 0 -66 11l-6 -5h-44q-39 0 -39 11l-5 -6h-50l-11 11l-28 -5h-28l-11 11l-16 -6l-83 11l-6 -5h-5l-28 11l-6 -6h-5q0 13 -150 22l-16 17l-6 -6h-44l-17 11l-5 -5l-105 22l-6 6l-5 -6l-133 28l-6 -6q-90 22 -254 22q-288 -673 -288 -808l-5 -49l-6 -17h-6l6 -6v-27l-6 -28
q19 0 23 -39h5l22 11q15 0 28 -27l160 16v-5q40 11 128 11v5l-6 17q0 33 127 33l17 -11l6 6h27l22 -22v-12q-9 -22 -33 -22v-11l6 6h22l11 -11v-6l-11 -11q-28 0 -28 11l-16 -5l5 -28l-16 -11l-61 5l-45 -11l-5 28l-17 -11l-27 6v11h16v5h-22q-28 0 -28 -22h-55v11h28v6h-22
l-122 -11l5 -6v-6l-5 -5h-17v11h11v6h-55v-6l5 -6v-5q-9 -39 -22 -39h-11l-16 11q0 -21 -34 -44h-5l-33 39q-17 5 -17 33h-77l-28 -6l6 -5v-6l-6 -5h-22v5l5 6v5h-11l-66 -5l5 -6v-11l-188 6v-5h99v-11h-5l-177 -11q-11 27 -39 38v11q6 23 22 23l-5 5v22l11 11l199 -16v-6
l5 6v-17v-5l62 10l5 -5l205 16l-5 6v16q0 11 16 11l-5 56h11v27l-6 28q22 0 22 72l-5 6q9 0 27 66h-5q57 197 166 465l-6 5l17 22l-6 6q12 0 34 78l5 5h6l-6 17l39 121l-6 -5h-11l-22 5l-22 -5h-11l-6 5l-5 -5h-11v5l-233 -16l6 -6v-5l-6 -6h-22v11h17v6h-17l-38 -6l5 -5v-6
l-5 -5h-6l-11 11l6 5h-6l-28 -5l6 -6v-5l-6 -6h-27v11h16v6h-27l-6 -6h-5l5 -5v-6l-11 -11h-28l-11 11l6 6h-17l6 -6v-5l-61 -17l-6 -6l-22 6l-33 -11l-6 5h-5q0 -11 -89 -27q-80 -50 -116 -50q-3 33 -22 33v17q0 14 22 16v11q-22 0 -22 17v22q0 11 33 22l6 -5h5l83 16v-5
l67 16v-5l5 5h22l17 -11q0 17 11 17h6l22 -17q8 23 16 23h11v-12l-5 -5v-6h5l6 6h5l23 -6l5 6v5h-11l11 12l6 -17h27l34 5l5 -5h6q0 15 337 28h150q25 149 38 149zM607 1007h22v-11h-22v11zM3180 996v-6l-11 -11l-6 6v5l6 6h11zM817 -11h17v-12h-17v12zM546 -34h17l-12 -11
h-5v11zM313 -55h17v-11h-17v11z" />
    <glyph glyph-name="J" unicode="J" horiz-adv-x="790" 
d="M1100 1539l34 -15l31 -22l30 -7l9 -25l-7 -17q-8 -16 -31 -6q-5 -11 12 -19l3 -8l-3 -6q-50 -20 -67 -57l-9 -3l-5 2q-103 -428 -411 -1290l-72 -170q-179 -383 -550 -359l-111 11l-14 14l-16 -6l-15 13l-16 -6l-6 3q-11 5 -3 22l-11 5l3 -8l-3 -6l-22 -3l-28 13l3 6
q5 11 22 3l2 6l-5 2q-37 10 -47 -12l-59 20l3 6l-8 -3l-6 3l-11 19l-26 4q-81 45 -65 79l-9 25l5 11q5 11 22 3l8 3l3 6q-23 10 -12 33q20 43 107 11l63 -43l16 6l17 -8l6 -16l8 3l45 -21l17 -22l20 -2l3 -8l-3 -6l-19 -11l6 -17l-5 -11l-28 -14l3 -9l6 -2q100 -47 336 -27
q154 53 174 96l-3 8l17 6l-3 8l19 -2l-3 8l3 6q14 -7 51 51l2 20q17 -8 46 54l5 -3l-3 8l3 6l8 3l-3 8l27 42q89 191 201 534l6 -2q2 33 150 469l92 373l-5 3l-6 -11l-11 5l3 6l21 17q-28 13 -4 63q-238 -95 -435 -377l-45 -81l-3 -6l-19 -12l-12 -55l-6 2l3 -8l-16 -34
l-8 -3l-7 -44l-16 -20q8 -6 -10 -139q4 -255 150 -411q39 -32 34 -43l-8 -3l3 -8l-3 -6q-5 -11 -27 -1l3 -8l-3 -5q-5 -12 -22 -4q-67 76 -55 101l2 6l-22 -4l-30 96l-8 -3l-12 6q11 22 -6 30q7 15 -28 129q-12 210 14 266l9 3l2 20l-6 16l8 3l-3 8l26 56l5 26l32 39l-3 8
l6 12l34 59l-3 8l3 5q108 153 201 241l-3 8l94 72q7 13 36 18q20 43 51 51l-3 8l3 6l24 9l3 -8l19 11l-2 8l5 12l8 3l3 5l3 -8l11 -5l5 11l-11 5l76 60q15 34 32 26zM-367 -261l3 -8l5 -3l8 17z" />
    <glyph glyph-name="K" unicode="K" horiz-adv-x="1151" 
d="M1282 1502q90 0 90 -42l-6 -16l6 -32q-16 0 -16 -21q-14 -111 -111 -274q-161 -230 -454 -454q-15 0 -58 -48q-21 0 -95 -69l-6 6h-5q0 -20 -164 -116v-6q330 -82 581 -348q318 -365 502 -497q164 -122 359 -195q120 -33 137 -47l5 5h6l15 -11l6 6h5q32 -7 32 -16l5 5h5
q39 -4 53 -16l16 6l16 -11l5 5h16l31 -10l27 5q0 -11 16 -11l42 6l32 -11h132l79 5l5 -5q5 16 32 16l16 -5l10 10h21l6 -5l5 5h21l5 -5h6l15 16h6l26 -5l11 10h10l16 -10q7 21 48 21l10 -16v-5q0 -13 -53 -16v5l-31 -11h-6l-5 6h-5q0 -16 -21 -16l-21 10q0 -10 -64 -21l-5 6
h-5l-27 -6l-26 6l-5 -6v-5l-53 5l-37 -5v5l-5 -5h-11l-5 5l-6 -5h-42l-21 5l-5 -5l-16 5l-42 -5l-43 11l-21 -6h-5l-11 11l-26 -11l-148 32l-5 -5h-5l-180 58q-100 24 -301 148q-164 116 -375 322l-174 190l5 5l-37 32l-5 -6h-5l-5 6v5l5 5v6q-11 0 -42 36q-16 0 -16 22
q-21 0 -21 15l-6 -5h-10q-9 0 -16 32l-5 -5h-5q-28 44 -106 84v-5l21 -16h-11l-31 26l5 6l-5 5l-5 -5h-11q0 21 -11 21h-5l5 -6v-5h-10l-48 21v6l6 5v5l-27 16h-5v-5l5 -6v-5h-10l-48 16v10h11v6h-11l-5 -6v11l-16 -11q-104 25 -116 37l-5 -5h-6q-10 11 -68 16
q-31 0 -58 -116q-122 -383 -122 -417v-6l27 -5l-16 -105q16 0 16 -11v-11l-16 -15h-6l-15 10h-6q0 -42 -26 -42q-21 0 -21 37l-5 -5h-6l-10 10l5 37l-5 21l37 64l5 15l-5 16l10 11l-5 5q13 0 74 238l84 243q-16 0 -16 26q-52 12 -52 21l-6 -5h-26l-32 5l-42 -10h-26
q-11 0 -11 26q-21 0 -21 11q14 3 26 26l-15 16v10q0 16 63 21q71 -8 74 -21l5 6h5l22 -11l26 5l10 -16l-5 -5v-5h11q0 16 10 16h11l5 -6q35 0 53 85q90 237 121 370l-5 5l11 10l-6 6v5l6 5h5l-5 5v11h10v5l-5 16h5l5 5l-5 16h5q11 0 11 27h-11v5h11v5l-11 11l22 31
q-16 0 -16 11t16 11v26l-11 11h-5q-14 -59 -32 -59q-16 0 -16 37l-5 -5h-11q16 131 53 180l5 5h16q27 -1 27 -11l31 11l22 -26v-11l-6 -26l11 -11v-16l-11 -10l-10 10l-16 -5v-5l10 -16l-5 -5l5 -6v-10l-5 -6l5 -5v-5l-47 -211l-153 -454v-6l5 6h21l-10 -16v-6
q237 96 649 476q167 183 206 306q26 85 26 116l-5 5h-5q0 -31 -16 -31l5 -6v-16l-10 -10h-6q-47 48 -47 63v6l10 26l-5 16q14 79 69 79zM1224 1386v-11l5 -16h5v16zM421 399l11 -11h5l-11 11h-5zM3167 -182h21l21 -5l16 5l5 -5v-6l-5 -5l-6 5l-26 -5h-26v16zM3140 -187l5 -6
v-5l-5 -5h-5l-5 5v5l5 6h5zM3251 -187q95 -15 95 -37h5l16 10l5 -5v-11l-5 6h-5v-6l53 -47q0 16 10 16q27 -15 27 -48l-16 -10l10 -32q-25 -113 -89 -153q-80 -44 -80 -53q-47 -5 -47 -21l-5 5h-6q-132 -58 -327 -105l-26 5v5l21 21h21l5 -5h5q0 13 22 16l15 -6q0 9 37 22
l21 -6q0 13 148 64q222 91 222 200v11q-47 90 -174 90v5l5 5v5h-37v-5h21v-5l-163 -42l-37 -32l-6 5l-21 -37l6 -16l-16 -10h-6q-10 0 -15 32l5 5v5l-5 16h-6v-26h-5q-11 0 -11 15l11 32l-5 26q0 39 105 64v-5l-5 -6v-5h5q113 32 201 32l37 -6h5v6q-21 0 -21 10v6z
M3082 -198l5 -5v-6l-26 -10l-5 5v5zM3399 -246h5l11 -10h-16v10z" />
    <glyph glyph-name="L" unicode="L" horiz-adv-x="1145" 
d="M1773 1913h6l37 -6l18 6q39 -12 43 -31v-12l-6 -25l6 -24q-21 0 -55 -105q-266 -249 -394 -327q-8 -15 -124 -86l-74 -49l-6 6h-6q0 -29 -43 -37l-154 -86q-43 -35 -43 -80q-43 -111 -43 -351l-6 -7v-6l6 -6l-6 -31v-30q0 -338 -198 -586q142 -41 142 -55l6 6h6
q341 -117 727 -197v-6l7 6h6q166 -19 166 -31l43 6h12l19 -12l49 6l31 -12l179 6h24l68 -6q17 10 197 24v-6l308 80q141 58 154 99h-12v12l24 31l-12 31l6 6h6l7 -6l6 24l-13 37l7 7h12q12 0 12 -25l6 -6h13q0 24 12 24t19 -37l-19 -6v-12q19 0 19 -12v-13q-19 -18 -37 -92
q-114 -98 -191 -111q0 12 18 12v7h-6q-100 -44 -283 -74v6l-80 -19l-7 6h-6l-43 -12l-6 6l-86 -12l-25 12l-37 -12h-117q-92 0 -92 12l-7 -6h-6l-6 6l-31 -6h-37l-12 12l-25 -12q-35 4 -55 19l-6 -7v-6l-49 13l-7 -7h-6l-43 13l-6 -6l-68 18l-6 -6h-6q-434 91 -733 203
l-123 31h-7l7 -6v-12h-7l-6 6h-6l6 6v12h-37q-47 -61 -184 -141h-7l-6 6h-6q0 -28 -142 -74l-6 6l-12 -12h-6l-6 6h-7q0 -17 -135 -25q-111 24 -111 123l18 43l-6 25q0 25 31 25l6 6l6 -6v-6q47 43 62 43l-12 12v-12q-19 0 -19 -13h-6l-12 13q44 38 129 61l6 -6v-6
q-70 -21 -74 -37h7q81 43 252 43h12l25 -6l6 6h6q50 -4 50 -12l6 6h18l6 -6l7 6q80 -9 80 -19q86 76 141 204l-6 6q31 18 31 43l-6 6l12 13l-6 6q14 0 18 30h-12l12 19l-6 6l13 12l-7 19h13v6l-6 31q16 0 30 98l-6 7l13 92l-7 6v6l7 19l-19 6v12h6l6 -6h7v6l-7 6l7 31v56
l-7 24q13 0 25 173l-6 18h12v6l-6 7v6l12 12l-6 6v6l13 13l-7 6l13 12l-6 6h-7q-178 -92 -295 -92h-19q-27 0 -68 49l7 19l-7 18q17 0 25 37h6l31 -6l31 6l18 -12l25 12l25 -6l43 12v-6l49 13l6 -7l6 7v6l31 -19l130 62q67 138 234 320q363 326 523 370v6h-18
q-26 -19 -50 -19v7l87 49l18 -6zM1046 1217h6q184 97 376 234q151 106 332 290q-18 0 -18 12l12 12h12v-12l13 12v6h-13v6l13 19h-6q-42 0 -222 -80q-27 0 -160 -99l-93 -86q-195 -193 -252 -314zM1729 1734l7 -6v-6l-7 -6h-6l-6 6v6l6 6h6zM842 1143h6v-6l-12 -12h-6v6z
M325 90l6 -7v-6l-6 -6h-6l-6 6v6l6 7h6zM368 90h25v-13h-25v13zM405 90h37v-13h-6l-6 6l-7 -6h-18v13zM380 22l6 -6v-6l-12 -13h-18l-6 6h-7q0 -10 -104 -30l-68 -37q0 -19 -25 -19v-6q22 -49 56 -49v-13h-31v-6l49 -6l6 6h6l7 -6h6q49 6 49 19l-12 12h18l6 -19
q114 15 308 142v6h-24l-6 -6h-7l-6 6v6l6 7v6l-43 6h-30v-6h30v-13h-6l-61 -6l-7 25h-80zM602 16l12 -13h7v13h-19zM78 -120l-6 -18h13v18h-7z" />
    <glyph glyph-name="M" unicode="M" horiz-adv-x="2100" 
d="M2468 1693l6 -6l6 6h5l17 -17l6 6h22l17 -17q0 -20 -23 -45v-5l17 11l11 -11v-6q-85 -58 -106 -140q-133 -271 -201 -458q-15 -2 -23 -28l6 -6v-5q-30 -102 -61 -146l-17 -56l5 -5v-6l-28 -72l-28 -84l6 -23q-30 -117 -39 -117l5 -6v-11l-11 -11l6 -6q-7 -46 -22 -67
l5 -5v-6q0 -24 -22 -56l5 -5h6q-17 -82 -28 -241v-45q0 -106 34 -206v-6l-17 -17l5 -5v-6l-11 -11h-5l-23 28q-28 0 -28 72h11v-11h6v6l-11 84l5 5v6l-5 22v17l5 6l-5 16q0 127 28 224l-6 6v5q11 56 23 56l-6 39l17 39l-6 6v6q19 78 28 78l-5 5v6q24 106 50 157l5 28l-5 16
q11 0 22 34l-5 5v6q50 114 61 190q22 78 45 78v23l-6 5q51 146 157 381l-6 5q15 15 73 196l6 6l-6 22q18 67 33 67zM1378 1564h22l12 -11l28 11q25 -10 28 -22v-6l-6 -39l11 -11v-11l-11 -11l-11 11l-11 -11l5 -6l-11 -61l17 11h5l17 -17l-5 -39l11 -11v-11q-22 0 -39 -34
l11 -11v-6q-24 0 -123 -531q-51 -330 -51 -408v-17h6q0 17 39 56q3 22 17 22l17 -5q76 128 140 190l139 168q52 40 56 67q23 0 51 56q14 0 151 151l134 134l302 285q13 0 39 28l5 -6h6l-313 -296l-336 -347q-14 0 -16 -28q-12 0 -79 -78q-7 -26 -56 -67l-72 -101
q-93 -126 -202 -335h-5l-28 17v-107q0 -186 61 -257l17 11l23 -16v-12l5 6h6l22 -6l39 28h6l17 -16l33 11l11 -23l-39 -55l6 -6h5q-25 -45 -56 -45l-39 6l-5 -6h-6q-43 0 -117 118v11l5 -6h6v6l-34 123h-11v5l17 6l-11 45h5l-5 5v218h-11v6q16 0 16 28v45l-5 5q11 0 22 157
l-5 5h11v28l-6 6v6q13 0 34 190l16 67h-5l17 72l-6 6q11 0 28 117l-6 28l12 12l-12 11l17 67l6 -6h5v11l-16 6q-69 -157 -79 -157l6 -5v-6l-22 -22l5 -6v-5l-123 -218q-15 -6 -156 -230q-57 -66 -135 -184q-101 -132 -128 -134q0 -32 -106 -129q-43 -51 -107 -101
q0 -16 -67 -55l-39 -40l-17 6v-11l-5 5h-6q-18 -19 -89 -44l5 -6v-5l-50 -28l-17 5q0 -17 -61 -17q-129 40 -129 168l11 28l-11 34q26 72 62 72h5l17 -11l28 11q56 -24 56 -123q-20 -44 -39 -44l-17 5v-5q0 -28 28 -28q0 -9 22 -17l17 5q0 -11 17 -11l5 -5v-6
q108 14 369 252q95 111 112 111q0 22 45 56l78 95q84 97 146 196q120 164 156 246q56 80 56 106q69 91 151 330l-6 6l12 11l-6 6l11 11l-5 5l11 12l-6 5l11 11l-5 17h11l-6 6q4 33 12 33l-6 6l11 78l-5 6h-6l6 28v5h-6l-17 -11l-5 6l33 44q-28 0 -28 23q8 23 28 33zM142 -68
l12 -11l5 5v11zM47 -107v-28h6v28h-6zM2032 -147h6l17 -16v-12h-17zM1512 -186h6l-22 -22v6z" />
    <glyph glyph-name="N" unicode="N" horiz-adv-x="1245" 
d="M1660 1865h7l20 -20v-13l-7 -7v-6l7 -7h13v7l-7 20l27 19l19 -19v-20l-6 -27l13 -26l-7 -7l-6 7h-13v-72q0 -33 -14 -33l7 -7v-7q-86 -261 -191 -455l-152 -283q-178 -352 -264 -699v-7l7 -6v-7q-20 -114 -66 -198q131 -217 343 -336q48 -40 132 -73v-13h13
q152 -36 152 -53l6 7h13l20 -13l26 6q2 -31 363 -39q140 6 178 20l7 -7v-7q262 47 330 86q194 52 237 112h-13q0 20 -46 33v7l6 6v7l-33 7l-26 -7l6 -7v-6l-13 -13h-20l-6 6h-7q0 -33 -26 -33l-7 7h-6l-20 -13l7 -20l-20 -13h-13l-47 52l-6 7v7q0 16 26 19v14q-26 0 -26 19
v27q0 15 33 20q105 -7 105 -33l60 13v-7l59 7l-7 6v14h27q13 0 13 -20l7 6h13l-7 -6q53 -58 53 -86v-7q0 -96 -152 -131l-6 6q-103 -39 -244 -66l-7 -6l-7 6l-79 -20v7l-59 -20l-33 7l-59 -20l-33 7l-152 -7h-20l-6 7l-7 -7h-26l-271 13l-6 7v6l-7 -6h-26l-13 13l-7 -7h-7
q-201 29 -461 218q-84 76 -99 106q-23 0 -106 125q-43 28 -105 178q-34 42 -66 125l-7 7l7 6v7q-9 0 -33 86q-22 15 -53 145h7l-79 264q-20 0 -53 -126q-112 -221 -567 -765q-133 -172 -178 -270h-7q-11 0 -20 46l-6 -7h-14q18 43 33 47l-6 33l20 19h6v-13l449 561
q133 173 191 277l-7 19l7 -6h6l20 39l-13 14q22 0 53 138v59l-7 40l13 40l-6 19q0 27 33 27l6 33q-66 198 -131 349q-27 11 -66 79q-135 132 -192 132q-52 31 -125 40v6l7 7v7l-47 6h-33v-6h53v-14h-66v20l-33 -6l7 -7v-13l-26 -7v7q-244 -83 -244 -317l26 -99h7v27
q32 -19 32 -40l7 7h20l13 -13v-14l-7 -6v-7q80 -19 80 -79l-27 -20l7 -6v-7l-13 -13l-14 46h-6l-7 -7h-6l6 -6v-7l-13 -13q-81 0 -105 66q-20 0 -40 73l7 26q-14 73 -27 73l-6 -7l-7 7v59h20v6l-13 20q41 143 72 165l7 -6q103 164 303 164h73l39 -6l20 6l7 -6l6 6l13 -13
l7 7q3 -16 112 -60q176 -137 218 -257q105 -269 105 -349l27 -46h6l7 6l13 -20l-7 -33l7 -26l-7 -33q53 -273 93 -356l39 -132v-20q22 0 93 -184q10 0 33 -53h6q46 116 73 231h13l-7 6q13 73 27 73l6 -7l-6 33q6 27 26 27v6l-7 7v6l20 27l-6 20q12 0 39 65l-6 7
q19 21 145 303q37 69 59 80l-7 6v7l211 428l-6 7q11 0 26 40l-6 6q13 0 33 73l-7 6q13 0 13 33h13l-6 20l20 46l-14 13l14 14l6 -7v13h-13v60l-13 52l6 7h7l7 -27h6v14q-4 38 -20 59v13zM-21 1667v-20l-27 -6l-6 6v7zM-101 1628h7v-14h-20zM-140 1608h13v-7q0 -22 -46 -33z
M-15 1588v-7h20l7 7v7h-7zM-199 1542h6v-7l-20 -20v14zM-292 1285v-40h7v40h-7zM-298 1225h13v-19h-13v19zM-193 1146v-6l13 -27h13zM2907 -212h6l27 -20v-13h-7q-26 10 -26 20v13z" />
    <glyph glyph-name="O" unicode="O" horiz-adv-x="1530" 
d="M1163 1296l16 -5l49 5h6l5 -5l6 5h5q141 -25 223 -71q122 -74 201 -195l27 -16h190l11 10l136 -5h21l44 11h5q27 -1 27 -11l98 16q76 -4 76 -16l-11 -11l-5 6q-25 -11 -71 -11h-32l-6 5l-87 -11l-43 6l-22 -6v6l-5 -6h-11l-6 6l-76 -11l-92 5l-22 -5l-5 5h-6l-5 -5l-27 5
l-16 -5l-6 5h-5l-6 -5h-5l-6 5h-5l-5 -5h-6l-16 5v-11q70 -128 70 -260q0 -213 -217 -435q-23 -28 -114 -98q-281 -190 -538 -190h-81l5 -5v-6l-5 -5h-6l-10 11l5 5l-71 11l6 -5v-11h-6l-5 5h-5l5 6v11l-87 16l-11 -11q-16 0 -16 16l-6 6h-5l-16 -6q-11 33 -22 33h-5v-6
q16 0 16 -10l-6 -6h-5q-150 85 -179 169v10l-6 -5h-5l-6 5l6 17q-27 51 -49 163l5 5v6l-5 32v6l5 5l-5 5v6l11 43l-6 6l11 11l-11 10h11v6l-5 5v6q9 0 27 54h5l-5 6v5q166 309 565 511l-11 32l16 33l-5 5v6q7 48 49 48v-5l-11 -16h5q20 24 131 49v-6zM1011 1285v-16h-11v5z
M1169 1258l10 -11l6 6v10zM1098 1247l5 -5v-17l-21 -10h-11v10h-6q0 -21 -11 -21l-10 11q0 -13 -38 -22l10 -16q76 38 174 59v6h-11l-16 -6l-5 6v5l5 6h-16l5 -6v-5l-11 -11h-16l-11 11l16 5l-5 6v5zM1212 1247l11 -11l5 6v5h-16zM1413 1193l-5 -22l16 -16v-6l-11 -10
l-16 32h-6v-5l11 -33l-27 -32h-6q-50 70 -141 70l-54 -11l-5 6h-6l-114 -33v-11q125 -59 364 -92v-6l5 6h6l5 -6l6 6h54l16 -11l103 5h6l5 22q-16 0 -16 22l-5 -5h-11v10l-17 11l6 17h-6q-18 0 -65 43l6 5v6l-6 5h-5l-11 -11l-11 11l11 11l-16 6l-17 -6v6l6 5v5l-27 -5z
M940 1182v-27h6v27h-6zM940 1101q0 -27 -49 -38q0 -17 -43 -17v-11q-27 0 -49 -32l-16 5v-5l-6 -6q-13 0 -16 -21l-5 -6h-6l-16 6q0 -22 -65 -49q-11 -22 -103 -93q-196 -226 -196 -374l5 -6v-5l-5 -6q0 -183 174 -309q33 -35 201 -82l70 -11h87q362 0 690 343
q141 188 141 347q0 126 -81 261h-60q-81 0 -81 11l-33 -11q-65 4 -65 11l-5 -6q-215 27 -278 49h-5v-5l27 -6v-11q-85 22 -190 71z" />
    <glyph glyph-name="P" unicode="P" horiz-adv-x="803" 
d="M566 1450v-6l17 6l74 -6l119 6h6l40 -12l102 6l11 -11l29 5l11 -11h6l39 6q0 -14 193 -29l17 6q0 -13 256 -57l192 -57l17 6q276 -86 341 -187q13 -40 28 -40l-5 -6v-11h11v-11q-35 -170 -159 -170l-6 5l-28 -11l6 -6v-5l-119 -46l-12 11h-5q0 -21 -63 -34l-6 6v6l6 5
l-74 -17v6l-51 -11l-5 5q0 -15 -176 -39l-17 5q0 -11 -46 -17l-5 6h-6l-17 -6l-6 6q0 -15 -153 -40l-23 6q0 -11 -17 -11l-5 5h-6l-6 -5h-5l-17 5l-12 -17l-39 6h-6q-21 -17 -40 -17l-17 6q0 -9 -68 -23l-11 11q0 -11 -46 -17l-5 6h-6l-34 -11h-11l-6 5l-62 -17l-6 6
q0 -11 -40 -17v6l-176 -29v-17h-11l-6 6h-5q-227 -520 -227 -596l28 -40q0 -22 -40 -22l6 -17q-15 -57 -23 -57h-5l-17 17v57h-12l6 -17l-6 -17h-11v73q52 132 68 148l-6 6v5q23 37 108 267q80 157 80 182l-29 -6v6l-5 -6h-34l-35 6l-28 -6l-51 57v11l23 23l-17 34
q0 31 96 39l6 -22l159 22q135 238 176 386q20 20 51 170l-17 17h-6v23q0 13 28 17v6q-22 0 -22 17v28l5 6v6l-5 5h-17l-57 -5v5l-6 -5h-5l-6 5l-80 -11l-5 6h-6l-57 -12l-5 6l-57 -12l-6 6h-5q-64 -6 -80 -17l-6 6l-153 -29l-5 6h-6l-34 -17h-11l-6 6l-221 -97
q-181 -75 -227 -130q-13 0 -29 -23q-139 -91 -198 -267v-28h-12v-6l6 -17l-6 -5l12 -12l-12 -11v-6q20 -90 40 -90l11 11l23 -28l-6 -6h-5l-17 17h-6q73 -74 108 -74l6 6h5l114 -40l28 6l45 -6q20 0 97 46h6l11 -17l40 11l11 -28q-14 -40 -34 -40v-17l28 22l12 -11
q0 -20 -51 -40q-19 -34 -85 -34q-233 41 -233 63q-117 36 -165 125l-5 17h5l-5 17l-6 -6h-6q-28 48 -28 113v6h11v-17l12 -74h5v6l-11 79v17h-11q8 63 28 63l-6 6v5l40 74l-6 6v11q16 0 34 40q166 187 227 187q102 93 295 159l165 39l91 29l17 -6q0 13 90 23l18 -6
q0 12 17 12l22 -6q0 13 204 23zM810 1421l-5 -5v-40l11 -46q-11 0 -11 -17h-17v12h-12v-12q-61 -214 -215 -505q-44 -60 -85 -164l107 11v-5q16 11 80 17l6 -6h5l17 11l29 -5h11q19 0 40 17l5 -6h6l62 17l17 -6l12 12l23 -6l34 11l11 -11l11 17q34 -4 34 -11q34 13 34 22
l40 -11q0 11 40 23l11 -12l17 17l6 -5h5q0 13 86 22l5 -5l307 62l22 -6q19 16 278 86q135 56 142 79l-17 6l51 68q-11 26 -62 79v6l5 6v5q-13 0 -68 46l-238 102l-6 -6h-11l-96 34v6l-6 -6q-170 36 -176 45l-6 -5q-45 3 -45 11l-6 -6h-17l-17 12l-5 -6h-6q-52 6 -74 23
q0 -12 -17 -12l-28 12l-6 -6h-6l-68 17l-5 -6h-6l-6 6h-5l-23 -6l-23 12l-28 -6q-34 0 -34 12l-6 -6h-51l-11 11l-17 -5zM345 678l6 -6v-5l-11 -12l-6 6h-6q0 -11 -17 -11v-6h12v-6l17 6l22 -6l51 6h17l23 51h-11zM226 -77h11v-17h-11v17z" />
    <glyph glyph-name="Q" unicode="Q" horiz-adv-x="1825" 
d="M1302 1266l29 -6h82l6 -6h6v12h11v-12h6l18 12l11 -12l6 6h6l64 -35l24 12l12 -18v-6h-12v-6l12 -11v17h11l47 -52l-6 -18l6 -29q-29 -62 -29 -88q178 -106 275 -281q41 -107 41 -140h-6l6 -6v-6q0 -177 -141 -298q0 -15 -123 -106l-23 -6q-17 -14 -17 -29h-6l-6 6h-6
q0 -23 -18 -23l-5 6h-6q-3 -20 -70 -41q-22 -24 -41 -24v-6q171 -29 362 -87q19 0 47 -24l24 6q0 -12 29 -12l6 -6v-5l6 5h5l252 -81q76 -26 76 -41h6l6 5h6q1 -10 128 -46q73 -32 76 -47l18 6q44 -16 47 -30l6 6h5l36 -23l5 6h6q158 -68 158 -76l6 5h6q16 -15 76 -29
q23 -30 117 -47q10 -24 211 -87q35 -26 146 -59v-6l6 6h6l99 -47l6 6h6l234 -88v-5l6 5h6l52 -17l18 6q0 -13 64 -30l6 6h6l123 -41l6 6h5l36 -12v-5l5 5h6q106 -19 106 -29l5 6h6l18 -12l6 6h6q93 -11 93 -23l6 6h18l11 -12l6 6q94 -4 94 -18l6 6h64l6 -6l6 6l29 -6h29
q327 0 427 135h-5l-6 -6h-6v6q41 26 41 99l-6 24h12v11l-6 -5h-6q-28 92 -152 187q0 35 29 58q157 -118 187 -234l12 -11q-20 -127 -70 -194q-101 -87 -199 -99l-6 -6h-6l-6 6v6l6 6q-66 -18 -170 -18h-122l-24 6l-6 -6h-6l-58 12l-18 -6l-82 18l-5 -6h-6l-24 11l-5 -5h-6
l-59 17l-6 -6h-6q-23 9 -23 18l-6 -6h-6q-316 65 -316 82v6l-5 -6h-6q-74 14 -129 47l-6 -6h-6l-82 29v6h-11q-52 0 -305 105l-158 59l-82 29l-5 6q-47 18 -47 29l-6 -6h-6q-26 0 -88 41q-41 0 -181 70l-6 6v6l-6 -6h-6q-426 170 -614 229q-196 76 -445 128q-46 18 -240 47
q0 -17 -41 -17q-412 -170 -778 -170h-82v-6h24v-12l-6 6l-6 -6h-29v6l6 6v6l-129 23l6 -6v-11h-6l-6 6h-6l6 5v12h-18l6 -6v-6l-6 -5h-5q-228 93 -252 181q-23 0 -23 17l5 6v6l-17 6v6l6 6l-41 134l6 30q0 35 -18 35v6h12v40l-6 6q17 24 23 76l-6 6l71 152q223 402 848 615
q95 35 316 64v-6zM1220 1213l6 -6v-11h-24v6l6 5v6h-12l-17 -6l6 -5v-12h-24v12h12l-6 5v6l-23 -11l6 -6v-12h-24v6l6 6v6h-6l-23 -6l6 -6v-6l-6 -6h-6l-12 12h12v6h-6l-41 -12l6 -6v-6l-6 -5h-12v5l6 6v6h-6l-99 -29l6 -6v-6l-29 6q-264 -92 -264 -123l-6 6h-5
q-18 0 -18 -18q-53 -8 -53 -35h-6l-5 6h-6l-35 -35l-6 6h-6q-18 -15 -18 -29h-5l-6 5q-18 0 -18 -23q-26 0 -123 -99q-39 0 -193 -211q-99 -175 -99 -334q0 -162 187 -292q154 -76 292 -76h100q276 0 679 146l23 6q0 16 -117 23l6 -6v-11h-6l-6 6h-6l6 5v12h-35v-6h12v-11
h-24v5l6 6v6l-6 6h-46v-6h17v-12h-17l-12 12l6 6l-53 6h-17v-6h23v-12h-47l-6 24l-6 -6l-29 6h-17v-6h23v-12l-29 -6h-29l-12 12l6 6v6h-112v-6h82v-6l-29 -6h-47l-17 -12h-70l-94 -29l-29 41q10 29 29 29q0 12 -18 12l-5 6v18q0 23 70 23l99 -12l12 12h53l70 -6v-12h-18v-5
q182 -6 264 -24l5 6l240 -41q227 106 398 275l65 105h5l-5 6v12h11l-6 6v6l12 11l-12 47v6h12v-12h6v30h-18v11l12 12l6 -6v6q0 58 -64 146l5 18h-5l-82 93q-90 86 -135 106l-6 6h-11q-113 -134 -264 -205q-193 -110 -550 -252l-41 -6q-23 9 -23 18l6 6v6q-30 0 -30 17
q13 24 30 24l-18 23q0 29 164 58q276 103 433 188v-12q0 -14 -41 -18q0 -15 -129 -64l-17 -17h11q254 113 393 228v6h-12q0 -14 -29 -18v6l46 53q-61 22 -93 70v17l11 18l-11 23l23 47q-70 4 -70 18l6 5v6l-35 6h-24v-6l41 -6v-11h-47l-70 6v11h47l-6 6v6zM997 1167v-12
l-17 -6l-6 6v6zM1512 1137l35 -47l-17 -5v-6l23 -12v23q0 32 -23 47h-18zM1436 1096v-17h12l-6 17h-6zM1436 927v-6l-17 -18h-18v6q6 18 35 18zM1378 892h6q0 -11 -59 -41h-12v5q40 36 65 36zM1068 728v-12l17 6v6h-17zM974 675h6l76 35v6h-6q-76 -31 -76 -41zM787 148v-5
h41v5h-41zM845 148v-5h35v5h-35zM377 -132l29 -6v-12l-29 6v12z" />
    <glyph glyph-name="R" unicode="R" horiz-adv-x="1283" 
d="M215 1247h110l16 -5l4 5l55 -10l27 5l16 -11l32 6l15 -11l16 5l16 -10l20 5l19 -10l4 5h4q36 -4 36 -16l4 6q56 -11 63 -21l4 5h4l264 -94q348 -209 348 -408q-37 -135 -83 -135q0 -10 -67 -36l-4 5h-4l-11 -5v10h-8v-16l-12 11l-167 -30h-122l-4 5l-4 -5h-4l-40 5
l-23 -5l-4 5h-4l-4 -5l-20 5h-67l-23 5l-16 -5v5l-28 -5v-5q196 -58 323 -183q136 -138 209 -234q130 -171 256 -282q77 -90 197 -182q79 -58 79 -73l4 5h4q58 -35 71 -57l12 5q29 -19 31 -31l12 5q34 -26 185 -88v-6l4 6h4l79 -32h35l12 -10l20 5l8 -10l20 5l11 -11l20 6h4
l8 -11q317 0 382 104l12 32l-4 15q15 0 20 73l4 6v10l-4 -5h-8q0 54 -59 109q-63 47 -118 47l-24 -10l-4 5v5l4 26l-4 -5h-16v5q0 11 16 11l4 26l-12 15v5q0 11 12 11q51 0 98 -31l4 5l4 -5l12 -6v-5l4 5h4q20 -6 20 -15v-5h-8v-11q36 -7 90 -115l12 11l8 -21v-10h-4
q-8 0 -8 15h-4v-10l20 -68l4 -5q-35 -146 -67 -167q-24 -26 -87 -57l-4 5v5h12v5h-8q0 -10 -161 -36l-20 5h-20l-31 -5l-71 10l-16 -5l-16 11l-4 -6h-4q-23 6 -23 16l-4 -5h-16l-8 10l-12 -5q-31 3 -31 16l-20 -6h-4l-4 6l-4 -6h-4q-119 44 -216 94l-103 63q-35 15 -67 47
q-25 0 -236 198l-99 93l-303 350l-4 -6q0 19 -16 26v-5l4 -5h-4q-7 0 -12 26l-4 -5h-7q0 25 -20 36l-12 -5q0 30 -71 78l-8 11h-4l-4 -5h-4q0 10 -15 10v10l4 -5h4v11l-28 15l-8 -10q-25 13 -28 26h12v5h-8l-4 5l-3 -5v-10h-4l-63 41l4 6l-4 5h-8l4 -5v-6l-4 -5h-4l-75 26
l-12 -5l-8 10l-12 -5l-4 5v6l-4 -6h-7l-12 16l4 5l-24 5h-4v-5q16 0 16 -10v-5h-20q-20 0 -20 10l-47 -10l-4 5v5l-27 -5h-28q-9 0 -63 -282l-16 -114l4 -47l-4 -5h-4q0 -21 36 -21l8 -16q0 -31 -20 -31v-11h4l20 6l4 -6v-5l-12 -15h-4l-16 15q-6 -47 -16 -47h-15l-16 32
q-12 0 -12 10v31h8q0 -26 8 -26v5q-5 32 -16 32v26h8v26l-8 15v6l12 15l-4 26l12 21l-4 5q8 0 19 94l-4 5q9 0 12 53l-4 5l8 10l-4 5v6l20 52l-4 15l16 42l-4 5l20 58q-28 0 -28 10v5l4 5v6q-21 0 -32 20q-31 0 -31 16l4 5v6q-20 0 -20 10l20 31q-16 0 -16 16l4 5l-4 5v11
l12 15q79 -11 79 -31l4 5h11l4 -5h4q20 25 20 47l-4 5l8 11l-4 5v5l4 5v5l-4 6v5q0 15 12 15v27l-4 5v5h8v5l-8 16l12 5l-4 5v5l8 26l-8 11v5h12v5l-8 16v5q0 11 12 11v5l-8 15l15 271l4 6h8q8 0 8 -16l4 -5h4q0 21 8 21h8l12 -16v-5l-4 -37q11 0 11 -10q0 -8 -15 -16l4 -5
v-16l-16 -15v-11l8 -41l-12 -16l4 -16l-55 -354l4 -16l-4 -5q33 0 71 -15l201 -6l4 -5h4l3 5l20 -5h114l4 -5l4 5h4l4 -5l4 5h8l4 -5l4 5h8l4 -5l4 5h8l3 -5l4 5h8l4 -5l12 5l4 -5h4l4 5h4l4 -5l19 5q120 0 171.5 23.5t114.5 84.5v16l-12 -10h-4v5l24 41v11
q-71 253 -341 381q-47 11 -47 27l-4 -6h-4l-181 63v5l-4 -5h-4l-170 36v6l-11 -11q-23 3 -36 16l-12 -11q-35 7 -35 16l-43 -10l-20 5h-75l-16 -5l-4 5h-4l-4 -5h-4l-11 5l-4 -5h-4l-12 5l-28 -11l-15 6l-28 -11l-4 5h-4l-47 -15v5q-183 -57 -284 -120l4 -5v-5l-4 -6h-4v11
h-4q-31 -20 -31 -37h-4l-4 6h-4l-4 -16l-4 5l-12 -5l4 -5v-11h-4l-4 6h-4q0 -16 -27 -37l-4 5h-4l-55 -78q-35 -44 -40 -94l4 -5v-10l-4 -6v-5q9 0 12 -26l-4 -5h-4l-4 5h-4v-5l12 -16l12 11q8 0 16 -31h-4l-4 5h-8v-5l43 -27l4 6h4l44 -32l3 6q0 -9 28 -21v-5l4 5h4
q27 -5 27 -16l-3 -5h7l4 -5l12 15l32 -10l15 5l8 -10l24 5l12 -10l47 10l16 -5l20 10l15 -10l24 5l12 -16v-15l-8 -16l8 -16v-5q0 -10 -24 -10l4 -5v-11l-8 -10h-47l-12 10h-4q-130 7 -130 26l-4 -5h-12l-11 10l-12 -5q-1 9 -95 42q-122 73 -122 172q20 130 39 130l4 -5
l12 21v5l-4 -5h-4v10l8 11h4v-11q137 195 445 287l111 21l4 -6h4l23 11h4l16 -5zM-388 981v-5l-8 -10l-4 5v5l4 5h8zM-467 778v-26h8l-4 26h-4zM1205 641l8 -10l-16 -10h-3v5zM337 575v-5l27 -6v11h-27zM546 507l7 -10h16l-8 10h-15zM408 471v-6h27v6h-27zM479 465v-5h15v5
h-15zM589 450l8 -11h4l-8 11h-4zM628 439l8 -10h4l-8 10h-4zM648 429v-5l20 -5q0 10 -12 10h-8z" />
    <glyph glyph-name="S" unicode="S" horiz-adv-x="2203" 
d="M1185 1305l10 -11l-5 -5l-1 -6l28 -1l-5 6v5l6 5h5l5 -6h6l5 5h6l64 -25l6 5l6 -1q107 -46 128 -66q53 -37 49 -107l-6 -5h-5l-10 22l-11 1l9 -44l-1 -6l-23 -21l-5 1q-99 133 -200 153l-22 12l-22 -5l-32 13l-66 3l-10 12v5h11v5h-5l-39 -3l6 -6l-1 -5l-11 -11l-11 1
q-11 0 -10 17l-17 1l6 -6l-1 -11h-5l-83 -6l1 11l11 -1v5l-17 1l-5 -5l-1 -5l6 -6l-28 -10l-5 6v6l6 5h-6l-22 -4v-6h11l-1 -11l-111 -27l1 11l-12 -11l5 -6q-89 -30 -192 -121h-6v-5q32 -51 58 -53l-1 -16l-17 1v-6q80 -31 619 -114l16 -12l5 6l11 -1l33 -13l22 5l10 -12
l17 5q173 -38 173 -47l5 5h6q235 -59 408 -158q163 -107 213 -236q15 -89 23 -89l-14 -54l5 -6v-5q-27 -118 -138 -234q-96 -82 -147 -86l-1 -16h-6l-5 6h-5l-1 -11h-5l-5 6h-6l-17 -15v5q-56 -17 -56 -30l-5 6h-6q-119 -37 -305 -66l-5 6l-99 -17l-6 6h-5l-33 -9l-16 6
l-39 -3l-5 5l-6 1l-16 -5l-5 6l-12 -11l-33 2l-21 7l-34 -10l-32 2l-22 7l-6 -6l-5 1l-5 5l-6 1l-6 -5l-27 6l-22 -4l-5 6h-6l-5 -5l-16 6l-132 2l-27 1l-16 12l-55 -3l-54 14l-22 -10l-174 36l-6 -5h-5l-135 35l-16 6v6l-6 -6q-72 21 -150 58l-6 -6v11l-5 1l-1 -11l6 -6h-6
q-11 1 -10 23l-5 5l-5 1l-6 -6l-5 6h-6l-16 -4q0 12 -38 24l-62 63l-20 45l11 -1v-10l5 -1v6l-4 27l-5 -5h-6l-5 6v6q10 43 19 42l-5 6v6q2 33 41 58h6l-1 -11l-5 -6l-1 -5h6q75 89 338 75q38 -9 37 -23l-17 -16l-82 4l-28 -4l5 -6v-10l-38 2v10h17v5l-33 2q-15 -27 -62 -24
q-121 -46 -136 -103q-7 -121 399 -229q49 -8 65 -20l22 5l5 -6v-5l5 5l22 -1l11 -12l5 5l33 -1l16 -12l49 3q0 -11 16 -12l72 2l10 -12l88 1l5 -6h5l6 5h6l108 -22l17 5l-1 -6l6 5l55 -2l5 -6l61 13q27 -1 27 -12l28 15l5 -1q39 -2 60 -14q1 14 23 16l27 -7q0 12 66 13
l16 -6q1 8 221 37q356 81 474 261l25 54l-5 5v6l6 16h6l5 -6h5l1 5l-10 33q4 22 18 21l1 28l-5 5l6 6v11q5 88 -146 237q-18 46 -245 144l-307 93l-17 -5l-16 12l-6 -5h-5l-54 19l-17 -4l-21 12l-22 -4l-21 12l-17 -5q-38 6 -38 13l-6 -5l-407 65l5 -6l-1 -11h-5l-10 12l5 5
l-27 7h-5l5 -6v-5l-6 -5h-11l-10 12l5 5l-5 6l-22 1l6 -6l-1 -6l-11 -10h-6l-15 12l-6 -5q-141 32 -140 62l-30 40q2 38 13 38l-6 5l1 6q2 37 59 79l-1 -5l-6 -17q220 164 453 180l127 10l21 -7l28 -1l-6 5l1 6zM1133 1248v-6l27 -1v5zM990 1244l-6 -5v-6h6l16 5l1 5z
M951 1235v-5l6 -1l16 5v6h-5zM597 1160l5 -5v-6l-6 -5h-11v6zM508 1028l-2 -38l5 -1l2 39h-5zM188 250v-6h5l17 5v5h-5z" />
    <glyph glyph-name="T" unicode="T" horiz-adv-x="1268" 
d="M1670 1551h11q0 -11 27 -22l6 -27v-50q0 -215 -127 -505l-16 -5l5 -17h39l5 -5h6q0 16 110 16l5 6v5l33 -5q724 55 1180 55h87l22 5l22 -5h319l22 5l5 -5h5l6 5h5l66 -11h17l38 6v-6l6 6h5l17 -11h43l39 5l11 -11l60 6l28 -11l33 5l11 -11l32 6l17 -11l5 5h17l11 -11
l16 6l165 -28v6h5q0 -17 11 -17h6v11h27l22 17h22l17 -11l33 5l27 -27v-16l-11 -17v-5q22 -3 22 -17v-5q-92 -66 -110 -66q-22 0 -22 33q-27 0 -27 16l11 17l-82 27l5 6v11h-22l6 -6v-5l-6 -6h-5q-5 38 -99 38l-11 17l-6 -6h-5q-66 5 -66 17l-27 -6h-11l-11 11l-33 -5
l-61 11l-5 -6h-6l-49 11l-5 -5h-6l-5 5h-6l-27 -5l-66 11l-61 -6l-109 11l-6 -5l-27 5h-269l-532 -11l-6 -5h-5l-6 5l-263 -16v5l-17 -5l-395 -28v6l-60 -16l-22 5l-49 -11l-17 6l-27 -6l-6 6h-5q-77 -7 -77 -55l-55 -94l-77 -137q-12 -4 -49 -77l-60 -76q0 -16 -77 -99
q0 -17 -121 -132q-95 -100 -126 -121q-113 -101 -247 -181q-342 -203 -571 -203l-33 6l-27 -6v-5h11v-11h-17l-11 11l6 5l-33 6h-5v-6h16v-11l-16 -5q-113 33 -138 77l-33 44l6 22l-6 49v11h-16v16h11v-11h5v11l-5 44q11 25 22 28l-6 5v6q11 24 22 27l-5 6v5l33 38l-6 6v16
h6l5 -5h6q108 160 296 236q37 26 165 49l-6 6v5l11 11h50l27 6l5 -6v-5l28 5q121 -15 121 -27l5 5h6q28 -8 54 -33l6 6l11 -17v-22l-11 -16l16 -17l-11 -10l-11 10q0 -37 -21 -54q-95 81 -198 87l-5 6h-44l-44 -11l-6 5h-5l-121 -33l-5 6l-143 -82q-177 -135 -198 -275v-38
q0 -54 50 -82v11q29 -61 120 -61l33 -11q264 0 631 225q165 104 231 181q53 29 214 214q27 19 44 55q167 211 236 373l38 77h-5l-6 -5h-5l-28 5l-66 -11l-16 6l-17 -6l-5 6l-11 -11h-44l-5 5l-55 -16l-17 5l-27 -11l-6 6l-71 -11v5l-6 -5h-38l-38 5l-11 -11h-11l-39 6v-11
h11v-6q-53 -11 -148 -11h-22l-22 6l-60 -17l-11 11v11l11 17h-6l-27 -6v11l27 33q-27 0 -27 17v21q0 13 71 39q22 -1 22 -11l28 5h5l55 -38l6 5h5q15 -16 44 -16l5 -22h50l49 -5l220 16l27 -5l49 11l44 -6l11 11l55 -5h17l16 10l33 -5h6l43 110q72 216 72 263h-6l11 33l-5 6
v5q16 0 16 93l-5 105h5l-5 5v11zM1000 915h28v-11h-28v11zM1126 854h17v-11h-17v11zM430 410v-6h16l6 6v5h-6zM479 415l-5 -5v-6h16zM353 415l5 -5v-6l-5 -5h-6l-5 5v6l5 5h6zM-130 -90h11v-16h-11v16zM-125 -123h11v-16l-11 11v5zM166 -265h50v-11h-50v11z" />
    <glyph glyph-name="U" unicode="U" horiz-adv-x="1170" 
d="M512 1360h17q12 0 12 -18l18 12h23l12 -12v-23q-35 -34 -35 -53l23 18h6l12 -12q-38 -12 -65 -47q-92 -65 -153 -171q-282 -467 -282 -776l6 -88l-6 -6q10 0 59 -111l47 -36l6 6h6l6 -17l17 11h18v-11h-12v-6h41q123 0 294 129l59 59q56 35 176 182q221 316 235 453
q8 0 18 41l-6 6q10 0 18 29l-6 6q9 0 29 59l-5 6q22 19 64 164h-12v6h18v12h-18v6l12 12l6 -6v11h-12v24l12 35l-6 6v6q8 35 18 35l41 -17l6 5h6l6 -5v-24l-147 -435q-47 -91 -89 -241h-11v-6l-24 -129v-77q24 0 24 -29l-6 -35q10 -141 35 -141l-12 -12v-6l6 6h6v-6l-6 -23
l6 5h6q10 0 65 -94l17 -17v-30l-6 -6v-5l12 -12v-12l-12 -12l-23 12q0 -23 -12 -23l6 -6v-6l-12 -12h-17q-54 34 -77 141q-41 149 -41 200h6l6 -6h6v6l-18 23l6 6h6l-6 18l6 6v6l-6 17l6 6l-12 12l18 24l-6 23l6 6v6l-6 17l6 6h6l-6 6l11 94v6h-5q-56 -103 -194 -235
l-12 -29q-12 0 -65 -71l-53 -47q-23 0 -94 -76q-16 0 -65 -53q-41 0 -58 -36l-18 12h-6q0 -26 -59 -35l-5 -6q-12 0 -12 18h-65q0 -18 -12 -18q-47 0 -111 88q-41 98 -41 135l5 6q-19 0 -29 71q0 210 141 541q84 196 253 441v5h-6v-11l-6 6h-6q45 106 77 123zM277 37h17
l-12 -11h-5v11zM359 -10l-6 -6v-5h6l17 5v6h-17zM329 -27h6l12 11h-6z" />
    <glyph glyph-name="V" unicode="V" horiz-adv-x="493" 
d="M1394 1869q113 0 113 -36l-6 -35l12 -12q-4 -71 -36 -71l-29 12v-6q0 -19 -130 -130l-119 -136q-65 -68 -65 -83q-62 -52 -106 -118l-166 -207q-116 -146 -231 -344q-21 -20 -53 -94q-40 -37 -65 -119q-66 -132 -77 -136l6 -6v-6q-201 -470 -201 -585q-17 0 -30 -60
q82 -153 136 -153q0 -14 71 -30h36q111 0 201 112h-12v12h6l6 -6h6q12 77 29 95q-19 47 -29 47q-11 0 -36 -47h-6l-17 18l5 29l-5 6h-6q0 -17 -12 -17l-6 5v6l24 42q-12 0 -12 18q0 34 41 65q118 0 118 -65l6 -36h-6l-17 12v-6l12 -36q0 -229 -231 -313l-42 -6l-17 6
l-12 -12l-6 6v6l6 6v6l-30 6h-6v-6h18v-6l-12 -12h-6q-45 0 -53 24l-6 -6h-6q-142 101 -142 165q-29 38 -29 71l-6 -6h-12v18l-30 166l6 6l-12 59l12 24q-12 0 -12 17q0 30 12 30l-6 6v12l6 6l-12 23q6 95 18 95l-6 18q6 112 24 112l-6 30v6l12 11l-6 18q19 123 35 142l-6 6
v6q16 89 30 89l-6 6v6l83 384l-6 6q20 0 24 201v42q0 12 -18 12v6h12v17l-12 12l-6 -6q-36 113 -89 113q0 11 -41 11v6l-6 -6h-30l-23 6q-90 0 -231 -130q-8 -33 -41 -59h-6l-24 30h-6l18 47l-6 24q26 47 59 71h18v-6l-6 -6v-6h6q137 106 225 106h35q0 18 12 18
q9 -29 41 -29l24 5l6 -17l6 6h6q91 -67 118 -178l-6 -6l6 -29v-71q0 -184 -112 -586l-6 -6l6 -6v-6q-20 -83 -30 -83l6 -23l-35 -137l5 -23l-11 -12v-6l6 -24l-12 -35l6 -6l-18 -71l6 -24l-12 -124l6 -30l-6 -5v-6q10 -14 24 -148q32 46 77 154l5 5l-5 6q13 11 88 196
q130 290 190 378l29 71q16 0 24 42l124 195l36 47q16 0 23 36l154 207l18 6q0 25 47 71q0 14 24 29q0 17 35 36q0 18 243 308l95 112v6q-24 0 -24 35l18 12l-12 36v23zM-26 1473h12v-12l-100 -54v6q27 33 88 60zM241 -261h17v-6l-11 -12h-6v18zM631 -374h12v-5l-18 -18h-6
v12zM495 -456v-18h-12v6z" />
    <glyph glyph-name="W" unicode="W" horiz-adv-x="2301" 
d="M2784 1493l4 -5l10 -9l24 9q33 -2 49 -106l-15 -10h-10q-9 0 -9 20h-10l-10 -24l5 -15q-26 0 -48 -155l-77 -193q-12 -72 -34 -72l5 -15q-64 -154 -82 -154q0 -15 -20 -34q0 -36 -236 -357l-228 -256q-27 -16 -38 -34l24 -5q34 5 34 29l14 14h15l29 -14q0 14 9 14
q20 -7 20 -14v-19q-41 -37 -44 -78l-29 -9h-48l-14 9l-20 -5l-5 5v5l-4 -5h-5q-22 15 -44 15q-201 -183 -367 -285q-259 -181 -749 -353l-4 5h-5l-78 -24l-4 5h-5l-39 -15l-5 5h-4l-29 -10l-5 5l-53 -10l-5 5h-5l-82 -14l-15 5l-14 -5v5l-5 -5h-10l-4 5h-5l-10 -10h-34l-5 5
l-4 -5l-44 10l-5 -5h-5l-24 9l-5 -4q0 11 -77 19l-5 14l-14 -4q-93 25 -121 43h-5v-10q-8 0 -14 25h-10v4l-5 -4h-5l-9 9l5 5q-20 3 -25 24q-101 92 -101 203v19l10 92h-5q38 138 92 208q90 148 140 183q0 14 77 78q122 120 213 149q19 0 57 20l-4 14q24 6 24 15l24 -5
l14 10h5q11 0 15 -25h34v5h-15v10l29 10l29 -10l24 5l5 -5q0 -10 24 -10l5 -5v-14q-14 0 -14 -10l24 -24v-19q-24 0 -24 -10v-5h-20q-27 20 -72 20h-44l-24 5q0 -8 -101 -29l-102 -49v-5h-9l-5 5h-5q-92 -82 -106 -82q0 -18 -29 -34v-9q-14 0 -39 -44q-13 -2 -29 -34
q-61 -67 -82 -116h-10v-24q-72 -130 -72 -251v-24q0 -154 188 -251q48 -15 87 -39l15 5l58 -19l4 4q44 -5 44 -14l14 5l121 -10l5 5v5l48 -5h29l5 -5h5q0 10 68 19l4 5l20 -5l19 10l29 -5l19 15h5l5 -5h5l5 5v5l14 -5q199 53 478 179q268 123 599 391l73 67
q-121 86 -121 155l-29 92h-5l-5 -5l-4 5v5l4 4h5l5 -4v9l-5 49h5l-14 33v20h4l5 -5h5v14h-10v24l10 10l5 -5v10l-15 5l-265 -295q-56 -55 -140 -164q0 -40 106 -111l19 -5l-5 5v5l5 4h20v-14h-10v-5h43v5q-14 0 -14 10v4l5 -4h4q0 14 10 14l5 -5h5l48 34h5v-14
q-15 0 -53 -34h14q0 12 24 14l25 34h-5l19 48q-82 0 -116 68l15 19l-15 29q25 49 68 49h5q33 -2 33 -10l5 5q68 -12 68 -68l-15 -5l10 -53h-5l5 -5q-56 -188 -130 -188v5l-39 -15q-91 19 -140 73q-30 35 -44 87l-4 -5h-15l-29 19v10l24 29q-9 0 -29 150l10 14l-10 44l5 4v5
l-5 15l10 9l-5 5v5l5 24l-5 49l10 19l-5 29v5l14 19l-9 19l9 24l-4 15h4l5 5q0 101 15 101l-5 24l10 15l-5 19l14 39l-5 5v4l54 285l-5 5q3 29 9 29l-4 5l4 34v19h-9q0 10 14 10v101h-9v5h14l-10 63h-4v-15h-10v10l10 15v4l-5 -4h-10q0 48 -82 48l-68 -19h-19v-10
q-56 0 -227 -222v-15l5 -14h-5l14 -49l-9 -14l-5 5h-10q20 -29 20 -44v-4l-24 -25h-5q-49 40 -49 73v9q0 107 78 179l4 -5v-4q-17 -10 -24 -29h5q80 107 184 173q112 73 149 73l-4 5v14h4l10 -9l-5 -5v-5h24l-4 5v5l9 9h5l24 -19l5 5l39 -53l19 -54l-5 -4l5 -25v-77
q0 -152 -43 -304l4 -5v-5l-14 -48l5 -5v-5q-22 -101 -34 -101l5 -5v-24l-10 -29l5 -19l-10 -25l5 -4v-5l-14 -44l4 -5v-4q-9 -14 -14 -68l5 -5v-5l-10 -29l5 -5v-4l-10 -39l5 -24h-5l5 -5v-5l-14 -67l9 -10v-5l-5 -5l5 -5l-5 -24v-9l10 -34h-5l20 -97h4q0 9 44 39h5v-5
l-20 -29h5q176 180 348 382l-5 4v15l5 5v5q-29 0 -29 9l24 24v5q-19 0 -19 15v19q0 7 53 24q49 44 68 44l24 -10l19 5q24 -7 24 -34l-9 -14v-5l9 -20l-5 -4v-5l5 -20l-53 -29q-19 -101 -19 -169l5 -4h4l-4 -25q0 -106 111 -183q14 0 14 -19l5 4h5l10 -9l9 9h5l5 -4
q51 20 280 289q227 311 227 348q18 0 53 102l53 106h10l-5 5v4q12 44 53 121l-5 5v5q58 192 58 251h-9v34h5l4 -5h5v24l-5 -5h-4l-10 44l14 5v5l-9 14v34q8 19 34 19zM1470 1343l5 -4v-10h-5l-10 10l5 4h5zM977 976l5 -29h5v29h-10zM552 435l5 -5v-4l-20 -5v9zM1846 194
l10 -10v-5h-10v15zM1450 121v-14h-9v5zM2078 73q0 -10 15 -10h9v5zM2204 68q10 0 10 -14l-15 -20h-14q0 26 19 34zM1586 39l4 -5h5v15z" />
    <glyph glyph-name="X" unicode="X" horiz-adv-x="1173" 
d="M351 1408l30 -10l-5 -5v-10h5q65 2 65 10l10 10q50 -8 65 -20l5 5h10q0 -28 40 -50q65 -73 65 -201v-50l5 -20l-5 -20v-5q0 -103 -35 -255l5 -5l-15 -75v-5h5q25 92 246 300l145 120l185 126h25q0 18 50 35q4 10 45 20l5 -5q0 29 226 75h10l5 -5l50 10l15 -5l20 5l15 -5
l5 5q100 -5 100 -20v-10l-15 -15l5 -15l-5 -5h-10q-15 25 -50 25h-15v-5l40 -5v-5l-30 -5v5l-5 -5h-20l-5 5l-5 -5l-35 5h-40v10h35v5h-50l-5 -5h-5l-5 5h-5l-15 -5l5 -5v-5l-5 -5h-5l-5 5v5l5 5h-5q-202 -49 -221 -70q-75 -27 -125 -70q-42 -7 -95 -56q-165 -110 -165 -135
l-30 -10q0 -20 -81 -90l-25 -20q-135 -185 -155 -260l10 -10l-5 -5q-36 0 -55 -226l20 -35l-5 -5v-5l15 -30v-45h-10v10h-15l10 -50q-15 -3 -25 -30l5 -15l-5 -30l35 -180l-10 -10q14 -6 60 -116q103 -145 261 -145q206 0 430 250q50 75 50 101q15 0 15 10l-5 5h-5l10 45
l-10 20l-5 -5l-25 5q-63 0 -80 -45h-5l-5 5h-5l-35 -40h-5l-10 10v10l10 15l-5 5h-5l-15 -10l-5 5v5l20 25l-20 20v10q0 9 60 35q44 40 135 40l20 -10l20 5l36 -40q0 -15 -21 -15l15 -20q-15 -21 -15 -65q-89 -211 -280 -321q0 -20 -35 -20v-10l-5 5h-5q-40 -19 -40 -30
l-5 5h-5q-73 -30 -110 -35v-15h-10v5l5 5v5h-25l-10 -10l5 -5l-5 -5h-25v10h10v5q-82 5 -136 25v-10h-5q-10 0 -10 15l-5 -5h-5q-25 12 -25 25l-5 -5h-5l-30 30l5 5v5l-10 10l-5 -5h-5q-92 128 -95 201l5 5q-22 0 -35 170l5 5v5l-5 5v5l5 5v5l-10 20l5 5v5l-5 5v5l5 5v5
l-5 15l5 5q-25 0 -25 100v60q0 10 15 10v20l-10 10q-13 -57 -120 -155q-44 -73 -256 -250q-21 0 -125 -65q-99 -61 -270 -121q-84 -41 -256 -75q0 -15 -10 -15h-40v10h40v5h-70l5 -5v-10h-5q-55 10 -55 30q-9 0 -10 25l20 10l75 -15h25l35 5v-5q278 50 461 156
q71 12 381 295q60 70 60 80q56 50 120 210l30 146l5 5h10l5 -5h5l30 150l-5 5v5q10 0 20 185h-10v10h5l5 -5h5v15q0 146 -25 146v5h10v5q-5 30 -15 30l-5 -5q-34 90 -100 90l-10 10l-20 -5l-80 5l-10 -10h-5l-5 5h-5l-10 -10h-5l-5 5h-5q0 -9 -111 -40q-65 -30 -65 -85
l-5 -5h-15v15l10 15v5q-14 -8 -40 -71l-5 -5h-5q-15 0 -15 46h-5v-20h-10l-5 15l15 35l-10 15v10q0 45 80 90q0 11 166 55l5 5l10 -10v-5l-5 -5v-5h10l15 5l5 -5l10 15h-10l-15 -5v15zM276 1373v-5h20l5 5v5h-5zM556 1373h5l15 -15v-5h-15zM591 1348l5 -5v-10h-5l-10 10l5 5
h5zM511 281v-25h5v25h-5zM1407 181l10 -10h5v10h-15zM786 -335h15v-10l-15 5v5z" />
    <glyph glyph-name="Y" unicode="Y" horiz-adv-x="559" 
d="M629 1124h15q14 0 14 -23h5q0 14 9 14h9l15 -14q0 -29 -29 -57l10 -10l-10 -23l10 -10l-5 -5v-4l5 -19l-14 -15v-28q0 -103 -105 -460h5q24 0 24 -23l19 14h4q19 -8 19 -33v-10l-4 -5v-4l9 -10l-9 -9l-10 9l-28 -66q-49 -57 -95 -81l-175 -787h4l180 15l19 -10l15 14
l28 -4l28 9l24 -5l10 10h14l5 -5l28 10h5l4 -5l29 9l14 -4l10 9h4l24 -5l10 10h4l24 -5q0 10 14 10l24 -5l9 9h15l4 -4h5l10 9h4l24 -5l9 10l15 -10l23 15h5l24 -5l9 9h5l19 -4l28 9l19 -9l15 14h9l14 -10l10 14l33 -4l38 14l5 -5h4l19 10l24 -5l10 9l23 -4l10 9l4 -5h5
l57 15l10 -10l14 14l19 -4l19 9l23 -5l10 10l28 -5l10 10l19 -10l71 24h5l14 -5l28 10l10 -10l9 14l24 -4q50 4 76 19l23 -5l5 5v4l24 -4l9 9l24 -5l43 15l4 -5h5l19 9l19 -4q71 4 71 18l14 -4q53 3 53 14l18 -5q22 0 43 14l24 -4l5 4v5l23 -5q81 7 81 19l5 -4h4l71 9v-5
l29 15l19 -5l9 9l24 -4l9 9l15 -5q87 10 95 19l28 -4l9 9l29 -5l5 5v5l33 -5h9l33 5l5 -5l14 14l43 -4l10 9l33 -5q23 0 23 10l24 -5h24l9 9l48 -4h4l38 9q24 0 24 -9l5 4h9l5 -4l5 4h9l5 -4l52 14v-5l5 5h5l4 -5h5l19 5l9 -10h57l19 -4l38 9q95 0 95 -14l14 5q39 0 228 -38
l5 5v-10h4v10h10v-15h4v10h10q0 -14 14 -14l14 4v-9l15 9l4 -4l5 4h5q28 -4 28 -14v-5h-9l-14 10v-14q28 0 28 -15v-9l-19 -38h-9l-105 47l-4 -4h-5l-19 9v10h9v4l-28 5l5 -5v-4h-10q0 19 -43 19l-132 28l-14 -5q-57 4 -57 10l-5 -5l-62 14l-4 -4h-5l-5 4h-5l-14 -4v4
l-14 -4l-5 4h-5l-14 -4v4l-42 -9q-38 3 -38 9l-5 -4h-5l-5 4h-4l-5 -4h-5l-5 4l-52 -9l-33 5l-52 -10l-19 5l-33 -10l-24 5l-42 -9l-5 4h-5l-38 -9l-24 5l-4 -5h-5l-5 5h-5l-56 -15l-5 5h-5l-28 -9l-15 4l-9 -9h-5l-23 5l-10 -10l-19 5l-28 -10l-5 5h-5l-28 -9l-5 4l-57 -14
l-24 5l-9 -10h-5l-5 5l-4 -5h-5l-24 5q0 -11 -38 -14l-23 5l-19 -10l-5 5h-5l-42 -14l-15 4l-9 -9h-14l-19 5l-24 -14l-24 4l-9 -9h-10l-4 5l-24 -10l-24 5l-76 -19l-4 5l-24 -10l-33 5l-19 -14l-24 4l-9 -9h-10l-5 5l-28 -10l-19 5l-9 -10h-5l-5 5l-5 -5h-4l-5 5l-33 -14
l-24 5l-10 -10l-18 5l-29 -10h-5l-4 5h-5l-10 -9h-4l-5 4l-14 -4l-5 4h-5l-23 -14l-24 5l-10 -10h-4l-24 5l-10 -9l-19 4l-28 -9l-14 5l-10 -10h-14l-5 5h-4l-10 -10h-5l-4 5h-5l-10 -9l-14 4l-28 -9l-14 5l-10 -10l-24 5l-9 -9h-5l-5 4l-47 -14h-5l-23 5l-10 -10h-5l-23 5
q0 -13 -119 -19v5l-99 -24l-10 10q-16 -15 -71 -15l-5 5q0 -7 -19 -14l-14 5l-19 -10l-14 5l-62 -14l-23 9l-10 -9h-42l-15 -10l-23 10q0 -8 -34 -15l-4 5l-48 -9l-4 4l-53 -9l-4 5q-62 0 -62 -33l-9 -57q14 -23 14 -86v-52l-5 -66l5 -5v-5l-14 -19h-10l-9 10v9l9 15h-14
q-10 -62 -29 -62q-14 0 -14 43l-14 -10l-5 5v5l5 38l-5 14l10 23l-10 29h5l-5 14h-4q0 -14 -10 -14l-5 5v14q0 12 19 14l-19 24v19l19 23v5q-63 68 -95 76l-331 -24v-4h14v-10h-66l-10 10l5 4h-10l-80 5l-14 -5v5l-5 -5h-14l-5 5l-24 -5v-4h33v-10l-19 -5v5l-4 -5h-34l-9 10
l5 5v4l-33 5h-5v-5h9v-9l-23 -5l-5 5v5l-5 -5h-9l-34 14l-4 -5q-133 29 -133 71q-19 0 -19 34l9 14l-4 24v14q38 52 194 80l5 -4v-5l-10 -10h15l23 5v5q-14 0 -14 9l5 5h5q9 0 9 -19h14l24 5v-5l5 5h85q69 0 104 -14l5 4l57 -9q0 14 9 14q0 -9 19 -9v-15h5q0 15 10 15l9 -10
l5 5q0 -10 19 -10v-9l4 5h10v-10l5 5h9v-10l5 5h9v-9l5 4h10q0 -14 56 -33l5 5l14 -14l5 5h10l4 -5l5 5h5l42 -29q0 14 10 14q9 0 9 -19q35 0 76 -33q0 -9 33 -9h43q22 0 81 303l28 95l-5 5v4l10 15l-5 4v5l81 346q-43 -9 -43 -19l-33 5h-5l-19 -5q-75 17 -156 100l-29 52
l10 9q0 38 -19 38v5h9v76q2 75 43 189h-5l24 62l-5 5v9l33 62l-4 4l23 95l-4 5l4 24q0 61 -33 61h-5q-55 -16 -85 -71l-5 5h-4l-5 -5v-5l5 -14l-15 -19l-14 10q-17 -41 -38 -52q-8 0 -14 33h-5v-10h-9v24l14 19l-9 28v10q135 142 180 142q113 0 113 -71l-4 -5v-4l4 -29
q0 -14 -19 -14v-10l10 -14q-137 -375 -137 -460v-37q0 -117 104 -162v-9l5 5h9v-10h5q0 14 9 14l5 -4v-5l-10 -10l34 -4h33q35 0 76 28v5h-5l-14 -10h-10v5q52 25 52 100q9 4 57 184l-4 5v5q20 25 47 156l5 5l-10 10h10l-5 23q14 0 14 24v9l-5 5v5l10 9v5q-14 0 -14 10v14
h14v5l-10 14v33h10v-9h5v18h-10l-5 62l10 90l-5 14zM686 1063l10 -10v-9l-10 -10l-5 15zM549 442l-24 -81l29 29l-10 19l14 4v19zM516 338v-5q19 6 28 24h-9zM435 309l5 -5v-4l-38 -15v15zM-428 -359l10 -10l-5 -4h-5l-9 9l5 5h4zM-598 -411h4l43 14v9q-47 -11 -47 -23z
M-423 -416l5 -5v-5l-10 -9h-4q-94 0 -190 -52q0 -8 24 -14q0 -15 19 -15l23 -23h-14v-10q73 -19 204 -28l436 23q-61 56 -275 105l-9 9l4 14h-23v-4h9v-10h-9l-10 10l5 4l-5 5h-19v-14h-14v5l5 4v5l-24 5h-5v-5h10v-5l-10 -9h-9l-10 9l5 5v5l-61 5l-5 -5h-5l-5 5zM-347 -416
l9 -10l-23 -4h-14l-5 4l-5 -4h-19v9zM-698 -497v-19h10v10zM260 -577h14v9h-5zM-556 -587v-9h19v5zM-518 -596v-5l15 -5h4v5l-14 5h-5zM-304 -610h14v-10h-14v10z" />
    <glyph glyph-name="Z" unicode="Z" horiz-adv-x="1303" 
d="M2227 1160q10 -10 54 -10l10 -15v-14q0 -15 -29 -15v-5q34 0 34 -10v-5l-10 -10h-5l-19 15q-12 -60 -60 -60l-35 -5v-10l10 -15v-10q0 -8 -35 -14l-5 14l-5 -4h-4l4 -5v-15q0 -17 -233 -95l-10 10l-25 -20l-5 5h-4l-189 -69h-15q0 -20 -30 -20q-69 -20 -69 -35
q-44 0 -85 -29l-34 -10l-5 5q-22 -27 -75 -40l-15 5q-29 -35 -59 -35l-5 5q-30 -28 -224 -104q-57 -36 -89 -40l-303 -149v-5h25l15 10l5 -5h5l5 5h5l40 -5l29 10l45 -5l35 10v-5l5 5l29 -5l348 5v-5l15 5v-19l-25 4l-5 5l-15 -5l-183 -5v5l-5 -5h-35l-139 -10l-20 5l-15 -5
v5l-30 -10l-29 5q-22 -10 -70 -10l-5 5h-5l-55 -15l-19 5q-132 -65 -184 -104h-25q0 -20 -30 -20q-17 -22 -89 -49l-30 -25h-10l-5 5h-5q0 -24 -114 -75l-109 -74h40l20 5l5 -5l24 5h149l194 -5l5 -5h5l5 5q153 -15 159 -25l19 5l15 -10l25 5h5l10 -10l25 5l20 -10l15 5
l19 -10l15 5l15 -10l5 5h5q83 -10 90 -20l24 5l5 -5v-5l5 5q44 -3 55 -15h45l14 -9l25 5l5 -5v-5l5 5h5q21 -15 40 -15l20 5l5 -5v-5l5 5h5l19 -10l20 5q0 -10 15 -10l5 5h5l15 -10l5 5h10l15 -10l5 5h5l15 -10l5 5h10l14 -10l15 5l10 -10l20 5l10 -10l5 5h5l99 -25l25 5
q0 -10 20 -10l5 -5v-5l5 5h5l39 -5l20 5q0 -11 55 -15l5 -5v-5l5 5h5l45 -5l19 5l10 -10l25 5q0 -11 60 -15l5 5h5q0 -8 144 -19l5 5h4q66 -20 363 -30h5l5 -5l5 5l25 -5h59l5 -5l5 5h30l69 -5l5 5l25 -5h794l35 10v-5l5 5h20l20 -5l20 5h14l5 -5l5 5h5l5 -5l5 5h5
q40 -3 40 -10l5 5h99l10 10l50 -5h10l34 10q50 -3 50 -10l40 15l49 -5l10 10l5 -5l15 5l30 -5l233 39q179 42 204 75h-20v5q30 21 30 40l24 14q20 0 20 -24l20 14h10l10 -9v-10l-25 -20q0 -30 -15 -30l5 -5v-10q-33 -36 -183 -69l-5 5v5l34 4v5h-5q-59 -7 -59 -29l-10 10
l5 5h-10l-10 -10l5 -5l-5 -5h-5v15l-149 -25v5q0 -9 -164 -15v5l-29 -10h-30l-20 5l-60 -10l-19 5l-20 -5v5l-55 -10l-5 5v5l-49 -10l-20 5l-30 -5v5l-5 -5h-10l-5 5h-5l-10 -10l-188 5l-283 -5l-115 5l-5 -5l-24 5h-55l-20 -5l-20 5h-15l-19 -5l-20 5h-15l-20 -5l-35 5
h-119l-5 5l-5 -5h-5l-5 5h-5l-5 -5h-5l-5 5l-19 -5l-134 5l-5 5h-5l-5 -5h-5l-293 20l-20 -5l-45 10l-29 -5l-40 15q0 -10 -15 -10l-30 10l-5 -5h-5l-35 10l-24 -5l-15 10l-25 -5h-5l-10 10l-25 -5l-10 10l-5 -5h-20l-14 9l-25 -4q0 7 -20 14l-15 -5l-5 5h-5l-5 -5h-5
l-15 10l-5 -5h-20l-24 15l-5 -5h-15l-10 10l-5 -5h-5l-5 5l-5 -5h-20l-10 10l-5 -5h-15l-10 10l-14 -5l-20 10l-5 -5h-5q-149 26 -149 35l-15 -5q-40 3 -40 15l-25 -5l-10 10l-4 -5q-55 5 -55 20l-5 -5h-5l-5 5l-15 -5q-94 12 -94 25l-15 -5q-79 8 -79 19l-5 -4h-5l-55 9
l-5 -5h-5l-30 10l-5 -5h-5l-59 15l-15 -5l-20 10l-5 -5h-5l-35 10l-5 -5h-5l-24 10l-15 -5l-35 10l-5 -5l-40 10l-5 -5l-168 10h-40l-30 5l-5 -5h-5l-15 5l-25 -5l5 -5v-10h-19v10h10l-5 5v5l-5 -5h-5l-5 5l-5 -5h-25q-174 0 -174 -25h-20v10h15v5h-20q-24 0 -29 -25
q-27 0 -50 -24h-15l-10 9v5l5 5v5h-10l-20 -10l-15 5q0 -10 -39 -14l-15 4l-75 -29h-5l-5 5h-5q0 -10 -139 -45l-24 25v10q14 25 29 25v5q-19 0 -19 9v20q0 10 39 10l10 10l25 -5l35 5v-5l30 15l14 -10l5 5h10l5 -15l55 15v-5q94 17 94 25q0 30 30 30l15 -10l5 5h5l40 -5
l268 144l14 -5q0 20 55 35q0 14 35 14q0 20 54 30q0 15 30 15q0 17 119 75l5 5v4h-5l-129 -19l5 -5v-5l-5 -5h-20v10h10v5h-5q-24 0 -24 -20h-20v10h10v5h-5l-25 -5l5 -5v-5q0 -10 -164 -30l-5 5v10l5 5v5q-30 0 -30 10v15q0 10 15 10l-10 14v5l20 20h20l15 -10l25 5l29 -15
l30 15l5 -5v-10l-25 -5v-5h10l15 10l5 -5h5l313 35l15 -5q0 8 114 55q253 132 541 258q40 25 79 25q3 20 15 20l5 -5h5q4 8 65 29q1 8 39 20v-5l80 40l5 -5h5q35 27 74 40l15 -5q7 21 288 129q0 9 94 45v5h-5l-178 -50l-5 5l-15 -15l-30 5q-33 -22 -99 -35l-5 5h-5l-40 -15
l-5 5h-5q0 -13 -119 -35l-5 -5h-5v5l-69 -19v5l-70 -20l-5 5h-5l-15 -5v5l-30 -15l-5 5l-99 -25h-5l-25 5q0 -10 -54 -10q0 -10 -20 -10l-15 5l-109 -20l-25 5l-20 -10l-25 5l-54 -10l-15 5l-5 -5h-5l-5 5l-55 -10l-34 5l-124 -5h-70l-5 5l-5 -5l-15 5l-49 -5l-50 10l-35 -5
l-10 10l-39 -5l-5 5v5l-25 -5h-5l-15 10l-5 -5h-5q-45 5 -45 15l-5 -5h-5l-139 25l-5 -5h-4l-125 30v5l-5 -5h-4q-11 10 -427 89l5 -5v-5l-5 -5h-5l-5 5v5l5 5l-50 10l5 -5v-10h-10l-10 10l5 5l-5 5h-20l5 -5v-10l-20 -5l-5 5v5l5 15h-24v-5h10v-5l-10 -10h-10l-10 10l5 5v5
l-30 5h-5v-5h15v-15h-45l-10 10l5 5v5h-20l5 -5v-5q-18 -15 -34 -15h-30l-30 5q-134 -30 -134 -99l10 -10v-15l-10 -10h-15q-13 0 -15 25h-5l-10 -25l5 -15l-15 -10h-15q-9 0 -9 20h-5l-20 -15h-5q-10 0 -10 30l-15 -10l-5 5v20l15 20l-10 29v10q11 40 55 40q0 22 114 70
q74 8 74 19q56 -5 70 -19h64l20 -5l5 5q87 0 521 -100v-5l5 5h5q165 -36 184 -49l5 5h5l44 -15l5 5q38 -5 50 -15l20 5l10 -10l5 5h5q28 -3 44 -15l25 5l10 -10l15 5l10 -10l30 5q0 -10 15 -10l24 5l10 -10l35 5l15 -15l65 10l29 -10h229l15 10h4l5 -5l5 5l35 -5h35l10 10
l35 -5h19l30 10l15 -10l204 35l5 5l14 -5q75 6 75 20l20 -5q169 28 169 39l19 -5l50 15v-5q71 15 89 30h5l5 -5l40 10l15 -5q0 12 94 35v5l25 -5q18 0 40 20l5 -5h5l44 20l15 -5q0 9 80 34v15q-25 4 -25 15l25 25l-20 20v15q2 10 25 20l19 -5l149 39l25 -5l15 5l5 -5
q8 20 35 20zM2093 1121q0 -10 -20 -10v-5h10l20 5zM-727 1001l30 -5v-9h-10l-5 4l-5 -4h-5l-10 9zM-652 991h15l-10 -9l-5 5v4zM-260 -36l5 -5v-10h-5l-10 10l5 5h5zM-295 -41h5l10 -10l-5 -5h-10v15zM157 -56h40v-10h-40v10zM33 -61h35v-10h-35v10zM4426 -150h5l20 15h-5
q-20 -8 -20 -15zM4515 -150l5 -5v-5l-5 -5h-10v5z" />
    <glyph glyph-name="bracketleft" unicode="[" horiz-adv-x="758" 
d="M2200 1370h12l8 -8l20 4h8l12 -12v-16l-8 -12l8 -8v-12l-8 -8h-20l8 12v12h-4l-12 -24h8q0 -28 -80 -44l-32 -16h-8q-8 0 -8 12l4 12h-4l-12 -4v4q15 28 28 28v4h-20v8l28 12v4h-68l-56 -4l-24 8h-4q-8 -8 -48 -12l-16 8l-4 -4h-8l-4 4h-4l-8 -8l-24 4l-12 -4v4l-40 -8
l-4 4h-4l-4 -4h-4l-4 4h-4l-20 -8l-40 4l-60 -8l-8 8l-12 -8l-4 4l-32 -8l-20 4l-12 -4v4l-24 -8l-24 4l-12 -4v4l-32 -8l-16 4l-56 -8l-4 4v4l-80 -12l-24 4l-44 -8l-16 4l-12 -4v4l-32 -8h-4l-16 4l-4 -4h-4l-4 4l-44 -8l-4 4v4l-72 -12l-28 4l-4 -4h-4l-4 4l-44 -8l-24 4
l-12 -4v4l-32 -8l-24 4h-12l-28 -4v4l-44 -8l-36 4l-4 -4h-4l-4 4l-88 -12l-20 8q-84 -10 -84 -20l-8 -40l4 -4q-20 -202 -52 -316q-16 -117 -28 -136l4 -12q-12 -92 -20 -92l4 -20l-8 -16l4 -4v-4q-8 -76 -20 -84l8 -8v-4l-8 -12l4 -28l-4 -4h-4l4 -20v-4l-4 -4l4 -4
l-12 -56l4 -4l-8 -36l4 -28l-8 -12l4 -40v-16l-12 -32l8 -8v-56l-4 -4l4 -4v-36q0 -194 48 -304l20 4q0 -12 40 -12l8 -12v-8q0 -12 -24 -12v-12h120q8 0 16 56l-20 12q-10 -32 -20 -32h-8q-39 36 -40 52l12 16l-8 24v4q0 31 44 36q48 -3 48 -16l4 4h4q20 0 20 -24
q12 0 12 -8l-4 -12l4 -4l-4 -4h-4l-8 28h-12q24 -31 24 -68l-20 -64l4 4h8v-4l40 4h40q28 0 44 -8l12 4v-4l4 4h8l4 -4l48 12h4l4 -4l4 4h60q40 -1 40 -8l4 4h8l4 -4l4 4h8l4 -4l24 8h64l4 -4l4 4h8l4 -4l4 4h8l12 -8h72l4 -4l12 4l72 4l48 -12l76 8l8 -8h24l80 4
q0 -8 32 -8v-4l68 8q9 -8 44 -8v-4l56 8l24 -8h4l76 4l4 -4h4l4 4h4l16 -8l40 4v-4l4 4h8l12 -8l44 4q16 -6 16 -12l48 8h12l8 -8l4 4h4l184 -8l4 4l72 -8l4 4h4l12 -4h4v4q-12 0 -12 8q12 11 64 20h4l8 -8l20 4h12l12 -12v-16q0 -12 -24 -12l4 -4v-4l4 4h8l12 -8
q-6 -16 -12 -16l-20 8l-12 -4l4 -4v-12q0 -12 -16 -12l-16 8l-24 -4l-4 16h-60l-8 8l4 4v4l-4 4h-32v-4h16v-8h-28l-8 8l4 4l-4 4h-84l4 -4v-8h-4l-4 4h-4l4 4v8h-52l-4 4l-4 -4q-32 4 -32 12l-20 -8q-44 4 -44 12l-32 -8l-36 12l-12 -8q-48 6 -48 12l-36 -8l-48 12l-4 -4
l-16 4l-48 -4l-52 8l-48 -4l-52 8l-12 -4l-4 4v4l-40 -8l-40 8l-4 -4l-24 4l-56 -4l-12 8l-4 -4h-8l-4 4l-4 -4l-48 8l-8 -8h-24q-28 0 -28 8l-4 -4h-8l-4 4l-4 -4h-4l-4 4h-4l-4 -4l-20 4h-28l-16 -4l-4 4h-4l-20 -8l-4 4h-4l-4 -4h-4l-4 4h-4l-4 -4l-20 4h-56l-8 8l-4 -4
h-4l-4 4h-4l-4 -4h-4l-4 4h-4l-12 -4l-4 4l-8 -8h-56l-16 -4l-4 4h-4l-4 -4h-4l-16 8l-4 -4h-4l-4 4h-4l-12 -4v4l-12 -4l-4 4h-4l-4 -4h-4l-4 4h-4q-14 -7 -92 -12l-16 4l-32 -4h-12q0 -15 -72 -92q-9 0 -52 -44l-40 -24q-12 0 -12 -8h-4l-4 4q-23 -17 -80 -32l4 -4v-4h-4
l-12 4l4 -4v-4l-4 -4h-4l-4 4v4l4 4h-4q-32 0 -32 -20h-8v4l4 4v4h-68l4 -4v-8h-12q0 20 -24 20h-4v-4l16 -4v-8q-40 4 -40 24l-4 -4h-4q-24 0 -40 24h8v4l-12 4v-4l4 -4h-4q-19 6 -36 28h-4v4l4 4v4q-12 0 -32 24h-4v8l4 4v4q-8 0 -44 88q-28 24 -28 32l4 4v4l-4 16l16 24
v84l4 4l-4 4q3 24 8 24l-4 4v4q4 32 12 32l-4 20q4 36 16 36l-4 12q0 34 60 192q13 36 28 52l-4 4v4q84 169 100 184l136 248q100 192 100 232l24 92h4v12h-8v4h8v4l-8 12v12h8v44l-4 40h-4v-4l4 -36v-4h-8v4q0 61 -36 136l-28 8l-8 -8h-64l-24 -4l-4 4l-20 -4h-96l-16 -4
l-4 4h-4l-4 -4h-4l-16 4v-16h-32v8h16v4l-20 4q0 -8 -28 -8l4 -4v-4l-8 -8h-48l-32 -8h-4l-4 4l-60 -16h-12l-24 24v8q8 16 20 16v4q-12 0 -12 8v8q0 6 16 12l4 -4h4l12 4l24 -8l8 8l28 -16q0 16 8 16h12l8 -8l-8 -8h8l76 4l4 -4h4q22 8 112 8h88l80 4v-4l4 4h4l12 -8l12 4
l-8 12v4l4 4v4l-8 8q0 6 16 12l-4 4v4l8 8l24 -8l16 4q20 0 20 -24h4l4 20h8v-36h4v32l-12 32l12 12h8l20 -16v8h8q9 0 16 -28l-8 -16l8 -8v-12l-20 -8v-4l96 -4l8 8l4 -4l12 4l80 -4l4 4h4l4 -4h4l16 8l76 -4h12q20 0 20 8l28 -4h28l12 8h8q20 -1 20 -8l64 12q16 -1 16 -8
l4 4h24l4 -4q32 6 32 12l52 -8l8 12l40 -4q40 0 40 8l24 -4q40 0 40 8l28 -4h44l8 8l20 -4h36l12 8l44 -8l28 12l40 -8l12 12l28 -4h16l28 8v-4l4 4l20 -4l104 4l4 4v4l40 -4h4l32 8l8 -8l44 12l56 -4l8 8h48l48 4v-4l4 4h84q0 18 16 24zM2176 1362v-12h-8l-8 8l4 4h12z
M20 1218v-4h20v4h-20zM480 1162v-16h4v16h-4zM144 242l4 -4v-4q-33 -56 -84 -240h-8l4 -28l-12 -32l4 -12l-4 -64v-40l-4 -16l4 -16v-16h12l64 -24l20 4l8 -12l4 4h4l24 -16l4 4h4l24 -4l4 4l20 -4h24l112 -4l24 4l4 -4h4l24 4q-24 42 -24 60l4 -4h4v4q-34 157 -36 276l4 28
l-4 12h4l-4 4l4 40v36l8 8l-4 20l4 100l4 4h4l-4 12q3 116 16 116l-4 4v4q3 52 12 52l-8 12q11 80 20 80l-4 20v4l8 8l-4 12q10 92 20 92l-4 4v20l8 44l-92 -168q-129 -211 -184 -332q-28 -55 -36 -56zM148 -266v-4h16v4h-16zM308 -306l-16 4l-4 -4v-4l4 -4h-12l4 4v8l-4 -4
l-16 4h-28v-4l40 -4v-8h-4l-136 -4q-52 3 -52 8l-12 -4q24 -80 96 -124q48 -28 104 -40l4 4h12l4 -4q112 8 232 88q64 60 84 92v4l-68 -4h-44l-20 -12l-20 12h-16l-88 4zM2328 -346v-4h16v4h-16z" />
    <glyph glyph-name="backslash" unicode="\" horiz-adv-x="569" 
d="M-158 1294h12l12 -8l12 8h12q13 0 24 -112l4 -12l-12 -8q102 -287 372 -764l92 -160l276 -432q16 0 16 -8l20 4q28 0 28 -28l-4 -4l16 -24l-4 -28l8 -8v-8l-8 -8h-8q-8 0 -8 12h-4l-16 -8l8 -20l-12 -8h-4q-47 38 -52 88q-16 21 -16 32q-8 0 -16 32h-8v8l4 4v4
q-14 0 -32 56q-418 665 -596 1060l-28 56l4 4h-12l4 4l-36 60l8 8q-20 0 -64 136l-4 16q3 56 12 56z" />
    <glyph glyph-name="bracketright" unicode="]" horiz-adv-x="700" 
d="M391 1630l4 -4v-4l-4 -4h-8v4zM439 1630l4 -4v-8h-12v4zM351 1626h12v-12h-12v12zM463 1626h4l8 -8l-4 -4v-4l36 -4v4l4 4v4q36 -9 36 -24l4 4h4q103 -54 176 -172q7 -36 16 -36l28 4l12 -12l12 8h8l16 -16v-12q0 -12 -20 -12l4 -4v-4l4 4h12l8 -8v-8l-8 -8h-16l-4 4h-4
q0 -25 -32 -32l4 -16l-4 -4v-4l4 -28l-4 -4v-4l4 -4q0 -193 -232 -484l-164 -164l4 -308v-128l-4 -16l4 -4l-8 -72l4 -4v-4l-8 -24q9 -44 24 -44h8v-8h-8v-4h24v4l-4 4v4l4 4h4v-12q37 0 72 28l-4 4l-4 -4h-4q-44 13 -68 48v12l8 16l-8 16q0 38 84 52q96 -8 96 -60l4 -16
q-3 -20 -20 -20q0 -97 -168 -124v4l-12 -4v-8l4 -48l-8 -8l8 -8v-8l-16 -16q-16 0 -16 32h-4q0 -24 -12 -24l4 -4v-12l-4 -4v-4l12 -4l4 4h40l4 -4l4 4h32l32 -8h40l92 4l36 -8l40 4h4l12 -8l28 4l88 -8l12 12h4l24 -8l20 4l16 -4l24 4l24 -8l8 8q20 -12 20 -28l-8 -16
l12 -12v-4q0 -9 -28 -12l-12 4l4 -4v-8q0 -20 -76 -20v4l-4 -4h-20l-12 12v4l4 4v4q-20 0 -20 8q0 10 16 12q0 28 -104 28l-4 4l-12 8l-20 -8q-40 5 -40 12l-4 -4h-28q-68 0 -68 8l-4 -4h-4l-4 4l-4 -4h-4q-24 3 -24 8l-4 -4h-8l-4 4q-16 -8 -44 -8h-224q-20 0 -20 8l-4 -4
h-4l-4 4h-4l-4 -4h-4l-4 4h-4l-4 -4h-4l-4 4h-4l-4 -4h-4l-4 4l-20 -4h-124l-16 -4l-16 4l-84 -4v4l-4 -4h-4l-4 4h-4l-4 -4h-4l-4 4l-20 -4h-52l-128 -8l-48 4l-4 -4h-4l-4 4l-52 -8l-44 4l-4 -4h-4l-4 4l-52 -8l-16 4l-4 -4h-4l-4 4h-4l-16 -4v4l-24 -8l-24 4l-12 -4v4
l-36 -8l-4 4h-4l-44 -8l-12 4l-12 -4v4l-24 -8l-24 4l-12 -4l-4 4q0 -8 -12 -8l-36 4q0 -7 -24 -12l-4 4h-4l-84 -12l-12 4l-228 -28l4 -4v-4l-4 -4h-12v4l4 4v4h-12q-8 0 -8 -16l-4 -4h-4l-12 4v8h8v4h-8q-12 0 -12 -16l-4 -4h-4l-12 4v4l4 4v4h-4l-16 -4l4 -4v-4
q0 -8 -52 -12v-4l-20 4h-8l-12 -8h-12l-84 -4q-15 1 -28 24l-12 8q5 51 28 56q9 -8 92 -16v-4l4 4h20l4 -4h4l-4 -4v-8h12l4 4l4 -4h8v4h-8v8l8 8h8v-8l-4 -4v-4h4l112 12v-4q0 7 292 28v-4l24 8l24 -4l24 8l32 -8q0 10 16 12q28 0 28 -8q20 5 20 12l40 -4l20 8l32 -4l24 8
l4 -4v-4l52 12l4 -4h4l4 4h4l12 -8q48 4 48 12l60 -4h32l8 8l48 -4h36q40 0 40 8l28 -4l484 4l4 -4l4 4v4l20 -4h8l12 8h28l16 -4l16 4h8l4 -4l12 4l4 -4h4l12 4v-4l16 4q-4 44 -12 44v-4l4 -12l-4 -4h-4l-8 8l4 24q0 56 -20 56q-92 28 -132 92l-8 8q0 12 -12 12
q0 16 -12 16v8h8q-15 60 -24 60l4 12l-4 4l4 16l-4 48l4 4v4l-4 4l4 20l-4 20h8l-4 20q12 0 12 16l-4 4v4q0 12 12 12l-4 4v4q20 29 20 48l80 112l116 124v36h-8q12 15 12 28v84l-4 4v4l8 8v80h-8v4h12v52l-8 12q20 0 20 172l4 16l-8 8v12h8l8 64q-2 16 -12 16v20l8 8l4 -4
v16h-8v4l4 32l-4 28l4 4v4q-3 16 -20 32v24l4 4v4h-4l-80 4l-56 -4l-4 4v4l-20 -4h-32l-4 4l-4 -4l-24 4l-16 -4l-40 4h-708l-20 -4v4l-4 -4h-4l-12 4l-12 -4l-44 4l-20 -4v4l-4 -4h-24l-4 4l-4 -4h-4l-12 4l-4 -4h-4l-16 4l-12 -4l-20 4l-20 -4v4l-4 -4h-12l-4 4l-4 -4h-4
l-116 -4h-12l-4 4q-18 -8 -52 -8h-32l-20 -4v4l-44 -8l-12 4l-204 -20v4l-28 -8l4 -4v-8h-24v8h8v4h-8l-12 -4l4 -4v-4l-12 -8h-8l-8 8v4h8v4h-4q-24 -4 -24 -20h-12l-152 -8q-25 0 -48 32l4 4l-4 4v8q13 36 20 36h12l16 -4l16 4l24 -12l4 4q88 -10 88 -20l-4 -4l116 12v-4
l4 4h4l4 -4q0 8 268 20l20 -4l32 8l52 -4l32 8l4 -4h8v4l108 -4h984v16h-4v-8h-8v20l8 8l-4 20q0 37 68 100l48 32h20l-12 -16h12q19 18 88 36v4h-8v12h4q8 0 8 -12h4l16 4l4 -4l92 8h12l20 -4l-4 4v12zM335 1622v-12h-4l-8 8l4 4h8zM491 1622h8v-12h-8v12zM287 1614h8v-12
h-8v12zM271 1606l4 -4v-4l-32 -12v4q0 7 28 16zM395 1582v-4h16v4h-16zM127 1394h80l28 4v-4l4 4h8l12 -8h104l-4 4v4q0 31 24 40l24 -12l20 8q20 -6 20 -28v-12l24 -12q0 8 12 8q110 0 220 -16l-8 12h4l-8 20l4 4l-12 12l4 4v4q-8 0 -60 64l-64 48q-87 21 -88 28l-4 -4h-4
l-48 4q-157 0 -268 -116q0 -17 -16 -28zM187 1558l-4 -12h4l12 12h-12zM155 1530v-8l12 12zM167 1458v-4l-8 -8v4zM-1513 1378h12v-8h-4zM443 1322h-8v8l4 20l-16 -8l8 -12v-32l-12 -20l4 -16l-16 -84l4 -4q-32 -303 -32 -480h-4l4 -4l-4 -28v-36q159 154 240 272
q60 103 60 116l-4 4l4 4h4l4 -4q19 72 32 72v4l-4 4v4l8 8l-4 4v4l4 4h4l-4 4v8q10 0 12 16l-8 8l8 8l-4 12l8 8v8l-8 32l4 4l-4 4l4 20l-4 16h8v-12h4v28q-14 0 -48 -24q-19 0 -36 -24h-8l-8 16l8 16l-4 4h-4l-12 -8l-4 4v4l20 20v4q-20 0 -20 12q0 22 32 36v4l-28 4h-4
l4 -4v-4l-4 -4h-8v4l4 4v4q-30 8 -144 12l-8 8q-16 0 -24 -52zM-1377 1342v-8h-20v4zM-1601 1330v-4h52v4h-52zM367 1182h8v-24h-8v8l4 4l-4 4v8zM139 162q0 -66 76 -156q54 -32 72 -32l12 -4v4q28 10 28 68l8 8h4v8h-8v24h12v8l-4 4v4h4l-8 24v4q0 8 12 8l4 88v40l-4 16
l4 16v32l-4 16l4 16v28l-4 20l4 24v12l-4 16l4 16v12h-12v4l12 4l-4 20v36q-208 -183 -208 -388zM423 58v-4l8 -8v4zM587 46h8v-12l-8 8v4zM-1233 -290h16v-8h-16v8z" />
    <glyph glyph-name="asciicircum" unicode="^" horiz-adv-x="748" 
d="M286 1110h16l16 -12l8 8h16q12 0 12 -44l4 -4h4l-4 -28v-48l12 -16v-12h-4l-12 8v-4q81 -166 160 -228l92 -64v-4h20q8 0 8 -16q21 0 24 -28l-16 -8l8 -12v-8h-4q-52 11 -204 148q-87 115 -155 219q-35 -98 -113 -195q-98 -150 -120 -172h-16l-4 20l-4 -4h-8v12l20 28
q-10 0 -12 16l84 92l8 -8l4 4v4l-4 4v4q16 0 16 16h4l-4 4v4q23 52 40 52l-4 4q13 40 28 40l-4 4v8q21 23 40 76l20 32h4l-4 4v16l4 4q8 6 8 24l8 8l-4 4v24q3 24 12 24zM342 994v-8l8 -20h4v4q-4 24 -12 24zM290 982l-4 -12h12l-4 12h-4z" />
    <glyph glyph-name="underscore" unicode="_" horiz-adv-x="0" 
d="M1481 -92h8l12 -8l24 4q20 -6 20 -28l-4 -20l8 -8v-20l-8 -8h-8q-10 0 -12 16h-4q-5 0 -16 -36h-8q-16 12 -52 20v4l4 4l-4 4h-4l-16 -4v4l-4 -4h-4l-4 4h-4l-4 -4h-4l-4 4l-20 -4h-120l-16 4l-4 -4h-4l-4 4h-4l-4 -4h-4l-24 8l-16 -4l-4 4h-4l-4 -4l-20 4h-4l-20 -4
l-24 4l-16 -4l-16 4h-4l-16 -4l-4 4h-4l-4 -4h-4l-4 4l-20 -4h-64l-16 -4l-12 8l-4 -4h-4l-4 4h-4l-4 -4h-4l-4 4l-20 -4h-104l-16 -4l-16 4l-116 -4v4l-4 -4h-112l-60 -4v4l-4 -4h-24l-120 -4v4l-4 -4h-8l-4 4l-4 -4h-8l-4 4q-22 -8 -64 -8v4l-4 -4h-16l-176 -11l-9 -17
l-15 13l16 4l-372 -17l-12 -4v4l-4 -4h-8l-4 4q-18 -8 -200 -16l-4 -4l-24 4l-56 -8l-36 4l-12 -4v4l-40 -8l-28 4l-12 -4v4q-22 -8 -56 -8l-8 8l-8 -8l-12 4l-8 -8h-8l-24 4l-16 -4l-4 4l-8 -8h-32l-4 4l-56 -12l-8 8q-17 -12 -40 -12l-8 8q-20 -11 -84 -16v4l-4 -4h-36
l-28 -4v-4h8v-4l-16 -4l-4 4v4l4 4h-16l-28 -4l4 -4v-4l-4 -4h-72l-8 8v4l-4 -4h-68v-4h36v-4l-76 -8l-12 4l-24 -4h-12q-12 0 -12 24h-16v24q0 8 24 8v4h-16v8l40 12l52 -16l4 4q28 -3 28 -8l4 4h8l4 -4l4 4h4l8 -8v-4h-12v-4h16l284 12l24 -4l8 8l40 -4q0 8 12 8l52 -4
q0 8 12 8q40 0 40 -8l24 12q40 -2 40 -8l16 12l40 -4h24q20 0 20 8l48 -4h24q20 0 20 8l20 -4h40q20 0 20 8l16 -4q922 52 1172 52l12 4l4 -4l20 4h268l16 4l4 -4l60 4h192l4 -4l4 4h48l12 8h4l4 -4l4 4h12l4 -4l4 4h132l28 4v-4l4 4h36l20 4v4q-16 0 -16 12v12q5 16 36 16z
M1365 -176h12v-8h-12v8zM-1399 -280v-4h56v4l-40 4z" />
    <glyph glyph-name="grave" unicode="`" horiz-adv-x="408" 
d="M84 1084q16 -6 16 -12l16 8q23 0 28 -72h-4q-16 11 -16 20h-4v-4q12 -32 32 -32q0 -8 -12 -8q64 -215 100 -232l36 -28l16 -12q0 12 8 12l36 -32l4 4h8l8 -8v-12l-28 -40l4 -16l-4 -4h-12q-79 48 -100 108l4 12l-4 4l-4 -4h-8q0 16 -20 40l4 4v4q-36 38 -36 72
q0 16 -12 16l4 4v8q-16 0 -20 24l4 12h-4q-7 2 -52 100q-9 0 -12 20l12 16l-4 16q0 10 16 12zM236 776h4l8 -8v-4h-4l-8 8v4z" />
    <glyph glyph-name="a" unicode="a" horiz-adv-x="544" 
d="M417 444q92 -10 92 -32l20 4h8l16 -16v-8l-4 -20q12 0 12 -8v-8l-28 -44l4 32v4h-4q-35 -94 -60 -116l-40 -52q0 -39 36 -63v-17h4l3 4l4 4h4q24 -8 24 -16l68 17l-51 -11l35 7q12 0 12 -8v-12q0 -12 -16 -12l4 -4v-4q0 -8 -80 -29q-103 17 -103 104q-189 -121 -272 -132
l-40 -8q-43 10 -68 52l-4 16q18 100 40 100l4 4l-4 4v4l8 16l4 -4h8q98 137 212 184l4 4v8l-40 -20h-8v4q27 26 148 64h36zM329 412v-4h20v8zM277 388h8q16 12 36 12l4 4v4h-4q-44 -12 -44 -20zM49 112q15 -33 40 -44l8 8l4 -4h4l8 8l4 -4h4l80 28v-8l-56 -24l12 -4l120 56
q108 71 108 80q0 39 56 148v4l-64 8q-103 -13 -220 -104l-64 -64q-40 -59 -44 -84zM185 348l4 -4v-4l-4 -4h-8v4zM93 264l4 -4v-4l-4 -4h-4l-4 4v4l4 4h4zM349 188v-12h-4l-8 8l4 4h8zM385 148v-20l4 4h4l-4 16h-4zM265 136l4 -4v-4l-4 -4h-4l-4 4v4l4 4h4zM425 132v-4
q13 -24 20 -24v4zM5 76v-20h4v20h-4zM121 68l8 -8h4v8h-12z" />
    <glyph glyph-name="b" unicode="b" horiz-adv-x="635" 
d="M1126 1140h12l12 -12l24 8l12 -12v-8l-20 -24v-4l4 4h16v-12l-8 -8l-16 4q0 -28 -88 -100q-1 -13 -164 -168q-8 0 -8 -12q-7 0 -80 -84q-17 -4 -20 -20q-12 0 -12 -12l-128 -116q-38 -37 -60 -48q0 -11 -164 -152l-40 -56l-64 -80q-125 -165 -125 -229l12 -8l16 8l16 -4
l-8 -12h4q112 12 177 106l8 20q-19 0 -32 24l-12 12v4l8 28l-8 8v4q0 35 56 44l16 -8l12 4q32 0 32 -28l-12 -16v-4q12 0 12 -8l-8 -8l-4 4v-16l20 -4q79 -16 128 1q16 -6 16 -12q0 -18 -27 -26h-8v-4l4 -12h-8v12h-4q-20 0 -20 -16h-8v4l4 4v4h-8l-28 -4l4 -4v-8h-32v8h12
v4l-37 21v-4h20v-4q0 -8 -40 -12l-12 4q-23 -49 -76 -81l-44 -40l-49 -29q-73 -40 -108 -40q-8 0 -36 36v4q0 47 40 88q0 10 13 45q15 35 124 168v8q11 0 24 28h-4l-148 -116q0 -13 -52 -44q-95 -75 -172 -100h-8l-24 24l20 28q-12 0 -12 8v8q0 16 80 24q0 12 24 12l8 8
l8 -8q-24 -8 -24 -16h8q147 75 404 304q38 55 68 76q0 15 28 32q0 16 36 40q9 23 32 36q0 11 24 32q0 8 24 16q0 23 64 72q18 34 92 100q0 8 60 60q45 55 216 208l-12 4q8 30 28 40zM562 524l4 -4v-4l-4 -4v-4h4q38 28 72 68q91 71 176 164q83 77 124 132q95 89 124 132
l-96 -72q0 -11 -108 -100q0 -9 -112 -116q0 -13 -68 -68q0 -10 -48 -56q0 -9 -36 -36q0 -25 -32 -32zM530 488l8 -8l24 24h-4zM402 157v-12h8v4zM285 15l8 -8l-4 -4h-12v4zM165 -37v-12h8v12h-8z" />
    <glyph glyph-name="c" unicode="c" horiz-adv-x="427" 
d="M413 410q60 -5 60 -24l-8 -12l8 -24q-18 -24 -108 -36q-110 -46 -132 -72q-54 -19 -168 -148v-4q0 -10 44 -24v-8l16 4l4 -4q136 0 332 76l8 -12v-8q-21 -34 -80 -48l-100 -32l-4 4h-4l-8 -8l-20 4q0 -8 -12 -8l-12 4q0 -8 -12 -8t-12 12h-12l4 -4v-4l-8 -8l-28 4v4h8v4
h-20l4 -4v-4l-8 -8h-24l-84 -4q-31 19 -40 44l12 24l-8 8q20 44 36 44v-8h4q196 190 280 220l48 24v4h-4l-20 -4v4q25 22 68 40zM337 366v-12l-24 -8l-4 4v4q15 12 28 12zM333 62v-4h16v8zM9 62v-12l4 -4h4v4l-4 12h-4zM69 26v-4h36v4h-36z" />
    <glyph glyph-name="d" unicode="d" horiz-adv-x="737" 
d="M789 948q20 -1 20 -8l20 4h8l12 -12v-4l-4 -28l8 -8v-4l-8 -8l-8 8h-8q0 -44 -160 -228q0 -10 -116 -144q-53 -73 -80 -96q-44 -63 -112 -140l-8 -56v-16q0 -87 108 -124q33 0 48 -8l32 4l24 -4l20 4v-4l4 4h8q65 0 115 28l40 8l8 -12v-4q0 -15 -46 -27q-47 -25 -145 -25
l4 -4v-4l-4 -4h-20l-8 8l4 4l-4 4h-4l-4 -4h-4l-20 8l-16 -4v-4h12v-8l-24 -4l-8 12l4 4h-12q0 -12 -8 -12q-59 0 -120 80v8h8l-20 52l4 4l-4 48h-4q-167 -232 -252 -232h-12q-35 0 -56 68h8v12l-18 -15q-28 0 -28 28l16 24l-8 8v20l42 23h4v-12l120 104q53 57 132 104v4h-4
l-12 -8h-8q21 31 76 44l40 20h16l4 -4h4q75 144 288 392l80 80v4h-8v4zM761 904v-8l12 4v4h-12zM733 892h8v-4l-12 -12h-4v8zM417 420l8 -16h8q121 156 140 164q0 15 20 28l128 176l44 64v4q-61 -21 -248 -256q-81 -116 -100 -164zM237 360v-4l-8 -8h-4zM217 348h8l-12 -12
h-4v4zM61 88l12 -8h4q41 0 100 52h4v-4q0 -9 -60 -48v-4h4q85 50 212 220l8 32h-4q-96 -25 -216 -128q-64 -72 -64 -112zM65 216h4v-4l-16 -12v4zM5 152l-4 -16q6 0 12 16h-8zM197 148l4 -4v-4l-4 -4h-8v4zM17 56v-12h8v4z" />
    <glyph glyph-name="e" unicode="e" horiz-adv-x="592" 
d="M516 495l12 -8l4 4h4q44 0 44 -32l-12 -16l12 -12v-4l-12 -12q0 16 -8 16h-4l-8 -36q-88 -97 -464 -260l4 -4l-4 -20l8 -24q12 0 24 -16q30 -5 32 -16l4 4h4l12 -12l-4 -4v-4h16v12h8v-8l-4 -4v-4h8q157 0 438 81l12 -12q-12 -20 -32 -20q0 -16 -24 -16l-4 4v4l4 4h-4
q-8 0 -8 -16h-4l-8 8l4 4l-36 -8l4 -4v-4l-4 -4h-4l-4 4v4l4 4q-58 -29 -58 -37l4 -4l-4 -4h-4l-4 4v4l4 4h-4q-60 -7 -60 -20v-4h-16v8h8v4h-16q-8 0 -8 -16h-8v4l4 4v4h-16l-8 -8l4 -4l-4 -4h-16v4l4 4v4l-4 4q-16 -6 -16 -12l4 -4l-4 -4h-20v8h8v4h-12l-12 -4l4 -4v-4
l-8 -8l-24 4l-4 -4h-4l-12 4l-60 -8l-8 8l-16 -4q-112 31 -105 73v20q-63 -42 -58 49l17 20l17 -9l4 -4v-4l-12 -4v-8l45 43v4h-8v12q15 0 52 60l32 28v-12q-10 0 -36 -40h4q120 136 260 196v4h-4q-15 0 -40 -20h-8v4q40 30 128 64zM388 439v-4h4l44 12v4h-4zM356 419h4
l24 8v8q-28 -5 -28 -16zM128 203v-4q314 141 360 204h-4q-28 -19 -28 -28h-12v4l28 28q-209 -54 -344 -204zM292 399v-4l-20 -16h-4v8q4 12 24 12zM256 379l4 -4v-8h-4l-8 8l4 4h4zM204 347l8 -8v-4l-16 -4v8zM188 331h4v-12h-12v4zM164 315h8v-4l-36 -32l-4 4v4q8 0 32 28z
M164 231h4v-8h-12zM590 80v-4h4l12 4v4h-4zM188 7v-4h16v4h-16zM212 -1h12v8h-4zM232 7v-4h24v4h-24z" />
    <glyph glyph-name="f" unicode="f" horiz-adv-x="514" 
d="M939 1402l24 -14l10 9h14q19 -8 19 -33v-5l-9 -15l14 -14q0 -9 -33 -9q-85 -186 -475 -686q-135 -159 -163 -249q-81 -153 -126 -281v-5q19 0 19 -9l-9 -10l24 -5l5 5l33 -5l39 5v-5l14 5q37 1 161 48q39 40 51 10l-4 -36l-36 4q-28 -2 -41 -22v5q-57 -36 -160 -47l5 -5
v-5q-34 -9 -72 -9l-5 4v5l5 5v5h-14l4 -5v-5q-47 -30 -47 -48l-5 -4q9 -21 -23 -156v-19l-5 -29l5 -5q-32 -234 -72 -340l-48 -96l5 -5v-10l-53 -43h-9q-15 0 -15 29q-19 0 -19 10v43l24 62h-5l19 43l-4 5v5l110 340l47 142l-5 4l5 15h4v14l-4 -5h-10q0 29 -48 77
q0 10 19 10v14l-19 24q3 26 20 24l14 5l19 -15l9 10h15q24 -14 24 -38l5 -5h4l145 328l-202 -279q-23 -8 -101 -82h-5l-9 10l5 5v5l-20 4v20q0 9 20 9l4 5v5l-14 19q0 24 38 24q0 13 48 33q0 20 24 29h10v-5l-5 -4v-5h5q331 407 332 452q49 68 91 153q10 3 48 77
q24 14 24 38q12 0 19 29q14 0 14 24q25 21 159 230q86 120 100 120v9q-19 -4 -19 -19l-10 10q8 0 20 33l4 20zM647 932l5 -5v-4l-154 -240h5l101 129q170 224 292 432v5q-87 -98 -153 -197q-13 0 -48 -67q-12 -3 -34 -48zM104 193l-19 -29h5l19 29h-5zM272 43v-5h24v5h-24z
M115 -170q-47 -97 -77 -269q-14 -33 -38 -163v-5h5q0 10 23 19q0 16 48 101v5l-4 14q9 0 24 58h-5l9 19l-9 10h9v14l-4 14h4q10 0 10 34h-10v5q17 0 20 43l-5 5v4l5 20h-10v9q14 0 14 24l-4 5h-5l5 5v29h-5z" />
    <glyph glyph-name="g" unicode="g" horiz-adv-x="546" 
d="M599 483h12l12 -8l20 8q20 -8 20 -24l-12 -20q20 -1 20 -12v-4l-52 -44v-4h4q0 12 8 12h12l8 -8v-4l-12 -12h-24q0 -22 -64 -40q-109 -121 -176 -244l-64 -112v-8h12q0 13 132 88l118 74l12 -12q-8 -19 -130 -82q-163 -99 -172 -112q-64 -135 -220 -508
q-81 -160 -132 -160l-4 -4h-4q-63 0 -164 152l-16 56q24 108 44 108l4 -4l8 12l-8 12l4 4h8v-8q139 145 320 264l140 92q60 120 136 240h-8q-13 -31 -84 -72q-135 -114 -232 -128v4l-4 -4h-4q-22 0 -52 44v16l8 32v16l-36 -28h-20v8l4 4v4l-12 4l-4 -4l-4 4l20 28l-12 12v8
l68 44l28 20h8v-4q0 -12 -16 -12l-4 -4v-8q296 196 336 196v4h-4l-64 -20v4q4 8 140 60l56 4l4 -4l24 16l4 -4h4zM311 271v4l-116 -68q-80 -71 -124 -136l16 -28l4 4h4l4 -4h4l48 16h4q0 -8 -24 -16v-4q103 25 296 204q27 36 36 36v4l-4 4v4q12 0 12 24q-74 0 -160 -44z
M3 131l-12 -16h4q0 10 16 12v4h-8zM27 39v-28h4v28h-4zM115 39l8 -8l4 4v4h-12zM-197 -505l4 -16l-4 -16v-12h-4l-4 4h-4v-4l16 -44h4v8l-8 24l24 -28v-4q0 -8 -12 -8v-4q18 -36 52 -56l16 4q17 -20 40 -20q33 0 52 28h8v-8l4 4h4l-4 4v12h4l4 -4h4l8 12v4h-8l8 8l4 -4l8 12
l-4 4v8l4 -4h4q36 64 216 488h-8q-14 -17 -60 -40l-172 -128q-196 -164 -196 -224zM-245 -541v-16l4 4h4l-4 12h-4z" />
    <glyph glyph-name="h" unicode="h" horiz-adv-x="754" 
d="M1083 1180l16 -8l24 8l16 -20v-12l-8 -12v-4q12 0 12 -8l-24 -16q0 -72 -224 -308q-352 -339 -548 -488q-3 -15 -108 -88q0 -13 -24 -16q0 -9 -92 -76l-36 -48h4q40 40 48 40l8 -8v-4q-9 0 -64 -48q-18 0 -32 -28h4q198 162 312 208v8h-4l-36 -16v4q23 18 104 52l4 -4h4
l24 8q72 -10 72 -44l-4 -20q8 0 8 -12q-17 -24 -44 -116q-28 -55 -18 -60q19 -18 40 -24l40 8v-4l4 4h8v-8q-16 0 -16 -8h8l228 131h4l8 -8v-4q-28 -40 -52 -40v8l-8 -8l4 -4q-177 -131 -256 -139q-64 24 -64 72q0 18 42 132q8 16 8 44v20h-28l-4 4q-82 -6 -328 -184
q-96 -82 -116 -112l-4 4h-4l-28 -28h-4l-8 8v16l4 4v4l-20 -4h-4v4l16 20l-12 16q0 26 40 32q0 15 28 20l40 56q-43 -22 -76 -28l-12 16v4h8v4q-20 0 -20 8v8q0 11 20 12v4q-12 0 -12 8v12q0 13 60 20l44 16l4 -4q0 15 40 24v-4q0 -8 -12 -8l-4 -4v-4h4l64 36v4l-4 4v4
q9 0 60 60q8 0 8 16l132 144q0 16 48 56q0 18 48 56q0 17 40 52q10 0 12 20q40 38 72 84q21 7 24 28l32 28l128 148q244 248 296 248v4h-4q-23 0 -80 -44h-4v8q82 64 124 64zM223 252h4q200 138 636 556q200 213 200 264q7 0 12 28h-8q-65 0 -232 -160q-87 -81 -196 -200
q-12 0 -12 -16q-116 -136 -124 -136q-27 -49 -52 -60q-26 -52 -48 -52q0 -23 -48 -60q0 -16 -64 -80zM375 256v-4h8q16 6 16 12h-4zM311 232v-4l-44 -28h-8q2 13 52 32zM251 200h8q-6 -16 -12 -16h-12zM227 184h8l-36 -36h-16q2 10 44 36zM175 144v-4l-12 -12l-8 8zM589 40
l4 -4l4 4h12q0 -6 -28 -16l-4 4v4z" />
    <glyph glyph-name="i" unicode="i" horiz-adv-x="497" 
d="M606 744h8q20 -1 20 -8l20 4h8l16 -16v-24l-4 -4v-4l8 -8v-20l-16 -16l-16 4q0 -46 -96 -116l-24 -8l-32 44q5 88 24 88h4q12 0 12 -16l12 8l40 36l-8 12v20zM510 576l8 -8v16zM410 455h4q20 -1 20 -8l20 4h8q8 -2 16 -20l-12 -20v-4q12 0 12 -8v-8l-20 -20h-4v12h-12
q0 -31 -68 -92l-67 -59l-35 -58q11 -52 48 -52q20 -5 20 -12l-8 -12l20 4h32l8 8l20 -4l104 20v8l-48 -12l-4 4v4l24 12l4 -4l24 12h4l8 -8l-4 -4v-4q24 0 24 -12v-12l-8 -8l4 -4v-8q0 -16 -168 -32l-12 -8h-24q-91 0 -89 90l-4 12l8 44q-208 -144 -288 -144l-24 32v4l12 16
l-8 24l12 12h4l36 -4q97 24 160 68h4v-8q-6 -11 -64 -36v-4h12q111 63 184 120l-4 4v8l27 43q66 111 92 124zM346 367v-4l28 28q-18 -7 -28 -24zM279 280l4 -4v-4l-4 -4h-4l-4 4v4l4 4h4zM239 252h8l-4 -12h-12v4zM215 236h4v-12h-12v4zM195 224h4v-8l-20 -12h-8v4zM255 168
l-23 -58h4v36l-4 -4zM436 126l4 -4v-4l-4 -4h-4l-4 4v4l4 4h4zM356 118h20v-12h-20v12z" />
    <glyph glyph-name="j" unicode="j" horiz-adv-x="533" 
d="M563 799l11 -10l31 10l16 -37l-6 -20l11 -11l-16 -21l-5 16h-11q-192 -496 -214 -496l6 -5v-6q-37 -99 -68 -151q-20 -85 -47 -115v-26q121 120 229 188l-11 16v5l37 31h15v-10l37 10l21 -15v-21l-32 -21q0 -21 -20 -21l10 -15v-6q0 -8 -99 -26l-177 -146
q-73 -78 -73 -131l-5 -5l5 -5v-5q-151 -466 -151 -585l15 -31q-5 -21 -20 -21l10 -11l5 5l5 -5v-15l-10 -11h-5q-11 0 -11 21h-10v-16q0 -27 -16 -31h-15q-53 48 -53 110l-21 68h11l16 -68h5v5l-42 219l5 26v52l5 6l-10 21q7 26 16 26l-6 5v5q30 145 298 366q0 17 37 78
q0 50 36 94q11 11 11 57q7 2 52 110h10l-5 26l125 318l-5 6q11 0 11 26l5 5h5l-5 5l5 26v11q-261 -300 -304 -400l-68 -94l5 -5q-40 -50 -99 -89h-16q-10 0 -10 21h-16v16q18 31 31 31v5q-21 0 43.5 38.5t391.5 497.5l68 78v5l-21 -15l-5 5v5q11 0 21 47h31zM588 110h6
l10 -10v-6l-10 -10h-6l-10 10v6zM-37 -538l5 -5l-5 -26v-21q0 -66 36 -219h11l-5 5v11q26 0 26 31q73 325 161 543l21 47h-5q-230 -205 -230 -308zM-79 -715h10v-21l-10 10v11z" />
    <glyph glyph-name="k" unicode="k" horiz-adv-x="1009" 
d="M1150 1224q76 0 76 -36v-4l-4 -4v-4l4 -24v-4l-8 -8l-4 20h-4q-26 -111 -196 -300q-92 -100 -244 -232l-296 -240q-69 -51 -116 -120l-72 -92l4 -4h4q261 222 368 248v4h-4l-32 -8l-4 4v4q52 28 68 28h4l4 -4h4l12 12h8l16 -4l16 4q68 -7 68 -44l-4 -16l4 -32l-4 -4h-4
l-4 12q-8 -2 -40 -72q-80 -120 -352 -184v-4q35 -35 76 -52v-8q21 0 32 -28l4 4h8q14 8 68 -13v-8l16 4q72 -19 72 -32v-4h16v12h12l8 -16q123 22 168 37q14 0 136 104h8l12 -12q0 -20 -124 -120q-9 0 -28 -20q-10 0 -20 -12q-79 -15 -132 -21v-4l-64 8l-16 -4l-4 4v4l-4 -4
h-4q-64 0 -292 125q-84 12 -84 28v8q-21 0 -92 -84q-54 -53 -84 -112h-4l-4 4h-4l-24 -28h-8l-8 8v12l4 4v4h-4l-16 -4l-4 4l16 28q-9 0 -12 20q20 13 52 52h8v-8h4v4l-4 16l4 4h8l4 -4h4l172 193h-8l-4 4l-4 -4q0 -14 -160 -108l-56 -28q-47 -28 -84 -36q-18 0 -24 24h-8
v16q0 10 16 12v4h-8v8q0 28 52 28q1 8 24 12v-4l16 8l12 -4l40 20h8v-8q-15 0 -48 -24h12l92 48q135 68 264 215q296 388 504 628q93 96 104 96v4h-12l-8 -8h-4q3 18 64 60q23 30 80 52zM1078 1164l-44 -32v-8q43 36 52 36v4h-8zM498 444q154 109 420 360q118 122 156 184
l-8 8l4 4h4l4 -4h4l12 16l-4 12l4 -4h4l4 4l-4 4v8q36 68 48 68l-4 12l12 20h-4q-75 -3 -296 -248l-212 -256zM994 1108l4 -4v-12l-20 -4v4zM666 424h4l12 4v8zM606 416l4 -4v-4l-8 -8h-4v8zM366 184v-4l20 -4q4 12 24 12l4 -4l4 4h8l4 -4h4q4 12 24 12l4 -4q0 9 60 24l4 -4
v-8l-24 -4l4 -4v-4l28 12l-4 4v4l108 52q103 80 112 116l-16 8q-101 0 -328 -168zM566 388l-12 -12h-4v8zM730 328l-4 -4v-8h4l4 12h-4zM582 220h4q60 28 128 80v8l-64 -48q-63 -29 -68 -40zM182 205v-4l-8 -8v4zM538 212v-4h4l36 8v4h-12zM446 184v-8q48 10 48 20h-4z
M430 180v-4l12 -4v8h-12zM250 132h4l8 8h-4zM858 31l12 -27l-20 15v4zM810 11v-12l-20 -4h-8l12 12l4 -4h4zM746 -5l8 -8l-4 -4h-4l-8 8l4 4h4z" />
    <glyph glyph-name="l" unicode="l" horiz-adv-x="405" 
d="M1119 1303h48q9 -2 20 -32l-4 -12l4 -24l-8 -8h-4l4 4v4l-8 8l-28 -72q-15 -53 -336 -388q-125 -129 -300 -292q-48 -52 -84 -76q0 -7 -140 -132q-63 -115 -84 -184q0 -40 58 -27l4 -4l16 -4l24 8l132 55l12 8h8q0 -40 -16 -40l4 -4v-4q0 -18 -230 -108q-24 0 -60 52
l4 20v28l8 8l-4 4v4l8 8l-4 4v4l24 40h-4q11 36 28 56l12 32q-182 -158 -244 -164q-16 0 -24 16v4h12v4h-24v4l4 4l-4 4v4q0 11 58.5 41.5t97.5 54.5h4v-4l-24 -28h4l192 148q143 251 308 472q259 331 444 444h-4l-28 -20h-8v8q83 64 132 72zM1059 1259h4l24 12v4h-12z
M1039 1255v-4h12l4 4v4h-4zM343 387h4q127 107 284 260q312 305 396 424l56 72l-4 4v8q5 14 24 24l12 44h-4q-110 -22 -308 -212q-312 -346 -460 -624zM979 1223v-4l-8 -8l-4 4v4l4 4h8zM951 1207h4v-4l-12 -12h-4v4zM911 1175h4v-4l-12 -12h-4v4zM887 1155l4 -4v-4l-4 -4
h-8v4zM195 283h4v-8h-12z" />
    <glyph glyph-name="m" unicode="m" horiz-adv-x="888" 
d="M768 500l16 -8l20 4q20 -8 20 -24l-8 -24l8 -8q-4 -24 -12 -24h-4l4 20l-4 4h-4q-16 -55 -60 -104l-104 -108q-63 -67 -76 -153q0 -53 40 -60q17 -20 52 -20h28v-4q154 77 254 152l8 -12v-4q-13 -50 -206 -152q-12 0 -12 -8l4 -4l-4 -4h-8v4l4 4v4h-8q-12 0 -12 -16h-16
v8h12v4h-16l-12 -4l4 -4v-4l-8 -8h-8l-8 8l4 4v4l-20 4h-4v-4q12 0 12 -8l-4 -4h-8q-54 0 -80 44q-15 0 -28 52v16h8v-12h4v20h-8v12h8l-4 4v4l8 8l-4 4v4q6 16 12 16l-4 4v4q37 93 128 185l52 60v4h-8q0 17 20 32h-4q-65 -21 -196 -132q-112 -110 -208 -236v-4q8 0 8 12h8
v-4q-13 -32 -24 -32l-12 4v-4l-20 -20h-12q-8 0 -8 24q-20 0 -20 8q5 20 12 20l-8 24v4q41 45 60 56v4l-4 4h-4q11 27 24 32l4 -4l8 12l-8 8q11 0 24 40q11 0 20 32q32 39 32 68q-127 -74 -296 -292l4 -4v-24l-12 -12h-4l-12 8h-4q0 -16 -20 -28h-4q-10 0 -12 16l8 16h-4
l-16 -8l-4 4v8l12 16l-12 16v12q39 35 96 104h4v-8h4v4l-4 16q-165 -116 -176 -116q-20 5 -20 12l4 12h-16q0 24 16 24v4l-8 16l48 24q105 64 116 64l-48 -36l-28 -24h4q134 85 200 148h-4l-32 -24l-4 4v4q84 71 84 108l4 4q22 56 40 56q16 -6 16 -12l20 8q18 -8 20 -16v-4
l-4 -28q8 0 8 -12q18 24 36 24q0 16 24 16q20 -1 20 -8l4 4h12q22 0 32 -20v-20l-4 -4v-4l12 -12v-8l-36 -40h-4l12 32v4h-4l-52 -108h8q0 11 20 20v-4l-28 -32l-4 4h-4l-4 -4v-4l4 -12l-12 -4v-8l64 68h-12v4l24 24h4l-12 -20h4l136 120h-4l-12 -8h-4v4q12 17 48 40l4 -4
v-4l-4 -4v-4l80 48h-4l-56 -32h-4l-8 8q98 60 120 60zM620 404v-4l12 4v8h-4zM332 372v-4l8 8v4zM712 376v-12l-8 8l4 4h4zM320 332v-12l52 44h-4q-38 -32 -48 -32zM536 348l4 -4v-8h-12v4zM264 268h4l44 48h-4q-34 -25 -44 -48zM496 316l8 -8l-12 -8h-4v8zM160 256
q-4 -13 -16 -16l-4 4v4q0 9 20 12v-4zM120 236h8l-12 -20h-16v4zM392 196v-8h4l8 8h-12zM148 184l-4 -16q8 0 8 12v4h-4zM376 172l-8 -16h4l8 12v4h-4zM532 47v-8l4 -12h4v12z" />
    <glyph glyph-name="n" unicode="n" horiz-adv-x="687" 
d="M359 458l12 -12l12 8h8l16 -16v-16l-8 -12v-4q12 0 12 -8v-4l-24 -24l-4 4v4h4l-4 16h-4q0 -26 -60 -108v-4h4l12 16l4 4h12v-4l-36 -32l-4 4h-4l-32 -52l124 112h-4q-14 -16 -28 -16v4q110 110 168 112q76 -7 76 -32l-4 -16l4 -40l-4 -4h-4l-4 16q-8 0 -8 -20
q-108 -205 -108 -232l4 -12l-8 -8q12 0 12 -12l24 -24h28q13 0 28 12h24q-8 -16 -24 -16v-4h4q42 0 137 80l16 4l8 -8v-12q-30 -44 -125 -100l-48 -20l-4 4q0 -9 -44 -12q-80 18 -80 80l-4 24q7 0 12 28l-4 12l64 144q5 0 12 28q10 0 16 40q7 0 12 20h-4q-61 0 -232 -152
q-106 -110 -124 -156l4 -12h-4l4 -4v-4q0 -12 -16 -12l-12 4q-10 -26 -20 -28h-8l-12 12l8 16l-4 4h-4l-8 -8l-8 8l16 24q-16 0 -16 12v8q51 47 76 92h4l4 -4h4v8h4l-4 4v4l8 8l4 -4l4 12l-4 4v4l9 6l-4 4l41 58l3 13l-47 -56l-181 -129q-69 -20 -69 -12q9 24 28 24v4
q-20 0 -20 8v8q3 9 100 64q0 12 16 20q8 0 8 -12q145 117 216 184v4h-4l-12 -8h-4v4q60 84 68 84h8zM463 378l20 8v4h-4q-16 -6 -16 -12zM435 362l-4 -4v-4l12 4v4h-8zM271 362h4v-4q0 -6 -16 -12v4zM407 342v-8l16 8v4h-4zM359 314h8v-4l-8 -8h-8v4zM135 246h4v-8h-12z
M119 234h4v-4l-12 -12h-4v4zM43 154q27 14 40 32v4q-20 -9 -40 -36zM712 138l4 -4v-4l-4 -4h-4l-4 4v4l4 4h4zM15 134h4l12 12zM643 90h4v-4l-8 -8h-4v4z" />
    <glyph glyph-name="o" unicode="o" horiz-adv-x="753" 
d="M570 520l4 -4l4 4h16l24 -4l12 4q27 -11 32 -24v-8l-4 -16l4 -16v-8l-8 -16h-8l4 20v4h-4q-7 0 -20 -44q19 0 28 -8l4 4q0 -12 68 -40v-4q44 -21 44 -32l12 -32q-14 -91 -76 -156q-104 -88 -180 -112q-54 -36 -236 -72h-12q-96 0 -132 96q0 36 -12 36q-92 -40 -165 -40
h-8l-20 24l-4 4h-4q0 20 24 20v4q-12 0 52 36l12 -4l41 -8v-4l4 4h8v-8l-28 -12v-4h12l20 16l4 -4h4l4 4v4l-8 8v4l8 8l4 -4h4q0 8 44 20v-4q0 -7 -44 -24v-4h4q48 16 48 28l-4 4v8l8 8l-4 4v4l32 64h8v-8l8 8v4h-8v4q0 8 20 8l-4 4v4q8 28 32 44l4 -4v-4l-20 -20v-4
q118 114 204 148l76 44h-8l-12 -8h-8v4q18 24 72 36v4l4 -4h4zM454 464h4v-8h-12zM542 436v-4l28 -4l4 12h-4zM366 420h8v-8l-16 -4v4zM198 172q191 95 300 184h-4l-16 -4l-8 20l8 8q-24 0 -24 8l16 4v12h-4q-217 -102 -268 -232zM346 404h4v-4l-8 -8h-4v4zM318 388h8v-4
q0 -12 -16 -12v-8h-16v4zM290 356q-3 -11 -20 -20h-8v4q12 20 28 20v-4zM182 116v-8l4 4h4q8 0 20 -48q20 -9 32 -32q24 -1 24 -8l4 4h4q8 0 8 -16h8q0 16 8 16h8v-12h-8v-4h12q40 2 40 12l-8 8l4 4h4l12 -12v-4q239 62 340 180v4q-16 -20 -28 -20v4q48 52 48 76
q0 50 -148 92l-112 -80q-82 -54 -280 -160zM450 336h4v-4l-12 -12l-4 4v4zM258 332v-4l-8 -8l-4 4v4l4 4h8zM242 212h4l-8 -8h-4zM634 160h8v-4l-12 -12h-8zM546 104h8v-8l-20 -4zM150 92v-20h4v20h-4zM486 76h4v-8h-12zM194 68v-4q6 -16 12 -16v8zM254 16v-4h16v4h-16z" />
    <glyph glyph-name="p" unicode="p" horiz-adv-x="795" 
d="M922 1002l16 -8l24 4l16 -16v-16l-8 -12q12 0 12 -8v-8l-16 -20l-4 4v4l4 4v4h-8q-9 -3 -24 -52q-86 -103 -272 -284q-103 -87 -128 -148l-48 -64q-65 -106 -84 -116q-15 -44 -36 -44q0 -21 -64 -104v-4q175 199 272 256q124 92 188 92v8l-20 -4v12l52 12q0 -7 36 -12
l16 4q48 -36 48 -64l4 -4l-4 -20h-4l-4 4h-4v-4l12 -32q-35 -124 -116 -184l-84 -56q44 0 131 8l23 -21l-32 -22h-28l-20 -4l4 -4v-4l-4 -4h-12v8h8v4h-4q-158 4 -158 -9v-4h-24l-160 -44h-4l-4 4l-8 -8h-12l-4 4h-4l-12 -12l-4 4l-20 -4h-48q-16 7 -16 24h-4
q-219 -272 -280 -396l-68 -112l8 -8v-8q0 -8 -12 -8l-12 4q-7 -18 -24 -28q-12 0 -12 32l-12 -8l-8 8v4l16 20l-12 12v12q35 24 52 48l4 -4h4q83 143 188 276q21 43 132 184l80 120l60 80q12 0 12 24l80 112q11 0 16 24q12 0 12 20q12 0 12 8h-4q-55 -42 -76 -68
q-7 0 -52 -44l-164 -140q-141 -143 -216 -160q-16 6 -16 12l4 4v4q-24 8 -24 16t24 16v4q-12 0 -12 8q0 24 32 24q92 30 92 48q12 0 40 24h4v-8l-56 -48h4q218 166 500 428l220 284l-4 20q9 0 52 60q37 60 60 60zM862 922v-4l8 8v4zM846 906v-8q-16 -1 -16 -16h4l16 20v4h-4
zM838 834q-19 -28 -28 -28v-8l32 36h-4zM770 754h4l28 32v4zM726 478h8v-12h-8v12zM666 450v-4l-8 -8h-4v8zM746 414v4q-84 -5 -300 -188q-104 -105 -104 -116h4l24 4l40 -8l8 8h8v-12h-8v-4h4l16 4l12 -4l4 4v4l-4 4l4 4h4v-12h24l32 8l12 -4v8h4v-8h8l-4 4v4l12 8h4v-8h-8
v-8h4q181 60 264 160v4l-68 -60h-4v4q104 93 104 140q-8 64 -52 64zM182 234h4l-12 -12h-4zM796 87h20v-8h-8l-4 4h-4l-4 -4v8zM626 86h12v-8h-12v8z" />
    <glyph glyph-name="q" unicode="q" horiz-adv-x="1022" 
d="M774 566h4l8 -8l28 4h4l12 -12v-4l-8 -28h4l8 -8v-8l-12 -12l-16 12q-13 -39 -52 -72q-136 -112 -140 -136q-191 -255 -268 -376l4 -4v-8h-12v-4h16q92 0 307 68h4l4 -4h4q4 16 74 30v-4l96 49l111 51l12 -4l24 16l4 -4q36 24 60 24l8 -8q0 -14 -96 -40q-23 -18 -135 -63
q-75 -17 -134 -59l-135 -44q-64 -20 -168 -36l4 -4v-8h-20v8h8v4h-4l-48 -4l4 -4v-4l-8 -12v-24q0 -251 -132 -528q-38 -48 -72 -48q-52 22 -52 96v12l12 16l-4 4v4l8 8l-8 8l12 4v8h-8l8 8l-4 4v4q12 19 40 120l48 100q13 43 28 48l-4 4v4l40 72h4l-4 4v4l40 72
q0 10 -36 12l-36 40v4l8 28q-8 0 -8 12q5 36 36 36l12 -4l4 4q49 0 64 -40v-4l-4 -4v-4h8q59 101 200 304h-4l-92 -76q-12 0 -24 -20q-11 0 -64 -48l-64 -40q-92 -61 -164 -68q-31 0 -52 56v12q11 80 36 80l-4 12q8 18 16 20l4 -4h4q7 26 -9.5 22t-58.5 -50l4 -4v-4l-8 -8
l-4 4q-20 -25 -24 -48l-20 -8q-8 9 -8 28h-4l-4 -4h-4l-4 4v8l12 24l56 72h4v-4l-12 -16h4q178 171 352 236q149 64 276 80v4h-8v4q0 9 44 20q34 39 68 44zM634 506l12 -4l4 4l4 -4v-4l-24 -4l-4 4v4l4 4h4zM558 378l-4 4l-8 -8h-8l-4 4q-11 -8 -64 -16l-4 4l-8 -8h-4l-4 4
h-4q0 -7 -100 -40q-157 -86 -224 -224l4 -12h-4q9 -24 16 -24h4l16 4l4 -4h4l28 8v-4q0 -8 -12 -8v-4h12q131 51 392 268l-4 4v8q16 35 24 36l-4 4v4l4 4v4h-4zM110 258h4v-4l-8 -8h-4v4zM54 214h12v-12h-12v12zM138 214h8v-4l-4 -12h-8v4zM42 114h8v-4l-8 -8h-4zM230 86h4
l-12 -12v4zM74 58l4 -28h4v24l-4 4h-4zM294 -46l8 -8h4v8h-12zM314 -66v-4l4 -12h4v4l-4 12h-4zM222 -78v-16h8l-4 16h-4zM414 -126h12v-8h-12v8zM214 -310l4 -12q-104 -226 -104 -312q0 -23 24 -32q24 0 52 48q28 51 72 184l4 4l-4 12h8l-4 20l12 4v4l-8 12h8v4l-4 12h4
q8 0 8 24l-4 4l8 8l-8 8q12 0 12 28v4l-4 4v4l8 8v24h-8v4q10 0 12 16l-4 4l4 20v36l-80 -144h-8zM82 -642v-16h4v16h-4zM82 -670v-16h4v16h-4z" />
    <glyph glyph-name="r" unicode="r" horiz-adv-x="703" 
d="M506 513h12l16 -12l8 8h16q8 -2 16 -20l-12 -24q16 0 16 -8v-12q0 -9 -40 -12q0 -17 -76 -44q-142 -120 -184 -208q-44 -83 -44 -120v-12l8 -12l-8 -12l4 -20h4v12l-4 4h4l36 -36v-8l-4 -4v-4l16 -4l-4 4v4l4 4h12q6 0 12 -16q99 0 396 168l8 8h16l8 -8v-12
q-7 -24 -48 -44l-144 -60l-20 -8l4 -4v-8l-64 -28l-8 8q0 -14 -36 -28q0 -8 -56 -20l-4 4q0 -10 -80 -16q-51 0 -92 80v8h8v-12h4v8l-4 12h4l-4 24h-4v-24h-8v40q0 8 12 8v4l-8 8q42 124 68 144q2 18 104 144h-8q0 -8 -12 -8q0 -12 -8 -12v4l4 4v4h-4l-56 -16l-20 4
q-31 0 -84 -84l-68 -94l-89 -89l-56 -9v4l-16 4v16q0 11 20 12v4q-12 0 -12 8v8q2 10 17 2l40 24h4v-4l-20 -24h4l52 40v8l-20 -12h-4v4l20 20q8 0 8 -12q119 131 132 166l-4 4q12 0 12 8q-40 24 -40 52l12 8l-8 24v4q0 36 48 36q58 0 68 -24v-20l-4 -4v-4l4 -4h4
q143 28 208 88zM170 385l8 -8v16zM162 295l4 -4v-4l-4 -4h-4l-4 4v4l4 4h4zM138 263h4v-8l-16 -4zM106 227h4l-16 -16v4zM86 211h8v-8l-8 -8h-8v8zM62 191h4l8 -8v-4h-12v12zM350 -19h12v-8h-4z" />
    <glyph glyph-name="s" unicode="s" horiz-adv-x="766" 
d="M732 773h16l16 -12l8 8h12l16 -16q0 -24 -16 -24v-4q20 -1 20 -12l-12 -12h-4l-4 4h-4l-40 -56q-11 -23 -68 -76q-66 -92 -139 -316q-36 -89 -84 -172h36l4 4h4v-4l12 4q76 0 140 16v12h8v-4l-4 -4v-4h4q30 0 164 36l12 -12v-8q0 -12 -16 -12l4 -4v-4q-29 -19 -108 -32
l-20 -4l-4 4l-8 -8h-8l-8 8l8 8h-4l-12 -4l4 -4v-4q0 -11 -120 -20l-4 12h-12l4 -4v-4l-8 -8h-32l-4 4h-4l-8 -12l-28 4q-31 0 -60 -48q-58 -56 -132 -56q-44 29 -44 52l4 32l-4 4v4q12 54 52 76h12l4 -4l4 4h20l4 -4h4l8 8q80 -6 80 -12l20 8l4 -4l24 44l-4 4v4
q24 39 24 56q9 0 32 60q30 64 39 72l-4 4v4q29 92 44 92l-8 8l20 44l-96 -76q0 -9 -72 -64l-4 4h-4l-115 -94v-8q-25 -9 -72 -48q-150 -113 -232 -144h-12q-8 0 -8 20q-16 0 -16 8v4q8 16 24 16v4q-12 0 -12 8v12q0 7 68 24q0 12 40 16q0 12 8 12h16v-4l-36 -28h4
q184 100 295 198q107 77 268 228l8 8l-4 16q6 0 20 36q10 0 40 80q14 0 16 28zM101 191h16l-8 -8h-8v8zM593 113h4v-12h-12v4zM565 109v-12h-4l-8 8l4 4h8zM521 105v-12h-4l-8 8l4 4h8zM469 101l8 -8v-4h-8l-8 8l4 4h4zM281 13h8l52 16v4h-4q-56 -10 -56 -20zM329 13v-4h4
q17 6 24 20zM217 -3v-20l8 8l-4 12h-4z" />
    <glyph glyph-name="t" unicode="t" horiz-adv-x="320" 
d="M902 1313h13l9 -9v-14l-4 -4v-5h9q0 27 9 27h14l13 -13v-5q-7 -18 -27 -18q0 -50 -27 -63q-127 -149 -299 -403v-4l5 4h4l18 -4l9 9h9v-5l91 14v-5q18 7 18 14l23 -5l13 9l14 -4q131 13 154 22l4 -4v-5q36 5 36 14l32 -5h9l9 9l18 -4q150 9 150 18l22 -5h27q23 0 23 9
l23 -4h36l9 9l27 -5l253 10l5 4v5l23 -5h131l13 9h5l4 -4l14 4l5 -4h4l14 4v-4l4 4l32 -4l113 4l23 -9l27 5l135 -14v9l50 5l14 -9l45 9l18 -9l27 4q23 -6 23 -32v-4q0 -9 -14 -9v-5q23 -3 23 -13v-9l-9 -9h-14l-18 13l-13 -4l4 -23l-9 -9l-50 9q0 -16 -49 -23h-14
q-9 0 -9 28q-23 0 -23 9q0 10 23 13v5l-18 9l-14 -5q-5 23 -13 23h-9l4 -5v-9h-4l-5 5h-4l4 4v9q-104 5 -104 18l-18 -4l-104 4l-72 -4l-105 4l-4 -4h-5l-4 4h-5l-54 -9l-50 5l-59 -5l-4 5l-86 -9l-5 4h-4l-5 -4h-4l-5 4l-72 -13l-23 4l-13 -4v4l-27 -9l-37 5l-49 -9l-28 4
l-45 -9l-13 5l-28 -9l-22 4l-32 -9l-4 5h-5l-32 -9l-22 4l-18 -4l-5 4l-9 -9l-18 5l-27 -9l-5 4v5l-36 -14l-27 5l-9 -9l-18 4l-27 -9l-5 5l-27 -9l-18 4l-9 -9h-5l-4 5l-5 -5h-4l-5 5l-41 -14l-13 4l-9 -9h-9l-5 5q-77 -20 -77 -54l-154 -218q-50 -63 -67 -104q-9 0 -9 -22
l-32 -55q-12 0 -18 -45q-13 0 -73 -172l-4 -27q13 0 13 -13h9q45 5 71 45l27 27h4q9 0 9 -23h5l18 14h5l9 -9v-9l-32 -41l4 -4v-14q-59 -49 -124 -77q-37 0 -68 50v31h9v-22l9 -9v4l-9 46l18 45l-4 13q13 0 13 28l50 104q18 3 18 36q-108 -155 -185.5 -213.5t-77.5 -40.5
h-14v14q13 23 27 23v4q-18 0 -18 9v9q0 12 68 45l23 23q9 0 9 -18q129 132 277 344l163 244v9l-5 -4h-9l-23 4q0 -10 -76 -27l-5 5h-5l-158 -36v-10h-9v5l5 5v4h-14q-9 0 -9 -18h-18v9h9v5h-5q-19 -5 -22 -23h-5v4l-4 -4h-5l-9 9l14 4v5h-5l-18 -5l5 -4v-5q0 -9 -46 -13
l-4 4l-59 -9q-17 0 -36 32q-14 0 -14 9v5l18 18l-4 4v14l13 13l23 -9l18 5l59 -27h4q3 18 14 18h5v-14q-14 0 -14 -9l348 50l14 -5l14 14h4l5 -5l18 9l13 -4q75 118 141 199l190 267h-9v14l13 18l-4 4v5zM956 1254h5v-9h-14zM277 344l-9 -18v-4h5l9 18v4h-5zM54 145v-4h9
q0 11 19 13v9zM280 82q0 -8 -3 5v-9h12v4h-9z" />
    <glyph glyph-name="u" unicode="u" horiz-adv-x="763" 
d="M654 487h4l8 -8l20 4h8q24 -10 24 -32l-4 -20l8 -8v-8q-17 -48 -28 -48l-4 4v4l16 20v12q-17 0 -28 -52q-140 -112 -140 -140l-16 -40q0 -52 37 -88l4 4h4q20 -5 20 -12l4 4l40 -8v-8h-28v-4h32l48 20l31 23l-27 -31v-4l27 27l77 32l8 -12v-8l-20 -28l-54 -40l-4 4h-4
l-31 -35h-4l-4 4l-24 -8h-24v4l4 4v4h-28v-4h16v-4l-40 -8q-69 0 -108 88v24q8 0 12 -32h4l-4 20v24l-12 4l12 68l-140 -96q-132 -96 -224 -112l-4 -4h-12q-33 0 -48 28q-12 2 -12 28q8 61 20 72v8l-4 -4l-58 -40q-7 0 -12 20h-12v8l24 28q51 40 82 88l76 68q25 45 64 92
l64 72q0 12 24 28h16l8 -8l20 4h12q7 0 16 -24l-4 -16l8 -12q-2 -32 -32 -32v4l4 12q-16 0 -16 -36q-133 -104 -176 -156q-68 -116 -68 -140l20 -12l84 20l4 -4v-4l-12 -12h4q79 36 256 160q59 42 72 64h8l-8 12q8 18 16 20l4 -4v4l-4 4v4l28 60l40 76q23 20 40 20zM242 99
l-12 -12l-4 4v4l4 4h12zM58 47v-16h4v16h-4z" />
    <glyph glyph-name="v" unicode="v" horiz-adv-x="750" 
d="M399 432q20 -1 20 -8l4 4h24q16 -6 16 -28v-4l-8 -12q16 -2 16 -12v-4l-20 -20h-4v12h-8q-26 -61 -84 -160q-24 -40 -36 -92q8 0 20 -48l4 4h4l16 -16l4 4h16l4 -4q10 8 40 8q0 10 40 20h4q-8 -16 -24 -16v-8q72 28 136 112l-8 8q26 17 44 104q-1 22 -32 64v8q1 16 8 16
l-8 20q0 40 32 40l12 -12l24 8h4l16 -16v-20l-4 -4v-4q12 0 12 -20l-24 -80q0 -128 -172 -256q-70 -38 -112 -40q-80 5 -80 32q-28 19 -28 60q9 55 24 80l-4 4v4q29 71 48 92l-4 12q12 0 12 20l16 20h4v20q-118 -74 -296 -224q0 -15 -72 -56h-4q-14 24 -28 24v4q14 24 24 24
v4q-16 0 -16 8v8q5 13 76 44q0 13 40 32h4v-4l-12 -16v-4l256 196h-8l-20 -16l-8 8q86 76 100 76zM599 348v-8l8 -8v16h-8zM227 300l8 -8l-48 -36h-4v8zM171 256h8v-4l-12 -12l-4 4v4zM135 228l4 -4v-4l-4 -4h-8v4zM123 216v-4q-9 -20 -28 -20v4q6 20 28 20zM43 144v-4h8
l4 4v4zM539 128v-4l-16 -16h-4v8q0 7 20 12zM507 108h8v-4l-12 -12h-8v4zM279 64v-16h4v16h-4z" />
    <glyph glyph-name="w" unicode="w" horiz-adv-x="877" 
d="M328 398h8q8 0 8 -12l24 8h4l12 -12q0 -28 -8 -28l8 -24l-16 -12h-8v8h-8q0 -30 -56 -68l-104 -88q-80 -111 -80 -152q14 -28 20 -28h12l20 4v-4q40 12 116 56v-4q-3 -11 -84 -52v-4h8q101 48 196 144l4 4v4h-8v4l16 16l52 116q3 88 44 88q16 -1 16 -8l4 4h24
q20 0 20 -56l8 -8q0 -25 -20 -36h-4l4 4v8l-8 8q-17 -48 -56 -104q-8 0 -8 -20h-4l-4 4h-4q-67 -96 -80 -180l-4 -4v-4q12 0 12 -12l4 -4h4q42 6 76 36h12q0 -9 -44 -32l-4 -4v-4h8q79 43 156 144l-4 4v8l8 8l4 -4h4l24 40l-8 8q15 11 36 96q-28 41 -28 56v12l8 8l-8 24
q5 30 16 32q76 0 76 -24l4 -48h-4q11 -12 27 -15l4 4h4l-3 -67q40 -60 51.5 -72t61.5 -29l31 -8l-7 -76l-68 6l-11 42h8v4h-12l-12 -8v-4q-68 43 -91 91l-15 44q-11 -99 -136 -236q-128 -116 -176 -116h-16q-44 31 -44 76l4 4h4l-4 4l12 40l-4 12q9 0 16 40
q-27 -31 -132 -100q-78 -36 -120 -36q-36 0 -60 56v20l8 8l-4 4v4q0 18 44 96h-4q-68 -52 -93 -52l-20 28l20 28q-12 0 -12 12q0 17 53 20l56 40h12v-8l-16 -4v-8h4l92 68v8l-12 -8h-4v4q0 7 28 24q5 20 12 20h4l-4 -4v-8h4l12 20l-8 8q19 32 32 32q0 16 52 72zM260 310h4
l8 8h-4zM664 318v-16h8v4l-4 12h-4zM248 302l-8 -8v-8l12 12v4h-4zM156 214v-4l-8 -8h-4zM68 138h4l16 12h-8zM44 126v-4l16 12v4h-4zM388 134h4l-16 -16v4zM352 102h4v-8h-12zM608 94v-4l-4 -12h-8v4zM588 74l4 -4v-4l-4 -4h-8v4zM308 66h4l-8 -8h-4zM552 38h4v-12h-12v4z
M68 -18l-4 -12l4 -12h4v24h-4zM352 -58v-12l4 -12h4v4l-4 20h-4z" />
    <glyph glyph-name="x" unicode="x" horiz-adv-x="1223" 
d="M983 472l24 -8l12 4q27 -10 32 -28l-8 -24h4l8 -8v-12q0 -9 -20 -12l-20 4q0 -24 -24 -24l-32 4q-90 -44 -240 -192q-40 -42 -40 -60v-4q12 0 12 -8l-8 -16l28 -48v-4l-8 -12h8v8h8q16 -8 16 -20l4 4h4l24 -12v-8l-4 -4v-4h8q0 12 16 12l8 -12l-8 -8l32 -4l4 4l20 -4
q69 0 431 143h8l8 -16q-4 -16 -16 -16l4 -4v-4q0 -8 -307 -127q-43 -16 -88 -16l-4 4l-8 -8h-40l-40 -4l-4 4v4l-12 -4q-112 34 -112 68q-17 0 -32 60l4 4h4l4 -4v8h4l-4 12h-4q0 -16 -20 -16q-6 -18 -92 -64q-98 -104 -152 -104q-11 1 -40 40l8 24l-8 20q9 34 32 44
q71 45 188 72l36 24q76 82 76 116q12 0 12 12h8l-4 4v4l4 4l-4 4q28 38 28 80v20q0 31 -52 40l-4 4h-36l-48 -4l-4 4q0 -8 -36 -8q0 -8 -24 -12l-4 4q0 -10 -122 -52q-185 -128 -222 -160q-30 -24 -68 -72q-8 0 -60 -49q-9 0 -75 41l-11 -24l62 7l-44 18l-7 27l75 22l40 34
q0 12 24 12l20 24h4q8 0 8 -12q344 244 496 244h24q0 8 -16 8v8h4l4 -4l4 4h4l44 -8l12 4q64 -20 64 -72h-4q-10 0 -12 16h-4v-4l20 -44q-11 -16 -20 -68l44 44h-4l-20 -16l-4 4v4l68 64q60 44 152 80zM551 460h12l-8 -8l-4 4v4zM843 376h4l16 8v4h-4zM159 248h4v-4
q-4 -12 -24 -12zM95 192v-12l20 20h-4zM1266 135l4 -4v-4l-32 -8v4q0 8 28 12zM683 56v-12l4 -4h4v4l-4 12h-4zM1214 119h12l-8 -8l-4 4v4zM907 0h4v-12h-12v4zM867 -4h8l8 -8l-4 -4h-12v12zM347 -52v-12h8v12h-8zM875 -52v-4h16v4h-16z" />
    <glyph glyph-name="y" unicode="y" horiz-adv-x="450" 
d="M717 556l12 -8l24 4q11 0 20 -20l-8 -24q12 0 12 -16q-3 -15 -32 -28v4l8 12v16q-8 0 -28 -52q-182 -154 -288 -228q-76 -92 -196 -272v-4h4l175 121l43 60h-12q1 20 8 20l-4 4v12l16 16h8q12 0 12 -16h8q0 12 8 12h8l16 -16v-8l-36 -40l4 -16q-105 -86 -290 -201
q-109 -165 -292 -500l-88 -152l8 -8l-12 -12h-4l-4 4h-4q-5 -16 -20 -24h-12q-40 23 -40 88h4l-4 4v76l12 16v4l-8 12v8l8 8l4 -4v8h-8v12l12 16l-8 8l12 4l-4 4v4q0 48 48 120l-4 4v8l8 8l4 -4q18 44 124 136q78 66 256 180q66 110 156 236v4h-4q-90 -66 -196 -112h-28
l-20 -4l-28 40l4 32l-4 4h-4q-64 -50 -81 -40q-13 28 1 28l-12 16v12q0 9 44 24l52 44h8v-16l56 52h-4l-36 -28h-4v4l56 56l4 -16l12 16h-8v8l8 8h8v12h8l4 4l4 -4v-8l12 16h-8v8l8 8h8v8l8 8h8v8l8 8l12 -8l4 4v4l-4 16h8l4 -4h4l4 4l-4 4v4q0 7 24 12q0 20 60 68
q0 10 32 32q30 44 44 44q16 -6 16 -12l20 8q18 -8 20 -16q0 -28 -20 -28v-4h4l16 4l8 -12v-4q0 -9 -44 -24q-176 -121 -300 -308l-4 -12h4q59 11 104 36v-4q0 -12 -20 -12v-8h4q220 116 220 160l148 168h-4l-12 -8h-4v8q10 19 80 72l32 16v-4zM523 125h4l8 -8v-4l-8 -8h-12
v12zM447 121v-4l-8 -8v4zM573 456h4v-8q0 -9 -20 -12v4zM541 348v-8q97 79 116 104h-4l-16 -16q-15 0 -92 -80h-4zM549 424l4 -4v-4l-4 -4h-8v4zM369 228l-12 -12l-4 4v4l4 4h12zM337 212h4v-4l-8 -8h-4v4zM45 148h4l24 28q-10 -1 -28 -28zM265 168h4v-8h-12zM189 120v-4h4
l20 8v8h-4zM89 100v-24h4v24h-4zM145 -152q0 -12 -8 -12h-4l-4 4h-4q-1 -11 -20 -16q0 -16 -8 -16l-4 4h-4q-8 -18 -16 -20l-12 4q0 -15 -32 -32q-124 -103 -144 -128q-100 -105 -100 -288v-20q16 0 16 -40l4 4h4l4 -4h4l8 12h-8v4l4 4v4l4 -4h8l8 16h-8l8 8l4 -4l296 496
l8 20v4h-4z" />
    <glyph glyph-name="z" unicode="z" horiz-adv-x="1387" 
d="M786 379h12l12 -12l20 4q20 -3 20 -12v-12l-16 -20q20 -1 20 -12l-20 -16h-8v4l8 20q-16 0 -16 -36l-272 -168l-4 4h-4q0 -11 -36 -32l-12 4q0 -19 -28 -24q0 -9 -32 -20q0 -16 -52 -36l-40 -36l-4 4h-4l-20 -24l-12 4q-2 -15 -36 -32q-11 -20 -36 -20q0 -16 -68 -60
l-60 -64l-4 -4l-4 -12h4l12 -8h8l32 8v-4l20 8l4 -4v-4q-20 -5 -20 -12h4l24 4l-4 4v12h8v-8l4 4h8l4 -4q843 337 1070 365l4 -4h4l96 12l4 -4l36 4l-4 4v4l8 8l32 -8h12v-8h-12l12 -16v-12l-12 -12l4 -12l-4 -4h-4l-104 8l-8 8v4h24v4h-12q-36 -2 -36 -8v-8h-28v8h12v4h-8
v4l-24 -8l4 -4v-4l-4 -4h-16v8h8v4h-16l-20 -4l4 -4v-8h-16v8h8v4h-12l-20 -4l4 -4v-8h-4l-8 8l4 4h-4q-20 0 -20 -16h-8v4l4 4v4q-72 0 -706 -257l4 -4v-8l-20 -8l-4 4v4h8v4h-4l-12 -4l4 -4v-4l-12 -8l-4 4v4h8v4h-4l-16 -4l4 -4v-8h-4l-20 4l4 -4v-4l-4 -4h-4l-4 4h-8v-4
h8q-77 -43 -184 -76q-49 -28 -100 -28h-4q-26 0 -52 48l8 20l-4 4v4q0 37 60 80h4l-16 -24v-4h4q0 9 68 68q206 158 504 344l92 68h-8l-12 -8h-8v8l-60 -12l-4 4q0 -8 -32 -12l-4 4l-8 -8l-12 4l-8 -8h-4l-4 4h-4l-8 -8l-4 4h-4l-156 -44l-8 8h-8l4 -4v-8l-160 -48v8h-4
q0 -19 -60 -32q-24 -18 -200 -84h-12l-12 12l4 4q-16 0 -16 8l20 28q-12 0 -12 8v8q0 10 112 36l4 -4l12 12l12 -8l12 12h8v-4q0 -12 -44 -16v-8q216 80 568 172l116 24l-4 4v8l4 4v4l20 -4h8zM706 359h12v-12h-12v12zM542 275v-4h16v4h-16zM522 263h4l8 8h-4zM454 251v-4
h16v4h-16zM418 239v-4h4l20 4v4h-12zM34 -269l4 -4h4v12z" />
    <glyph glyph-name="braceleft" unicode="{" horiz-adv-x="774" 
d="M596 -551h-20q-98 25 -132 52q-14 0 -24 20q-17 0 -52 56v8h12l-8 32h-8l8 -24h-8q0 36 -36 36q-10 11 -52 20v4l-4 -4h-4q-19 18 -68 36q-144 106 -144 216h4l-4 4v28l4 4l-4 4v4q30 140 228 332q144 139 144 152q0 106 -84 196l-72 -20h-8l-16 4l-4 -4h-4
q-72 10 -72 28l-56 -32q-20 5 -20 12v8q0 6 16 12l-4 4v4q12 13 52 32q0 12 8 12h4l4 -4h4q0 32 20 32q32 -20 52 -20l8 8h4l8 -8l12 4l32 -8q77 24 168 72l4 -4h4q0 12 12 12q0 10 32 12v8l4 -4h4l8 8v8q23 0 32 20q23 0 120 80l4 12q0 97 -92 176q-8 0 -8 12q-31 0 -44 20
h-4l4 -4v-8h-12q-8 0 -8 16h-24l-4 4l-44 -12l-4 4l-32 -12l8 -12v-4l-8 -12h24v-4q0 -8 -12 -8l-4 -4v-4q24 -27 24 -36l-8 -24l4 -32q-23 -36 -64 -36q-70 15 -72 32q0 16 -20 32l-20 -4h-8l-12 12v20l4 4v4l-12 12v4l20 16l4 -4v-4h-4l4 -12h8q8 43 32 56q74 47 112 52v4
h-20l-56 -4v4l-4 -4h-4l-12 8h-28l-80 -4q0 7 -24 12l-32 -8h-4l-4 4l-4 -4h-4l-12 8l-40 -8l-20 8l-4 -4h-4l-108 12l-8 -8v12h-12l4 -4v-8l-32 -8q-16 6 -16 12l-16 -8q-18 8 -20 16v12l12 16q-20 1 -20 12v4l12 12h4l8 -8q13 0 24 28l116 8l24 -4l24 4q38 0 44 -28
q16 0 16 -12l-4 -4h-8l-4 4h-4v-16l24 -24h36l36 -8l28 4l72 -8l4 4h4l4 -4h4l36 4l96 -8l84 8l8 -8l96 -4l4 4l20 -4h76l4 -4l4 4h4l120 -4v-4l4 4h40l4 -4l4 4h24l4 -4l4 4h56q261 214 388 260q103 50 300 88l4 -4l36 8l20 -8l12 12l16 -8q51 12 92 12h28l24 -4l4 4h4
q40 -3 40 -12l12 8q148 -16 264 -68l28 -16l12 4l8 -20l4 4h4l16 -12l-4 -4v-4l12 -12l4 4h4q23 0 52 -112l4 -24l-4 -16l4 -4v-4l-8 -8l8 -12l176 8l4 4v4l-4 4l4 4h20v-8h-16v-4h20l20 4l-4 4v4l4 4h20v-8h-12v-4h12l12 4l-4 4v8l24 4l4 -4v-8h-12v-4h12l20 4l-4 4v4l8 8
h20l8 -8l-4 -4l4 -4l12 4v4h-8v4l8 8h36l8 8l20 -4h12l12 8h28l76 8h20q20 0 44 -36v-16q-12 -36 -24 -36q-48 4 -64 16l-20 -8l-40 8l-24 -4h-4l-8 8l12 4v4h-8l-24 -20h-8l-8 8l8 8h-4l-356 -28v4l-4 -4h-40q-75 -111 -176 -148q-70 -28 -120 -28h-40l-20 4l-8 -8v4l4 4v4
h-8l-4 -4h-4l-4 4q0 8 -28 8l-44 48l-12 44v52h-12l-12 -8h-4l-8 8l-4 -4h-44q-48 0 -48 -8l-20 4h-84l-12 -8l-12 4l-4 -4l-20 4h-84l-16 -4l-4 4l-16 -4l-468 -8h-12l-156 -132l-148 -120v-24h8v-8q-12 0 -12 -20l8 -8v-4h-8v-8h8v-4h-12v-12l4 -20l-8 -8l4 -4v-4l-4 -4
h-4l4 -4q-22 -110 -232 -324q-36 -23 -36 -36l4 -4l-4 -20v-32l4 -16l-8 -36l4 -4v-4l-16 -88l4 -4v-4l-20 -120l4 -4q-9 0 -12 -40l4 -4q-11 0 -24 -140q-8 0 -8 -64l4 -12h-8v-8q12 0 12 -8v-4h-12v-12l-4 -36q2 -20 12 -20v-4h-8v-16l4 -20l4 4h4q0 -31 28 -32l4 -4v-4
l-4 -4h4l12 8l8 -8l-4 -4v-4h20v4h-8v8h16v-16h32v4h-16v8h32v-4l-4 -4v-4q32 0 32 -8l28 4h4l44 -4l32 12q0 12 8 12h16q8 0 8 -12h8q0 16 8 16l20 -4l8 8l12 -4q0 9 36 12l4 -4q0 7 108 36l132 60l8 -12l-4 -4q16 0 16 -8v-8q0 -7 -44 -32h8l24 12l4 -4v-12
q0 -18 -140 -56v8q16 2 16 12h-4q-20 0 -20 -20h-4v8h-12q-97 -24 -208 -40v4l-12 -4l-28 4l-44 -4l-32 4l-20 -4q-52 3 -52 8l-4 -4l-44 8q0 -31 156 -80l28 -28l-4 -4l4 -4v-12h-8l4 -20zM416 -455v4q-8 0 -32 32v-4q16 -31 28 -32h4zM824 -395v12l16 4l4 -4v-4l-4 -4h-4
l-4 4zM608 -375h-40v8h40v-8zM748 -359h-4l-8 -8h4zM356 -335l-8 60q27 241 68 468q16 70 16 168v20q-288 -277 -288 -320q-19 -16 -48 -120l4 -4v-40h-8v28h-4v-16q3 -40 12 -40l4 4l8 -32l-4 -4q6 0 52 -68q75 -61 180 -100zM388 -315v20h8v-12zM708 869
q-155 -111 -240 -156l-104 -60h4l28 12l4 -4v-4q-20 -5 -20 -12l32 -40v-4h-8q28 -39 48 -136v-4l-4 -4v-4l4 -4q16 0 140 140q116 148 116 280zM740 925q45 45 108 88l132 112l16 20l-384 8h-4v-4q58 -31 96 -104l8 -16l-4 -4v-4l28 -96h4zM2164 1057l4 -4h4q37 5 92 44
q84 66 84 84h-48l-24 8l-12 -12h-40l-8 8l-4 -4h-4l-4 4l-36 -12l-4 4l-16 -4q-56 3 -56 8l-32 -12l-52 8l-12 -12h-8l-20 4l-12 -24v-12l4 -28h4v8l-4 12h8q0 -54 84 -76v-4l-4 -4l20 -4h32q64 0 64 20zM2100 1041h-40v8h24l4 -4l4 4h16zM500 1109l-8 8l4 4h4l8 -8l-4 -4
h-4zM1280 1161l248 8v-4l4 4h40l92 8l48 -4l4 4h4l4 -4h4l60 8l40 -4l56 4l4 -4l8 8l32 -4v4q32 83 32 100l24 20h4q8 0 8 -16h4q0 28 12 28h12q10 0 12 -16l-4 -12l4 4h8l8 -8l-8 -24l8 -20q-5 -40 -36 -40l-12 12l-16 -8l-12 4l-8 -24l16 4l32 -4l40 8l24 -4l36 4l4 -4
q0 8 48 12l16 -8l12 4v-4l4 4h8l4 -4h4q0 7 28 12l4 -4h4l12 4l16 -8q8 7 64 12l16 -4q12 21 12 40v12q0 141 -240 212v4l-4 -4q-85 20 -140 24v4l-28 -4h-84l-88 4l-8 -8h-8l-12 8q0 -11 -140 -28q-236 -66 -296 -120q-118 -56 -268 -192h8l4 4l20 -4h4l16 4l16 -4l12 4
l4 -4l68 4h48l4 -4l4 4h8l4 -4zM2540 1225h-12v8h12v-8z" />
    <glyph glyph-name="bar" unicode="|" 
d="M961 1147q88 -12 88 -48l12 -12l-4 -20l8 -8l-16 -48l4 -4q-28 -209 -240 -532q-15 -35 -104 -164q-62 -105 -184 -280l-52 -100l4 -4l4 4h8q13 -12 36 -12l4 -4v-16q0 -8 -20 -8v-4q28 -9 28 -16l-4 -4h-4l-16 12l-12 -20l4 -16l-4 -4h-12l-40 40q-4 -32 -12 -32h-8
q-8 0 -8 44h-4q0 -20 -12 -20v8l4 20q0 31 -76 116q-20 28 -20 44q-12 0 -12 16l-40 48l4 4v8q-12 1 -48 92q-88 184 -88 348v36q0 40 -12 40v4l12 4l-4 44l8 44l-12 32l4 4h4l4 -4l4 4q0 12 -12 12v12l8 8l4 -4v8h-8q11 59 20 64l-4 4v4l28 56l-4 12q25 44 60 44
q96 0 148 -92q0 -12 12 -12l4 -4v-20h-16l20 -36h4v8q-12 4 -12 24h4q31 -15 56 -108l4 -4h8l52 76l48 56l4 -12h4q37 63 176 164q118 72 168 76l-4 4v4l-28 -8l-4 4v4l44 16q8 0 8 -12l4 -4h20v4l-4 4v4zM865 1123v-4q0 -10 -36 -20v8zM897 1067v4q-239 -88 -388 -336
l-8 -24l4 -4q-32 -16 -32 -52l4 -12l-4 -4l-4 4h-4l-8 -8l4 -20l-20 -16q-40 24 -40 92q-66 232 -160 232q-68 -28 -68 -100q-20 -72 -20 -176q0 -389 276 -680h4q8 0 16 24q9 2 20 32l4 4h4l12 -4v4q317 469 440 708h8l-4 4q76 199 76 264q0 72 -48 72h-24zM745 1059h4v-4
l-8 -8h-4v4zM681 1011l4 -4v-4l-24 -16v4zM625 967h12l-8 -16h-4l-8 8zM597 935h4v-4l-8 -16h-8v8zM577 911l4 -4l-4 -12h-8v8zM357 903q0 -6 16 -12v4l-8 8h-8zM549 863v-4l8 8v4zM501 695h4v-12l-12 -12l-4 4v4q6 16 12 16z" />
    <glyph glyph-name="braceright" unicode="}" 
d="M384 1582h20q98 -25 132 -52q15 0 24 -20q17 0 52 -56v-8h-12l8 -32h8l-8 24h8q0 -36 36 -36q10 -11 52 -20v-4l4 4h4q19 -18 68 -36q144 -106 144 -216h-4l4 -4v-28l-4 -4l4 -4v-4q-30 -140 -228 -332q-144 -139 -144 -152q0 -106 84 -196l72 20h8l16 -4l4 4h4
q72 -10 72 -28l56 32q20 -5 20 -12v-8q0 -6 -16 -12l4 -4v-4q-12 -13 -52 -32q0 -12 -8 -12h-4l-4 4h-4q0 -32 -20 -32q-32 20 -52 20l-8 -8h-4l-8 8l-12 -4l-32 8q-77 -24 -168 -72l-4 4h-4q0 -12 -12 -12q0 -9 -32 -12v-8l-4 4h-4l-8 -8v-8q-23 0 -32 -20q-23 0 -120 -80
l-4 -12q0 -97 92 -176q8 0 8 -12q31 0 44 -20h4l-4 4v8h12q8 0 8 -16h24l4 -4l44 12l4 -4l32 12l-8 12v4l8 12h-24v4q0 8 12 8l4 4v4q-24 27 -24 36l8 24l-4 32q23 36 64 36q70 -15 72 -32q0 -16 20 -32l20 4h8l12 -12v-20l-4 -4v-4l12 -12v-4l-20 -16l-4 4v4h4l-4 12h-8
q-8 -43 -32 -56q-74 -46 -112 -52v-4h20l56 4v-4l4 4h4l12 -8h28l80 4q0 -7 24 -12l32 8h4l4 -4l4 4h4l12 -8l40 8l20 -8l4 4h4l108 -12l8 8v-12h12l-4 4v8l32 8q16 -6 16 -12l16 8q18 -8 20 -16v-12l-12 -16q20 -1 20 -12v-4l-12 -12h-4l-8 8q-13 0 -24 -28l-116 -8l-24 4
l-24 -4q-38 0 -44 28q-16 0 -16 12l4 4h8l4 -4h4v16l-24 24h-36l-36 8l-28 -4l-72 8l-4 -4h-4l-4 4h-4l-36 -4l-96 8l-84 -8l-8 8l-96 4l-4 -4l-20 4h-76l-4 4l-4 -4h-4l-120 4v4l-4 -4h-40l-4 4l-4 -4h-24l-4 4l-4 -4h-56q-261 -214 -388 -260q-103 -50 -300 -88l-4 4
l-36 -8l-20 8l-12 -12l-16 8q-51 -12 -92 -12h-28l-24 4l-4 -4h-4q-40 3 -40 12l-12 -8q-148 16 -264 68l-28 16l-12 -4l-8 20l-4 -4h-4l-16 12l4 4v4l-12 12l-4 -4h-4q-23 0 -52 112l-4 24l4 16l-4 4v4l8 8l-8 12l-176 -8l-4 -4v-4l4 -4l-4 -4h-20v8h16v4h-20l-20 -4l4 -4
v-4l-4 -4h-20v8h12v4h-12l-12 -4l4 -4v-8l-24 -4l-4 4v8h12v4h-12l-20 -4l4 -4v-4l-8 -8h-20l-8 8l4 4l-4 4l-12 -4v-4h8v-4l-8 -8h-36l-8 -8l-20 4h-12l-12 -8h-28l-76 -8h-20q-20 0 -44 36v16q12 36 24 36q48 -4 64 -16l20 8l40 -8l24 4h4l8 -8l-12 -4v-4h8l24 20h8l8 -8
l-8 -8h4l356 28v-4l4 4h40q75 111 176 148q70 28 120 28h40l20 -4l8 8v-4l-4 -4v-4h8l4 4h4l4 -4q0 -8 28 -8l44 -48l12 -44v-52h12l12 8h4l8 -8l4 4h44q48 0 48 8l20 -4h84l12 8l12 -4l4 4l20 -4h84l16 4l4 -4l16 4l468 8h12l156 132l148 120v24h-8v8q12 0 12 20l-8 8v4h8
v8h-8v4h12v12l-4 20l8 8l-4 4v4l4 4h4l-4 4q22 110 232 324q36 23 36 36l-4 4l4 20v32l-4 16l8 36l-4 4v4l16 88l-4 4v4l20 120l-4 4q9 0 12 40l-4 4q11 0 24 140q8 0 8 64l-4 12h8v8q-12 0 -12 8v4h12v12l4 36q-2 20 -12 20v4h8v16l-4 20l-4 -4h-4q0 31 -28 32l-4 4v4l4 4
h-4l-12 -8l-8 8l4 4v4h-20v-4h8v-8h-16v16h-32v-4h16v-8h-32v4l4 4v4q-32 0 -32 8l-28 -4h-4l-44 4l-32 -12q0 -12 -8 -12h-16q-8 0 -8 12h-8q0 -16 -8 -16l-20 4l-8 -8l-12 4q0 -9 -36 -12l-4 4q0 -7 -108 -36l-132 -60l-8 12l4 4q-16 0 -16 8v8q0 7 44 32h-8l-24 -12l-4 4
v12q0 18 140 56v-8q-16 -2 -16 -12h4q20 0 20 20h4v-8h12q97 24 208 40v-4l12 4l28 -4l44 4l32 -4l20 4q52 -3 52 -8l4 4l44 -8q0 31 -156 80l-28 28l4 4l-4 4v12h8l-4 20zM564 1486v-4q8 0 32 -32v4q-16 31 -28 32h-4zM156 1426v-12l-16 -4l-4 4v4l4 4h4l4 -4zM372 1406h40
v-8h-40v8zM232 1390h4l8 8h-4zM624 1366l8 -60q-27 -241 -68 -468q-16 -70 -16 -168v-20q288 277 288 320q19 16 48 120l-4 4v40h8v-28h4v16q-3 40 -12 40l-4 -4l-8 32l4 4q-6 0 -52 68q-75 61 -180 100zM592 1346v-20h-8v12zM272 162q155 111 240 156l104 60h-4l-28 -12
l-4 4v4q20 5 20 12l-32 40v4h8q-28 39 -48 136v4l4 4v4l-4 4q-16 0 -140 -140q-116 -148 -116 -280zM240 106q-45 -45 -108 -88l-132 -112l-16 -20l384 -8h4v4q-58 31 -96 104l-8 16l4 4v4l-28 96h-4zM-1184 -26l-4 4h-4q-37 -5 -92 -44q-84 -66 -84 -84h48l24 -8l12 12h40
l8 -8l4 4h4l4 -4l36 12l4 -4l16 4q56 -3 56 -8l32 12l52 -8l12 12h8l20 -4l12 24v12l-4 28h-4v-8l4 -12h-8q0 54 -84 76v4l4 4l-20 4h-32q-64 0 -64 -20zM-1120 -10h40v-8h-24l-4 4l-4 -4h-16zM480 -78l8 -8l-4 -4h-4l-8 8l4 4h4zM-300 -130l-248 -8v4l-4 -4h-40l-92 -8
l-48 4l-4 -4h-4l-4 4h-4l-60 -8l-40 4l-56 -4l-4 4l-8 -8l-32 4v-4q-32 -83 -32 -100l-24 -20h-4q-8 0 -8 16h-4q0 -28 -12 -28h-12q-10 0 -12 16l4 12l-4 -4h-8l-8 8l8 24l-8 20q6 40 36 40l12 -12l16 8l12 -4l8 24l-16 -4l-32 4l-40 -8l-24 4l-36 -4l-4 4q0 -8 -48 -12
l-16 8l-12 -4v4l-4 -4h-8l-4 4h-4q0 -7 -28 -12l-4 4h-4l-12 -4l-16 8q-8 -7 -64 -12l-16 4q-12 -20 -12 -40v-12q0 -141 240 -212v-4l4 4q85 -20 140 -24v-4l28 4h84l88 -4l8 8h8l12 -8q0 11 140 28q236 66 296 120q118 56 268 192h-8l-4 -4l-20 4h-4l-16 -4l-16 4l-12 -4
l-4 4l-68 -4h-48l-4 4l-4 -4h-8l-4 4zM-1560 -194h12v-8h-12v8z" />
    <glyph glyph-name="asciitilde" unicode="~" 
d="M750 835q24 -2 24 -12l20 4h8q20 0 20 -76v-8l-8 -8h-4v12q-17 -14 -28 -56q-62 -100 -180 -100q-66 0 -220 124l-56 24l-4 -4h-4l-12 8q-43 -7 -104 -52l4 -12q-5 -40 -16 -40l-4 4l8 32q-9 -2 -36 -64h-4q-12 0 -12 36h-4v-16h-8q0 99 40 120q48 54 128 68h4
q8 -8 60 -16q63 -22 80 -44l-4 -20l20 -8l-12 16h12v-8l68 -44q0 -12 24 -12l20 -16l4 4h4q15 -12 28 -12l28 8v-4q112 42 112 92h4q0 12 -12 12l-4 4v4l16 4v20q-16 0 -16 24zM702 671h4l12 12h-4z" />
    <glyph glyph-name="exclamdown" unicode="&#xa1;" horiz-adv-x="346" 
d="M107.049 -984.753q-19.9961 3.99902 -19.9961 15.9971l-19.9961 -11.998q-19.9971 7.99902 -19.9971 23.9961l4 19.9961l-7.99902 27.9951l39.9932 63.9883l-7.99902 7.99805q76.9863 206.963 163.97 683.875q0 50.9912 7.99902 75.9863l-3.99902 11.998l3.99902 11.9971
h-3.99902l-4 4h-3.99902l3.99902 19.9961v3.99902q-9.99805 0 -31.9941 39.9932l7.99902 23.9951l-7.99902 11.998l4 3.99902h3.99902l19.9961 -23.9951l-3.99902 3.99902v3.99902l11.998 23.9961l-4 11.9971l11.998 7.99902h3.99902q7.99902 0 15.9971 -23.9961
q15.9971 0 15.9971 -11.9971v-31.9941l4 -19.9971l-11.998 -3.99902v-11.998l7.99805 -11.9971v-15.9971l-3.99902 -4l3.99902 -3.99902v-3.99902l-7.99805 -7.99902l-3.99902 4v-7.99902h7.99805v-7.99805l-3.99902 3.99902h-3.99902v-7.99902l3.99902 -27.9941h-7.99902
l-3.99902 -11.998l3.99902 -3.99902l-23.9951 -143.974h3.99902l-15.9971 -51.9912l3.99902 -3.99902v-3.99902q-11.9971 -22.9961 -39.9922 -163.97l3.99902 -4l-7.99805 -7.99805l3.99902 -3.99902v-4q-7.99902 0 -19.9961 -51.9902h3.99902l-7.99902 -11.998l4 -3.99902
v-3.99902l-7.99902 -19.9961l3.99902 -19.9971l-11.9971 -3.99902l3.99902 -19.9961l-7.99902 -7.99902l4 -11.9971q-43.9922 -198.964 -43.9922 -279.949l3.99902 -19.9961zM275.019 31.0615v15.9971h-4v-15.9971h4zM319.01 355.002h-11.9971l-15.9971 11.998
l-7.99902 -7.99902h-15.9971q-16.9971 0 -27.9951 71.9873q5.99902 31.9941 15.9971 31.9941l19.9971 -15.9971q2.99902 39.9922 19.9961 39.9922q9.99805 0 23.9951 -27.9951q11.998 0 11.998 -7.99805v-71.9873q-2.99902 -23.9951 -11.998 -23.9951z" />
    <glyph glyph-name="cent" unicode="&#xa2;" horiz-adv-x="661" 
d="M421 410q60 -5 60 -24l-8 -12l8 -24q-18 -24 -108 -36q-110 -46 -132 -72q-54 -19 -168 -148v-4q0 -10 44 -24v-8l16 4l4 -4q136 0 332 76l8 -12v-8q-21 -34 -80 -48l-100 -32l-4 4h-4l-8 -8l-20 4q0 -8 -12 -8l-12 4q0 -8 -12 -8t-12 12h-12l4 -4v-4l-8 -8l-28 4v4h8v4
h-20l4 -4v-4l-8 -8h-24l-84 -4q-31 19 -40 44l12 24l-8 8q20 44 36 44v-8h4q196 190 280 220l48 24v4h-4l-20 -4v4q25 22 68 40zM345 366v-12l-24 -8l-4 4v4q15 12 28 12zM341 62v-4h16v8zM17 62v-12l4 -4h4v4l-4 12h-4zM77 26v-4h36v4h-36zM1101 1203h4l12 -8l24 4
q16 -6 16 -28l-4 -16l8 -24v-8l-12 -12h-8l-20 16q0 -36 -20 -36l-20 4l-168 -136l-148 -144q-27 -19 -40 -48q-8 0 -32 -32q-39 -26 -60 -64q-8 0 -68 -68l-36 -44q-11 0 -48 -48q-6 0 -20 -28q-20 0 -24 -28q-18 -12 -60 -68q-10 0 -20 -28q-17 -5 -44 -44q-10 0 -40 -44
q0 -9 -48 -52q-3 -20 -20 -20q0 -15 -56 -80q-106 -130 -352 -484q-55 -98 -96 -140h-8l-20 28v4l16 20v4q-10 0 -12 16q0 10 68 68q3 20 12 20h4l4 -4h4l236 320l136 172q43 58 56 64q0 11 20 24q35 56 48 56q0 12 20 20q2 14 76 88q0 15 20 24q0 8 32 36q0 11 24 24
q9 23 36 40q0 15 32 36q22 40 36 40q32 47 68 72q0 14 48 52q0 18 96 100q0 16 28 28q0 12 28 36l244 244h-12v4l40 68zM1061 1143v-12h4l4 12h-8zM-255 -461v-8l-8 -8v8z" />
    <glyph glyph-name="sterling" unicode="&#xa3;" horiz-adv-x="1699" 
d="M1774 1707h4l24 -8l24 4q11 -5 28 -36q21 0 28 -92l-16 -8l-24 12q0 -32 -12 -32h-12q-53 72 -84 72l-8 -8h-8l-36 12l-4 -4h-4l-16 4q-91 -16 -200 -64q-86 -46 -124 -80l-56 -56h-4l-12 8h-4q-124 -118 -164 -224q-36 -89 -36 -136v-8q0 -144 104 -312q30 -62 92 -160
l4 4h8l12 -4l60 8l4 -4l140 8l24 -4l16 4l72 -4h8l8 -8v-8q0 -12 -52 -12v-4q40 0 40 -8l-4 -4h-24l-4 4l-4 -4h-24l-8 8l4 4v4q-19 0 -28 8h-4l-12 -8h-4l-4 4l-44 -4l4 -4v-4l-4 -4h-24l-20 4v4h12v4h-28l-20 -4v4l-12 -4l4 -4v-8h-48v8h12v4h-44q92 -158 92 -276v-32
q0 -147 -172 -288h-8v-8l228 -72h12q20 0 20 8l20 -4h72l12 8v-4l4 4l28 -4h116l60 8v-4l4 4h8l4 -4l4 4h4l4 -4h4l4 4h4l4 -4h4l4 4h4l12 -4l12 4v-4l4 4h4l4 -4h4l4 4h4l12 -8l128 4h320l28 4v-4l4 4h4l4 -4h4l16 4l8 -8h156l28 4l8 -8h8l52 4l36 -8q36 0 52 20
q84 -9 84 -24l20 12l12 -4l24 8h8l8 -8l20 4h8l12 -12v-12q-36 -32 -36 -40l4 -16l-20 -8l-36 8h-32l-24 -4l-4 4l-20 -4h-16q-12 0 -12 24q-16 0 -16 8v8h16v16l-12 -4q-40 6 -40 12l-20 -4h-8l-60 8l-20 -4l-52 8l-4 -4l-20 4h-4l-16 -4l-16 4h-8v-4l-20 4l-56 -4l-100 4
h-132l-12 4l-20 -4h-32l-304 -4l-140 4l-88 -8l-20 4l-28 -4v4l-40 -8v-4q855 -305 1272 -428q751 -184 1100 -184l12 4l16 -4h48l8 8l40 -4h8q13 10 80 28q52 18 52 64l8 8v8q-20 15 -20 40q-8 0 -40 48l-4 -4h-4l-4 4l4 4v4q-187 157 -284 192l-4 4q-65 33 -72 44
q-24 0 -48 20l-164 60l-132 36q0 -8 12 -8v-8l-28 8q-9 -52 -28 -52v-4h-16l-40 -4l-4 4v12l8 12q-28 0 -28 8l8 8l-4 16h4l-8 24q6 0 20 52l4 4h4q24 -10 24 -24l16 12l20 -16l4 4l4 -4v-4l-4 -4q50 0 312 -104l24 -20l12 4q38 -26 72 -32q420 -232 420 -352
q-13 -54 -60 -84l-12 4q-44 -24 -92 -24l-4 4h-4q-28 -12 -52 -12l-4 4v4l-36 -8v4l-32 -8l-56 8h-48l-4 4l-4 -4h-4q-28 3 -28 8l-4 -4q-220 0 -1028 196q-435 132 -1260 432l-44 -8l-24 4l-4 -4h-4l-4 4l-44 -8l-24 4l-4 -4h-4l-4 4h-4l-24 -8h-24l-16 4l-24 -8h-16l-4 4
h-4q0 -8 -32 -12l-4 4q-65 -8 -76 -20l-8 8q-100 0 -100 -16v-4h-40v8h24v4l-20 4l-36 -8l4 -4v-4q0 -5 -132 -32l-44 4h-44l-4 4l-4 -4h-28q-9 8 -28 8v4l-4 -4h-28l-8 8l-20 -4l-12 8l-24 -4q0 8 -12 8l-4 -4h-4l-16 8l-12 -4q0 8 -12 8l-12 -4l-8 8l-4 -4h-4
q-56 19 -56 24l4 4l-12 4h-4v-4h8l-8 -8l-8 8l4 4l-4 4h-8l4 -4v-4l-8 -8q-14 12 -108 32l-4 4v4l-4 -4h-4q-132 54 -132 104q1 23 12 44l-4 12q0 18 56 40l-28 -28v-4q110 80 352 80h36l24 -8l44 4l8 -8l24 4l16 -8l16 4l8 -8l20 4l8 -8l24 4q0 -7 28 -12l16 4
q0 -9 132 -32q9 -9 100 -24q3 -7 228 -68q124 103 148 160l12 20l-4 4q0 12 12 12l-4 4v4l4 4h4l-4 4v8h8l8 44v32q0 136 -88 272v4h-36v8h20v4l-28 4q-9 0 -28 -24h-12q-8 0 -8 12h-16l4 -4v-4l-12 -8h-20l-4 4h-4q0 -5 -136 -36h-8q-7 0 -12 20h-12v4l20 28q-12 0 -12 8v8
q0 15 68 20l12 -8l24 8v-4l4 4h16q8 0 8 -16h4q8 0 8 16h12v-12l92 8l16 -4l12 4q-184 308 -184 408l-4 64h4l-4 4v4l4 4v4l-4 4l16 76l-4 4l8 8l-4 4l8 8l-4 4q8 5 40 84q140 231 428 360l4 4v4l-4 12l4 4h16v-4q0 -8 -12 -8v-4h4q16 0 16 20l20 8l4 -4v-4l-20 -4v-8l40 12
v4h-16q30 23 116 40l72 -8zM450 103l-4 4l-4 -4h-72q-69 0 -176 -24v-4h12v-8q-53 0 -120 -60v-8q12 0 12 -8v-12h-8q-8 0 -8 12h-4v-8l56 -40l12 4l12 -12l4 4q0 -13 60 -28l4 4q0 -18 252 -60l64 -4l-4 4v4l4 4h24l8 -8l-24 -4v-4h56l-4 4v8h4l52 4l4 -4h4l32 8l-4 4v12
l8 8l32 -8l40 4q0 -8 32 -12v-12h44l16 -4q24 8 104 8h12l36 28h4v4h-4l-12 -4l-8 12v4q0 12 56 20v-4l-4 -4v-4h4l76 44q-3 7 -204 68l-4 -4h-4q-68 14 -68 24l-4 -4h-4l-16 8l-4 -4h-4q-52 9 -52 20l-4 -4h-4l-4 4l-4 -4h-8l-12 8l-12 -4q0 6 -96 20v4l-20 -4l-8 8l-4 -4
h-4q-56 3 -56 12l-4 -4h-32l-12 8zM38 -5v-4l4 -20h4v24h-8zM1074 -125h4l28 4l28 -4l8 8q28 -1 28 -8l32 12h4q28 -1 28 -8l40 12l56 -4l20 4v4l-176 56q-14 0 -100 -76zM270 -133l8 -8l4 4v4h-12zM2910 -141h4l12 -12v-4l-8 -8h-8l-8 8v8zM374 -157l8 -8h4l-8 8h-4z
M414 -165v-4l12 -4h4v4l-12 4h-4zM446 -169l8 -8h4l-8 8h-4zM954 -165h12v-8l-12 4v4zM502 -177v-4l12 -4h4v4l-12 4h-4zM546 -185v-4h28v4h-28zM4058 -729h12l-8 -8h-4v8z" />
    <glyph glyph-name="currency" unicode="&#xa4;" horiz-adv-x="1673" 
d="M531 1178q8 0 8 -12l4 -4h4q2 16 12 16h4l12 -12v-24l-4 -4v-4l8 -8v-16h-8v8h-4v-4q12 -56 32 -56l4 -16l-12 -4l40 -132v-8l-16 -32q-12 0 -12 24q-19 0 -56 132h8v-12h4v8l-4 12l-4 -4h-4l-36 108v8h8v4l-4 28l4 4h12zM1223 1162h4q8 0 8 -16h4l24 12l4 -4v-8l-24 -36
l4 -4v-12q-178 -161 -180 -204l-20 -4q-8 20 -16 20v12l12 16l-4 20v8q19 32 32 32l44 56h12v-8l-20 -20v-4q26 21 28 32h-8v8q86 104 96 104zM1099 930h4l-4 -12h-8v4zM1559 846l4 -12h8l12 8h4l8 -8v-8l-8 -8l-4 4h-4q0 -24 -8 -32l4 -16q-110 -21 -272 -140h-4
q-11 2 -16 20h-12v8q16 24 28 24v4q-16 0 -16 8q0 18 136 80v-4q-44 -36 -72 -44v-8h4q79 51 124 68v4h-4l-16 -4h-4v8q0 6 64 32l8 8l4 -4zM863 826q72 -15 72 -28v-12l-4 -4v-4q85 -45 136 -92q92 -107 92 -232q0 -115 -120 -240q-89 -75 -192 -96l-4 -4h-4l-4 12h-12
l4 -4v-4l-8 -8q-12 0 -12 12h-44l-24 4h-4v-4q16 0 16 -8l-24 -4l-4 4v4l-12 -4q-60 0 -156 112l-4 16l4 4v4q-10 36 -20 36l4 4v12h-12v8l4 -4h4v16l-8 12l8 8l-4 4v56l4 20h-8l12 16v4l-4 20h8v4l-4 12l12 12l-4 4v4l16 28l-4 4l68 124l96 100l-4 4h-4l-4 -4h-4l-4 4v4
l16 24q34 0 72 28h4l4 -4l24 8l4 -4zM1483 802v-4h12q0 8 12 8v4h-4zM735 806h12v-12h-12v12zM1447 794v-8l-16 -12l-4 4v12zM707 754v-4l-16 -16h-4zM559 362q0 -85 68 -156q67 -52 136 -52h32q98 0 204 72q81 75 88 100l-4 4h-4q0 16 20 16q6 44 20 44l-4 20v4h8l-4 20h8
v20q0 76 -16 76l4 4v4l-8 24l-4 -4h-4q-26 71 -92 124q-75 48 -116 48q0 11 -64 16q-71 -9 -156 -96q-112 -128 -112 -288zM651 698h4v-4l-8 -8h-4v4zM175 614l56 -8v-4l-4 -4v-4h24l60 -4v12q19 0 28 -20q28 -4 28 -12v-8q0 -12 -16 -12l4 -4v-4l-8 -8q-84 14 -84 20v8
l-16 4l-4 -4l-16 4h-8v-4q20 0 20 -8q-16 -8 -44 -8h-20l-8 8l4 4v4q-16 0 -16 8q8 24 28 24v4h-16v8zM187 602v-8l12 4v8zM247 606h12l-8 -8l-4 4v4zM1059 298v-4l-8 -8l-4 4v4l4 4h8zM1303 186h4l20 -20q0 12 8 12h4q6 0 48 -72v-4l-8 -8l-4 4h-4q26 -46 84 -108v8
q-8 16 -20 16v16h8l16 -24q15 -1 24 -16v-4l-8 -8h-8v8h-4l4 -20v-8l-8 -12l4 -12l-4 -4h-12q-75 78 -160 204v8h4q8 0 8 -12h4v4l-12 36zM743 166h48v-8h-4l-4 4l-4 -4h-8l-4 4l-4 -4h-20v8zM1335 150q6 -16 12 -16v4zM879 134h4l8 8h-4zM283 110v-4q0 -12 -32 -16v-4h12
q39 16 60 16l8 -12l-16 -20l4 -4q-30 -28 -120 -52l-20 -8h-12l-12 12l4 4l-20 8q0 11 28 28h20l8 8v4h-8q0 12 96 40zM207 74v-4h16v8zM163 74h4l8 -8l-4 -4h-16v4zM1403 70h8l8 -8v-4l-4 -4v-4l-12 4v16zM627 -122l8 -8q-16 -24 -28 -24v-8l40 36h8q8 0 8 -12
q0 -25 -100 -144l-64 -88q-33 -48 -48 -48l-4 4v4l4 4v4l-16 8v4l16 24q-12 0 -12 8l32 28h4v-4l-16 -24v-4h4l48 60l52 80h4l-4 4v12l8 8l4 -4h4l4 4v4q-12 0 -12 8q12 6 48 64h8zM1019 -134l24 -20l8 8h4q7 -3 40 -144h-8v8h-4v-8l12 -44h4v4l-8 28h8q0 -13 32 -48v-8
l-20 -16q-8 -44 -16 -44h-4q-12 0 -12 24q-16 0 -16 12l-60 196v4l8 8v-16h4v16l-8 8h4l-4 4v4l4 12l-4 4zM591 -174l-4 -12v-4h4l8 16h-8zM1123 -378h4l8 -8l-8 -8l-4 4v12z" />
    <glyph glyph-name="yen" unicode="&#xa5;" horiz-adv-x="1439" 
d="M921 1268h8l16 -12h20v-20q-21 -47 -108 -148q-132 -190 -196 -348v-8l-4 -4l4 -4q11 0 20 -20l-8 -24q12 0 12 -8v-8l-20 -20l4 -24v-4q-16 0 -16 -20h-4l4 -4v-44l-12 -20l4 -4v-24l-12 -104l16 -8l76 4l8 -8l68 4l28 -8l60 4v-4l4 4h4l24 -8l36 4l32 -8l36 4h4l24 -8
v-4l24 8h4q20 0 40 -12l32 8h12q20 -1 20 -8l4 4h12l4 -4l4 4q248 -18 248 -36v-8q0 -8 -12 -8l-4 -4v-4l4 -4l-4 -4h-4l-8 8l4 4l-4 4h-8l4 -4v-4l-4 -4h-4l-4 4v4l4 4l-4 4h-16l4 -4v-8l-4 4l-4 12h-4l-52 4v-8h-4v12q-74 4 -100 12l-16 -4l-12 8l-4 -4h-4l-8 8l-16 -8
l-4 4h-4l-4 -4h-4l-32 12l-28 -4h-32l-8 8l-48 -4h-8l-8 8l-32 -8l-32 12l-4 -4h-4l-4 4l-20 -4h-4q-60 0 -60 8l-4 -4h-4l-4 4l-20 -4h-12q-34 0 -52 8l-28 -8q-48 7 -48 12q-32 -5 -32 -12l-4 -124h28l32 -8l12 12h68q40 -1 40 -8l12 4l4 -4h4l12 4v-4l12 4l4 -4h4l12 4
l4 -4l8 8l24 -8l8 8h8l4 -4l4 4h108l24 -4l4 4l28 -4h72l4 -4l4 4l20 -4h84q22 0 28 -16l-12 -16l-48 4h-24l4 -4v-8h-36v8h16v4l-148 12l-24 -4l-108 4v4l-4 -4h-8l-8 8l-28 -8l-4 4v4l-4 -4h-4l-4 4h-4l-16 -4v4l-4 -4h-4l-4 4h-4l-4 -4h-4l-4 4h-4q-9 -7 -112 -12l-16 8
l-24 -8h-32v-4l4 -4v-4l-8 -8v-132q0 -66 12 -112q40 -13 40 -40l-12 -8v8h-8l20 -28l-8 -8q-8 0 -8 20l-4 4h-8q-8 -48 -16 -48h-4q-12 0 -12 28l-4 -4h-4q-11 0 -20 92h8v-12h4v16q0 28 -12 28v4l8 8h4l-4 20v16l4 4l-4 4v40l4 4l-8 32l8 16l-4 4l4 20v40l-28 8
q-22 -11 -220 -24v-4h12v-8h-16v12h-32l-28 -4l4 -4v-8h-36v8h24v4h-32l-24 -4v4l-32 -4l4 -4v-4l-8 -8h-4l-144 -8q-12 24 -24 24v4l4 4l-4 4v12l16 4l-4 20l4 4h4q52 -2 52 -8l4 4q60 -11 60 -20l40 4h44l4 -4l4 4h36l16 4l4 -4l20 4l216 12l4 -4h4l4 4h4l24 -4q0 8 24 8
v40l4 16l-4 4l4 20v36l-4 4v4l4 4q-36 5 -36 12l-24 -8h-12l-4 4l-4 -4l-20 4h-64v-4h8v-8h-16v16h-52l4 -4v-8h-24l-8 8l4 4q-28 3 -28 8l-24 -4v-4h12v-8l-20 -4q-4 20 -20 20h-4v-4h8v-12l-52 8l-16 -4l-8 8l-4 -4h-4l-40 12l-4 -4h-4q-16 3 -40 36v4h8v4l-4 4
q0 36 28 36l12 -8l20 4l44 -40h8l-4 4v8h8l8 -8v-4h-8v-4q78 -8 96 -16l12 4l64 -4h12l4 -4l4 4l16 -4l124 -4l12 -12q0 8 32 12l4 -4l4 44h-8v12h8v24h-8v36h8v-8h4v32q-12 0 -12 16q-24 0 -24 12l4 20l-12 -8h-8v4l8 32l-8 8v12l24 32l-8 12v8h4l12 -4q-95 111 -128 164
l4 4l-4 12l-4 -4h-4l-8 28l-4 -4h-4q-3 19 -20 32q-182 250 -188 276h4q8 0 8 -12l8 8q-16 7 -16 28v4l16 16h4q12 0 12 -16l16 12h4q44 -59 44 -80q7 0 16 -28q8 0 12 -24h-4q-14 4 -20 28h-8q152 -246 240 -348q24 -16 24 -28h4v4l-4 16h4l28 -20l24 28l-4 12
q72 148 200 340h-8v4l32 48l4 -4h4l4 4v4h-8q0 17 28 56q10 28 20 28zM965 1216h4v-4l-12 -12h-4v4zM245 392l8 -8h4l-8 8h-4zM113 224v-8h20v8l-4 -4h-8l-4 4h-4zM593 -48v-4l4 -20h4v16z" />
    <glyph glyph-name="brokenbar" unicode="&#xa6;" 
d="M513 1063q84 -8 84 -32v-8l-4 -4v-4q8 0 8 -16h12l-4 4v4l4 4h4q20 0 20 -16l20 4v-8h24q2 -16 28 -16q0 -7 80 -76q76 -113 76 -176h-4l8 -28l-8 -24l4 -4v-4q-19 -114 -124 -236q-119 -111 -216 -120l-4 -28l4 -24q-8 0 -8 -12l4 -20l-12 -16l4 -4v-4l-40 -232l16 -4
l4 4h128l8 8l-4 4l24 8l12 -12v-4h-8v-4h24v4h-8v4l40 20l20 -12l4 4h20l12 -12v-8q0 -8 -24 -8l12 -16l16 4l4 -4v-4l-8 -8h-4l-12 8h-4l-16 -8l8 -12v-4l-8 -8l-80 16l-16 -4l-40 4h-128q-12 -49 -12 -108l8 -8v-4q0 -8 -12 -8v-12q32 -1 32 -16l-8 -28l8 -8l-8 -8h-4
q-8 0 -8 20h-8q0 -16 -12 -28l8 -8l-12 -12h-8q-7 0 -12 24q-16 0 -16 8l12 88l-4 4v8h12l-4 28l8 12l-4 20q7 0 12 20l-4 12l4 4h-28l-100 -4l-16 4l-56 -8l-8 24q-12 0 -12 8t16 8v16q-16 0 -16 12v16q4 12 24 12h4l12 -8l20 4q21 -16 56 -24q0 -12 16 -12l32 -4h36l4 -4
l4 4h24v8h-8v4h8l-4 20l12 16l-8 8l16 36l-8 8l8 8l-8 24l4 4h4l4 -4v4l-8 24l4 4h4l4 -4v8l-8 12v8l8 8l4 -4v12h-8q3 56 8 56l-4 12l4 16l-4 36v16h-8l-20 -4q0 8 -52 16q-63 35 -108 104q-12 11 -12 32q-13 0 -24 44h8l4 -20h4v4l-20 108l4 16v12h-8v8h8v8l-4 -4h-4l-4 4
v4q0 8 12 8v8l-8 12l12 4l-4 4v28h4l4 -4h4v4l-4 24q35 102 56 116l-4 4v8l12 12l4 -4l40 56v4h-8v8q75 100 132 120q0 5 28 12zM385 955l-8 -8l-8 -8v-8l20 20v4h-4zM565 947l-4 4h-4l-40 -8v-20l-8 -8l-4 20q-14 0 -24 -44h-8l-12 12v4l4 16l-4 12h-4q0 -20 -8 -20l-4 4v4
l8 24h-4q-176 -146 -176 -340q0 -157 108 -220q36 -8 36 -24l12 8h4v-16h20l-4 4v4l4 4h12l8 -8l-8 -8h16l-4 4v4l12 8l20 -4q0 -8 -12 -8v-4h12q105 8 224 116l60 88h-8v4q16 19 40 92l-4 16q0 10 16 12l-8 12l8 8l-16 12l4 4v4l-4 4h8v-12h4v12l-12 48h-4v-4l8 -28h-8
l-8 32l4 4q-7 0 -28 52q-38 68 -128 116l-4 -4h-4l-28 12l-4 -4h-4l-24 8h-16zM749 507v-12l-8 8l4 4h4zM261 475v-4l4 -12h4v4l-4 12h-4zM621 399v-8l-20 -4q0 9 20 12zM385 -57v-8h44v4zM469 -61v-4h100v4h-56v4zM357 -61v-4h24v4h-24zM581 -61v-4h24v4h-24zM413 -253v-12
l4 -12h4v4l-4 20h-4z" />
    <glyph glyph-name="section" unicode="&#xa7;" 
d="M79 967l20 -12l8 8h12q19 -24 68 -24l8 -8l16 4q104 -27 104 -36l4 4h4l36 -24l8 8q8 0 8 -12l12 8l4 -12h4l4 12q40 -7 40 -16l-8 -8q32 0 32 -12v-8q0 -12 -16 -12l4 -4v-8l-8 -8h-4l-12 8l-4 -4h-4q-28 4 -28 12l-4 -4h-4l-52 20l-4 -4h-4q-109 36 -156 36v-8
q164 -163 212 -240v4l-12 16v4l8 8l64 -84v-4l-4 -16l4 -12h4q36 29 72 76v12q-12 0 -12 8v8q7 16 28 16h4l4 -4l4 4h4l4 -4h4q66 42 140 52q100 -20 100 -64l8 -48l4 -4l-4 -16v-4q148 -99 148 -284l-4 -4v-4l4 -4q-8 -93 -76 -212q-107 -122 -196 -144l-4 4q-3 -7 -56 -24
h-4l-4 4h-4l-8 -8h-4l-8 8l8 8h-4l-16 -4l4 -4v-8l-20 -4h-4q-8 0 -8 16h-28l-16 -4l-12 4h-4v-4h8v-8l-20 -4h-4l-8 8l-4 -4h-4q-90 0 -188 132l-4 16l12 -8v4l-20 64q-12 0 -12 8h12v52h-8v8h12l-4 4q8 62 24 100l-4 12l12 12l-4 4l44 84l76 108v4q-23 5 -76 120
q-44 74 -188 204q-32 20 -32 28l-16 -20v-28l4 -16q-7 -10 -16 -168h-4l4 -4v-8l-4 -4l4 -4v-24q36 -9 36 -20v-16l-12 -16q16 0 16 -8v-8l-8 -8h-4q-11 0 -12 20h-4q0 -12 -8 -12l4 -4v-12l-16 -16h-4q-12 0 -12 24q-20 0 -20 12v96l12 20l-4 4v4l4 12l-8 8h4l-4 4v12h4
l4 -4h4v24l-8 12v28l8 8l4 -4v36h-8v40h4l4 -4h4v12q-8 0 -8 20h-4l12 84v32q0 9 20 12zM187 863l8 -8v-8q-16 6 -16 12l4 4h4zM619 675v-4h16v8zM359 679l8 -8v-4l-4 -4v-4l-12 4v8zM587 655h4q24 9 24 16h-4q-24 -8 -24 -16zM287 203v-28l-4 -4l4 -12l-4 -4v-4l4 -12
l-4 -4q0 -96 92 -160h20q0 -18 36 -28l8 8h4v-4l-4 -4v-4h12v8h8v-12l68 -4q208 0 336 172l-4 4v8q20 0 48 108h4l-4 4v4l8 24l-8 8v4h4l4 -4h4l4 16q-2 16 -12 16v28h4v-8h4v20q-16 0 -16 8h4l4 -4h4v4q0 26 -24 64l-4 20l-4 -4h-4l-4 4v8l4 4v4q-7 0 -72 72l-28 20
q0 -12 -16 -20q-12 0 -12 36h-4v-16h-8q0 34 -68 48l-12 -4l-8 8h-4l-16 -4l-24 8h-24q-63 -22 -112 -80l-84 -88q-91 -148 -100 -224zM423 543v-4l4 -12l-4 -4v-8h4l4 16l-4 12h-4zM827 79l4 -4v-4l-4 -4h-4l-4 4v4l4 4h4z" />
    <glyph glyph-name="dieresis" unicode="&#xa8;" horiz-adv-x="1024" 
d="M588 818q20 -5 20 -12l4 4h16q36 0 36 -80q-5 -13 -40 -24q0 -16 -32 -16h-16l-16 24q-16 0 -16 24l12 8l-8 24v4q12 26 32 40l4 4h4zM294 798q88 0 88 -32v-4l-4 -20l8 -8v-4q0 -31 -84 -60q-12 0 -28 28q-16 0 -16 32l12 4q-12 21 -12 40q5 12 36 24z" />
    <glyph glyph-name="copyright" unicode="&#xa9;" horiz-adv-x="1674" 
d="M1023 1212q8 0 8 -16h12l-4 4v8h8l4 -12l4 4h4l20 -8l4 4h4l52 -24l8 8l8 -16h20q9 -13 68 -40q178 -112 256 -328q28 -112 28 -176q0 -374 -348 -636q-266 -172 -472 -172l-4 -4l-4 4l-20 -4q-226 0 -356 76v-8h-8v4l4 4v4l-40 20l-4 -4q0 16 -12 16l-12 -4l-12 16h8v4
h-4l-12 -4v16l-4 -4h-4l-28 28q-12 0 -12 16h-16v4l4 4v4q-23 20 -36 20l8 12q-26 0 -32 40q-68 110 -68 236h-8l4 -4v-8h-8v24h4l4 -4h4v8q0 20 -12 20q0 8 12 8v8l8 80l-4 4q8 0 8 32q69 209 180 328q176 189 300 260q205 112 276 112l-4 4v8h8v-8q60 16 144 24l32 -4h28
l-4 4v4l4 4h4zM911 1152l-20 4l-8 -8l-4 4h-4l-52 -20l-8 12l4 4v4h-4q-8 0 -8 -16l-8 8l4 4h-4l-56 -16l4 -4v-8l-12 -4v4l4 4v4h-8l-12 -4l4 -4v-8h-12l4 4v4h-4q-12 -2 -28 -20h-4l-12 4l4 -4v-4l-4 -4l-4 4h-4q-24 -5 -24 -16l-4 4h-4l-76 -48q-44 -12 -180 -132
q-16 0 -16 -16q-36 -21 -144 -152q-144 -200 -144 -432l4 -12h-4q12 -116 80 -228q193 -232 516 -232l16 4v-4q125 12 232 44q120 43 264 136q324 259 324 600q0 173 -104 332h-4l-4 -4h-4v8l4 4v4l-24 24l-4 -4l-4 4v4l4 4q-28 0 -28 32q-36 14 -36 20l8 8l-44 32l-12 -4
q16 -26 16 -40q-18 -5 -20 -16q-121 112 -180 124l-12 -4q0 9 -52 16v4l-4 -4l-20 4h-36zM1231 1096l8 -8h4l-8 8h-4zM891 764q40 -12 92 -12q16 -6 16 -28l-8 -16l12 -12l-16 -28l-20 -8l-68 20l-4 -4h-28q-66 0 -188 -88l-32 -36q-28 -46 -28 -72v-20q0 -34 68 -88l4 4h12
q0 -17 40 -24l4 4v-8h8l4 4h4q0 -10 80 -24l4 4h4l40 -8l4 4l28 -4h44l12 -12v-4q0 -12 -40 -12v-4h28v-4l-4 -4v-4l-32 4l-4 -4h-4q-16 0 -16 16q-24 0 -24 8l-20 -4v-4h8v-8l-16 -4l-8 12l4 4l-4 4h-24v-4h8v-8h-8q-8 0 -8 16h-16l4 -4v-8h-16v4l4 4v4l-4 4h-12l4 -4v-8
h-12l-4 4h-4l-4 -4l-8 8l-4 -4h-4q0 6 -56 20q-108 59 -108 140v12q0 8 12 8l-8 12q33 112 52 112h4v-8l-4 -4v-4h4q0 10 68 72l-4 4h-4l-36 -40l-4 -4q-8 0 -8 -12h-12v4q90 100 200 128zM787 712v-4h4l28 8v4h-4zM711 668h4l44 28h-8q-40 -22 -40 -28zM583 468v-20h4v20
h-4zM651 424l8 -8l-4 -4h-4l-8 8l4 4h4z" />
    <glyph glyph-name="ordfeminine" unicode="&#xaa;" horiz-adv-x="648" 
d="M436 1632l44 -8l4 4q61 -10 80 -28q20 0 40 -40q16 -6 16 -28v-12l-4 -4v-4l8 -8v-12h-4l-12 8l4 -20q-8 -18 -16 -20h-8l-24 20l-32 -8l-4 4h-4q-60 -8 -152 -72q-118 -109 -152 -200q-32 -107 -32 -160q0 -79 76 -156q12 0 12 -12q17 0 32 -20q20 0 20 -12l4 4h4
l32 -20v8h8v-12h4l4 4h4l8 -8v8h8v-4l-4 -4v-4l44 -4v8h8v-12h20q0 12 8 12h12l8 -8l-4 -4v-4h12q2 16 12 16h36q15 12 36 12l4 -4v-4l-8 -8v-4h4l12 8h8v-8h-8l8 -12v-8q0 -12 -20 -12l8 -12l-28 -12l-40 4q0 -8 -32 -8q-27 -23 -108 -40l-12 4l-8 -8h-12l-8 8l4 4h-12
l4 -4v-4l-8 -8h-20q-13 17 -36 20l-4 -4v-4q28 0 28 -8l-4 -4h-12q-146 0 -248 164l4 4v4q-44 111 -44 200l4 20h-8v12q12 0 12 20h-8v4q12 0 12 32l4 4l-4 16q9 48 24 48l-4 4v4q40 95 120 200q131 142 260 164l12 4v4h-4l-16 -4v12q14 0 24 12h4zM356 1604v-12l-20 -4h-4
q8 16 24 16zM324 1588v-4l-32 -24h-12v4q25 24 44 24zM412 1552l-4 4h-4q-117 -34 -212 -132q-96 -92 -148 -264l-8 -84v-8q0 -170 120 -272l52 -28l20 -8l12 4v-4q0 -8 68 -12l112 16v4l-20 4l-12 -4q0 10 -76 32q-112 74 -132 128l-8 12v4l4 -4h4v4q0 8 -12 8l-4 4v8l4 -4
h4v4q-4 28 -12 28l-4 -4l-4 4v8h4l4 -4h4v36q0 20 -12 20v8h8l4 12l-8 24v8q10 0 12 20l-4 12h8v8l-4 4q0 12 12 12v4l-4 4v4l4 4h4l-4 4v8h8l-4 4v4q4 20 16 20v20l12 20h-4q71 123 152 188l24 24h-16q9 18 36 32q27 23 80 44l-8 12l-4 -4h-4l-16 8zM260 1552l4 -4v-8
q-11 0 -24 -12h-4v4zM600 1516v-4l8 -8v4zM212 1516h4l8 -8h-12v8zM396 1476h4l40 28h-4q-40 -22 -40 -28zM344 1448h4l-8 -8h-4zM528 808v-4h24l4 4v4h-4zM532 772v-4h16v4h-16zM316 720v-4h12v8z" />
    <glyph glyph-name="guillemotleft" unicode="&#xab;" horiz-adv-x="944" 
d="M764 647h4l8 -8l24 8l12 -16v-8l-12 -24l4 4h4l4 -4v-4q0 -7 -24 -12q0 -13 -76 -52l-120 -80q-13 0 -32 -24q-14 0 -32 -20l-4 4h-4q-2 -8 -192 -136l-164 -140q-38 -48 -48 -48q16 -20 36 -20h4l12 8l24 -8l8 8l20 -12q0 16 8 16h4v-16l20 4l-4 4v4l8 8h8v-4l-8 -12h4
q15 0 32 20h4v-4l-8 -12h4q22 0 24 24l28 -4h12l40 4l40 -8l4 4h12q60 -8 60 -16l4 4h4q8 -2 16 -20q-4 -16 -16 -16q0 -8 16 -8l4 -4v-8l-8 -8l-20 16l-12 -16l4 -16l-20 -4q-30 32 -80 32v4l-4 -4h-8l-48 4q-52 -3 -52 -12l-20 4h-4l-12 -8l-24 4l-8 -8l-12 4q0 -8 -12 -8
l-20 4l-8 -8h-28l-44 -4q-32 4 -32 28q-20 0 -20 20l8 16l-4 24l44 40h4v-4l-8 -16h4q164 158 388 308l228 164v4h-8l-8 -8h-12v4q61 68 80 68zM668 567l4 -4v-8h-12v4zM828 503h16l8 -8l20 4h8l12 -12v-12q-6 -16 -24 -16v-12l16 12h4l12 -12v-4l-12 -12h-28q0 -26 -88 -44
l-120 -56q-116 -59 -168 -108q36 -9 36 -24l4 -4h12l-4 4v8h28v-8l-4 -4v-4l64 -8q0 12 8 12l8 -8l-4 -4q14 -8 60 -12v8q35 0 64 -20l4 4l8 -8l4 4q0 -9 28 -12q0 -6 32 -12v-8l-8 -8h-4q-10 0 -12 16h-4v-12l16 -12v-8l-12 -12l4 -4v-12l-8 -8q-39 29 -156 64l-12 -4l-4 4
v4l-4 -4h-4l-44 12l-16 -4l-4 4v4l-20 -4q-120 6 -120 36q-16 8 -16 20l8 20l-4 16q0 23 52 44l4 -4l-8 -16h4q125 90 328 184v4h-12q0 -8 -24 -12l-4 4v4q51 33 80 60zM740 439l4 -4v-4l-16 -4zM504 307l4 -4v-4l-4 -4h-4l-4 4v4l4 4h4zM484 295h4v-4l-12 -12h-4v4z
M416 203v-4l8 -8v4zM576 203h8l8 -8l-4 -4h-4l-8 8v4z" />
    <glyph glyph-name="logicalnot" unicode="&#xac;" horiz-adv-x="739" 
d="M1397 1236h16l16 -12l8 8q32 -3 32 -28l-8 -20l8 -8v-4q0 -9 -36 -20q0 -25 -60 -28l-4 4v4l12 16h-4l-20 -4v12q16 0 16 16q-10 0 -24 16q-103 0 -232 -20l-4 4h-4l-24 -8l-4 4l-36 -8l-4 4h-4l-28 -8l-4 4l-200 -32v4l-236 -44l4 -4v-4l-4 -4h-4l-8 8h8v4h-4l-12 -4
l4 -4v-4l-32 -12h-12l-8 8l16 4v4h-8l-16 -4l4 -4v-4q0 -8 -48 -12l-4 -4h-16l-4 4l-4 -4l-20 4l-56 -12l40 -132q15 12 28 12l4 -4l12 4l12 -4l28 8q24 0 24 -12l236 48v-4q37 16 64 16v-4l48 16l16 -4l24 12l16 -8q0 12 340 68q311 48 728 88v-4q190 20 292 20h4l40 4v-4
l4 4l208 4h52l16 4l16 -4h36l12 4l20 -4h24l328 -8l4 -4h4l4 4q271 -20 480 -56l4 4h4l56 -16l12 4l24 -16q0 18 36 24v-4l4 4h4l8 -8l20 4q25 0 32 -32l48 -12v8h24l24 -8l16 4q16 -8 16 -20l-24 -28v-4l4 -4v-4q-6 0 -16 -28h-60q-36 0 -68 12l-4 -4h-4q-33 0 -64 44v8
q0 10 16 12v4q-16 0 -16 28h-4l-24 -4q-24 12 -248 48l-4 -4l-220 28l-4 -4q-227 16 -464 16l-316 -4l-24 -4v4l-12 -4l-152 -8v4l-4 -4h-8l-4 4l-48 -8v4l-244 -24l-4 4l-112 -16v4l-224 -32l-4 4h-4l-212 -36v4l-216 -40l-4 4h-4l-60 -20l-4 4q-23 -2 -36 -12h-4l-4 4h-4
l-4 -4v-4l-20 4h-4q-10 -12 -52 -12q0 -8 -172 -44q-103 -25 -104 -32h4l12 4v-8l-92 -28l-60 -16l-4 -4h-24v-4q48 -213 84 -468q15 -7 28 -44l-8 -16l12 -12l-12 -16v-8l28 -52l4 -28l-12 -4v-4l4 -16q0 -60 -84 -148q-8 0 -36 -28q-47 -29 -92 -36v-4l-16 4l-20 -4l-4 4
v4l-12 -4q-47 11 -96 84l-4 20l4 4h4l4 -24h4v8q-3 24 -20 24v24h8v-16h4v24h-8v8h8v24l4 4v4h-8v12h8l-8 12q33 82 48 100q64 80 88 80l-8 8q0 -9 -20 -20h-8v8q0 21 100 48l20 -4l20 4q0 -8 44 -12v12h-8l4 12q-28 256 -88 460q-18 73 -36 96l4 4q-13 0 -20 24l4 12l-4 -4
h-4l-40 72l4 4h4l12 -8v16q-16 18 -16 28q6 16 12 16l16 -4l4 4h4l124 -16l8 8h8l8 -8l-16 -4v-4h16l504 72v-4l24 8l4 -4l24 8l16 -4q0 12 292 36h60q1 20 12 20zM1365 1228h12v-8h-12v8zM1441 1184l-8 -24h4l16 8l-4 16h-8zM1313 1184h32l8 -8l-4 -4l-20 4h-16v8z
M525 1080v-4h4l12 4v4h-4zM581 1088h12v-8h-12v8zM393 1068v-4h20v4h-20zM3837 1016l8 -8v-4l-8 -8h-4l-8 8zM321 360h4l28 8v4h-12q-20 -5 -20 -12zM209 140l4 -16h-4l4 -4v-28l4 -28h4v12h4l8 -8q0 -8 -12 -8q21 -28 28 -28l20 4q18 -30 32 -32v4l-4 12h4l24 4l4 -4v-4
l-12 -4v-4h24q89 33 132 96l-8 8l20 12l-4 4v8l8 12q-16 8 -16 20v40h-4v-36h-8l-4 20v36q-24 28 -64 28v12l4 4v4q-24 0 -24 8q21 0 24 24q-20 0 -20 12h-8q-48 0 -112 -64q-33 -52 -48 -116zM169 136h8v-12h-8v12zM433 76h4l-20 -20v4zM237 52h4l8 -8v-4h-4l-8 8v4z
M385 44h4v-4l-8 -8h-8z" />
    <glyph glyph-name="registered" unicode="&#xae;" horiz-adv-x="1674" 
d="M585 1510h8l8 -8l-4 -4h-12v12zM693 1510q0 -20 24 -20h8v4l8 8q16 -4 16 -16l4 4h12v-12h8v8l24 -8v-8h4l4 4h4v-4l4 4h4l44 -24l56 -44q0 -16 56 -20l16 -12l12 4q43 0 228 -96l104 -72l84 -76l-4 -4v-4q20 0 52 -48q68 -67 120 -184q64 -142 64 -256l-4 -4v-4l4 -4v-4
l-4 -4v-4l4 -4v-4l-4 -4l4 -16q0 -180 -164 -376q-8 0 -40 -44q-233 -180 -428 -212l-24 4q0 -16 -56 -16l-4 4h-4l-12 -12l-12 4l-68 -8l-4 4h-4l-4 -4h-4l-4 4h-4l-4 -4h-4l-4 4h-4l-4 -4q-40 5 -40 12l-4 -4h-4l-12 4l-8 -8l-28 8l-16 -4q0 8 -12 8l-4 -4h-4l-16 8l-4 -4
h-4q-58 15 -60 24l-12 -4q-72 24 -104 44q-41 4 -168 108v8q-18 0 -56 56q-10 0 -44 48l-48 76q-88 150 -88 196q-40 98 -40 236v32q0 282 240 548q173 176 352 176v8h4l12 -8h56l-8 12l4 4h16zM709 1506h8v-12h-8v12zM593 1462v-4h20v4h-20zM561 1450q0 -7 -84 -24
q-212 -84 -332 -308q-104 -176 -104 -368q0 -189 92 -384l48 -80q72 -100 80 -100q107 -114 200 -152l72 -32l116 -36l16 4l8 -8l4 4h16l8 -8l4 4h12l28 -8l52 4v-4l4 4h4l4 -4l4 4h60l24 -4l24 8l12 -4l8 8h8l20 -4l8 8h4l12 -8q17 15 160 56q72 28 192 100l4 -4
q0 14 72 68q120 121 148 200q34 66 56 184l-4 4v24l4 4l-4 4v4l4 4v4l-4 4v4l4 4v4l-4 16h4q-22 162 -52 220l-4 12l4 4q-7 3 -84 132q-29 44 -36 44q0 12 -12 12q-32 37 -32 52q-19 0 -76 60q-103 83 -232 136q-5 8 -92 32q-5 10 -100 20v-4h-4q-21 0 -24 12l-4 -4h-4
l-20 8l-24 -4l-8 8h-4l-20 -4v4l-4 -4h-4l-12 4l-32 -12l-16 4q-140 -20 -224 -72q-49 -17 -116 -88h-8l4 4v4q-16 0 -16 12q63 85 264 148l80 12h4l4 -4l24 8h8l24 -8l4 4h4l24 -4l12 4l4 -4l8 12q-99 44 -164 44h-52l-36 -4zM501 1178l28 -8l32 4l8 -8l28 4q13 -15 88 -40
q0 -12 8 -12q0 12 8 12l36 -36l4 4h4q36 -19 36 -28h4q0 12 8 12l8 -8l-12 -4v-4q36 -19 60 -76h4v4q-20 34 -20 52q28 -16 40 -80v-8q-9 -3 -24 -52q-6 -51 -208 -156q-76 -43 -120 -96l4 -36l-4 -4q0 -83 432 -228q76 -24 76 -44l-12 -8l-260 92l-16 8l-8 -8l-4 4v4l4 4
l-28 8h-4v-4h8v-4h-12l-32 16l4 4v8l-28 4v-4q-39 8 -108 56v-16l12 -24l-12 -12v-8l20 -24l-4 -4l16 -64l-4 -12l8 -24q0 -9 -20 -12l-12 12h-4q0 -36 -20 -36q-12 1 -24 28q-24 5 -24 96v32h8v8h-8v8h8v40h-4v-28h-8v60q0 20 12 20v8l-8 12v16l4 4l-4 4v156h8v20l-4 -4h-4
l-32 164l12 4l-8 32q12 15 12 28h4q-5 28 -16 28q5 55 16 68l-4 4q0 53 52 72zM489 1074l4 -4v-16l-4 -16l4 -4v-4l-4 -4v-4l4 -12l-12 -4v-4q0 -11 20 -40l8 -72h-4l4 -4v-12l-12 -16v-8h8l-4 -28q16 0 16 -8v-4l-8 -12l4 -4l-8 -8l8 -8l-4 -4v-4l4 -4v-4l-4 -4v-4l4 -4
l-4 -20v-8h8v-4l-4 -12q97 74 272 180l12 16h-4l-12 -12h-8v4l40 60q0 86 -256 148l-16 -4v4q-31 0 -52 -28zM437 1018h8v-16h-8v16zM461 862v-16h4v16h-4zM737 866l-12 -12h-4v8z" />
    <glyph glyph-name="macron" unicode="&#xaf;" horiz-adv-x="670" 
d="M1807 1834h8l12 -8l24 4q20 -6 20 -28l-4 -20l8 -8v-20l-8 -8h-8q-10 0 -12 16h-4q-5 0 -16 -36h-8q-16 12 -52 20v4l4 4l-4 4h-4l-16 -4v4l-4 -4h-4l-4 4h-4l-4 -4h-4l-4 4l-20 -4h-120l-16 4l-4 -4h-4l-4 4h-4l-4 -4h-4l-24 8l-16 -4l-4 4h-4l-4 -4l-20 4h-4l-20 -4
l-24 4l-16 -4l-16 4h-4l-16 -4l-4 4h-4l-4 -4h-4l-4 4l-20 -4h-64l-16 -4l-12 8l-4 -4h-4l-4 4h-4l-4 -4h-4l-4 4l-20 -4h-104l-16 -4l-16 4l-116 -4v4l-4 -4h-112l-60 -4v4l-4 -4h-24l-120 -4v4l-4 -4h-8l-4 4l-4 -4h-8l-4 4q-22 -8 -64 -8v4l-4 -4h-16l-60 -4v4l-4 -4h-4
l-488 -24l-12 -4v4l-4 -4h-8l-4 4q-18 -8 -200 -16l-4 -4l-24 4l-56 -8l-36 4l-12 -4v4l-40 -8l-28 4l-12 -4v4q-22 -8 -56 -8l-8 8l-8 -8l-12 4l-8 -8h-8l-24 4l-16 -4l-4 4l-8 -8h-32l-4 4l-56 -12l-8 8q-17 -12 -40 -12l-8 8q-20 -11 -84 -16v4l-4 -4h-36l-28 -4v-4h8v-4
l-16 -4l-4 4v4l4 4h-16l-28 -4l4 -4v-4l-4 -4h-72l-8 8v4l-4 -4h-68v-4h36v-4l-76 -8l-12 4l-24 -4h-12q-12 0 -12 24h-16v24q0 8 24 8v4h-16v8l40 12l52 -16l4 4q28 -3 28 -8l4 4h8l4 -4l4 4h4l8 -8v-4h-12v-4h16l284 12l24 -4l8 8l40 -4q0 8 12 8l52 -4q0 8 12 8
q40 0 40 -8l24 12q40 -2 40 -8l16 12l40 -4h24q20 0 20 8l48 -4h24q20 0 20 8l20 -4h40q20 0 20 8l16 -4q922 52 1172 52l12 4l4 -4l20 4h268l16 4l4 -4l60 4h192l4 -4l4 4h48l12 8h4l4 -4l4 4h12l4 -4l4 4h132l28 4v-4l4 4h36l20 4v4q-16 0 -16 12v12q5 16 36 16z
M1691 1750h12v-8h-12v8zM-1073 1646v-4h56v4l-40 4z" />
    <glyph glyph-name="degree" unicode="&#xb0;" horiz-adv-x="456" 
d="M164 1532h8q20 -1 20 -8l20 4h4q20 -24 36 -24l4 -4l4 4h4l28 -8l4 4h4q68 -33 68 -88h-12l4 -28v-8q0 -108 -140 -180l-24 -4h-40q-46 0 -80 80v40q12 126 72 208zM320 1468l16 -20v4l-12 16h-4zM124 1344l4 -16l-4 -12l4 -4q8 0 8 -28l52 -28q93 30 128 96v16
q0 41 -40 64q-28 0 -56 -28h-4q-26 33 -36 36q-56 -35 -56 -96zM248 1268v-4h8l44 44h-4zM84 1288v-12l4 -16h4v4l-4 24h-4z" />
    <glyph glyph-name="plusminus" unicode="&#xb1;" horiz-adv-x="778" 
d="M420 945h4q8 0 8 -12l12 8h16q17 0 36 -88h-12l124 -284q25 -43 60 -76v12h8l8 -8l20 4l16 -12l24 8q9 0 28 -32v-24l-4 -4v-4q8 0 12 -24l-24 -8q0 -18 -16 -28h-4v8q-15 0 -44 -84q-181 -301 -296 -572q0 -12 -8 -12q-9 0 -16 28l-4 -4h-8q20 76 40 76l-4 4v4l8 8
l-60 92l4 4v4q-16 0 -36 60l-52 96q-12 0 -12 8l4 4v4l-76 136l4 12l-4 -4h-4l-48 100l-4 -4h-4l-12 4v-4q-11 -20 -32 -20l-8 12l4 20l-4 -4h-8l-8 8l12 24q-6 0 -12 16l56 64q2 32 32 32l4 -4l220 300l-8 8l4 4h4l4 -4h4l4 4v4h-8v4l32 64l-8 8q0 10 16 12v16q-12 0 -12 8
q0 28 28 28zM440 829q-141 -169 -232 -292q-32 -42 -32 -56q6 0 12 -16l-12 -24q12 0 12 -8l-12 -32l4 -16h-4l16 -40l-12 -4v-8q156 -359 252 -456l156 304l-4 4l36 60l-4 4v8l12 12l4 -4v8h4l-4 4v12q13 7 44 116v4q-140 157 -140 228q-17 0 -28 52l4 12h-4l-8 8l4 4v8h-8
l4 4v8h-4v-8q-10 9 -40 84zM504 825h4l8 -8l-8 -8l-4 4v12zM660 525l4 -4v-12h-4l-8 8zM668 489v-4l12 -4v8h-12zM164 381v-4l4 -16h4v8l-4 12h-4zM428 -95v-16h-8v8z" />
    </font>
</defs>
</svg>
